<?xml version="1.0" encoding="UTF-8" standalone="no"?>
<svg
        version="1.0"
        width="946.4646pt"
        height="946.46466pt"
        viewBox="0 0 946.4646 946.46466"
        preserveAspectRatio="xMidYMid"
        id="svg12"
        sodipodi:docname="i_power_house.svg"
        inkscape:version="1.2.1 (9c6d41e, 2022-07-14)"
        xmlns:inkscape="http://www.inkscape.org/namespaces/inkscape"
        xmlns:sodipodi="http://sodipodi.sourceforge.net/DTD/sodipodi-0.dtd"
        xmlns="http://www.w3.org/2000/svg"
        xmlns:svg="http://www.w3.org/2000/svg">
    <defs
            id="defs16"/>
    <sodipodi:namedview
            id="namedview14"
            pagecolor="#ffffff"
            bordercolor="#000000"
            borderopacity="0.25"
            inkscape:showpageshadow="2"
            inkscape:pageopacity="0.0"
            inkscape:pagecheckerboard="0"
            inkscape:deskcolor="#d1d1d1"
            inkscape:document-units="pt"
            showgrid="false"
            inkscape:zoom="0.42223725"
            inkscape:cx="762.60444"
            inkscape:cy="609.84672"
            inkscape:window-width="1335"
            inkscape:window-height="865"
            inkscape:window-x="177"
            inkscape:window-y="38"
            inkscape:window-maximized="0"
            inkscape:current-layer="svg12"/>
    <metadata
            id="metadata2">
        Created by potrace 1.15, written by Peter Selinger 2001-2017
    </metadata>
    <rect
            style="fill:#000000;fill-opacity:1;stroke:none;stroke-width:120;stroke-dasharray:none;stroke-opacity:1"
            id="rect1631"
            width="946.4646"
            height="946.46466"
            x="-7.1054274e-15"
            y="-7.1054274e-15"/>
    <g
            transform="matrix(0.1000022,0,0,-0.08011855,-194.74914,986.08726)"
            fill="#000000"
            stroke="none"
            id="g4642"
            style="fill:#ffff00;fill-opacity:1;stroke:#000000;stroke-opacity:1">
        <path
                d="m 6605,11166 c -56,-25 -114,-102 -180,-239 -69,-148 -100,-213 -125,-272 -10,-22 -47,-103 -83,-180 -63,-137 -91,-197 -147,-320 -28,-62 -34,-76 -145,-315 -37,-80 -76,-163 -85,-185 -10,-22 -34,-75 -54,-118 -20,-42 -36,-79 -36,-81 0,-2 -22,-50 -49,-107 -27,-57 -75,-160 -106,-229 -32,-69 -75,-163 -97,-210 -22,-47 -57,-124 -79,-172 -21,-48 -43,-95 -48,-105 -6,-10 -47,-99 -92,-198 -44,-99 -98,-217 -120,-262 -21,-45 -39,-84 -39,-86 0,-3 -22,-51 -49,-108 -27,-57 -71,-153 -99,-214 -27,-60 -71,-155 -97,-210 -26,-55 -75,-163 -110,-240 -34,-77 -88,-193 -119,-259 -31,-65 -56,-119 -56,-121 0,-2 -21,-48 -46,-102 -55,-117 -62,-133 -155,-333 -63,-138 -72,-163 -76,-230 -5,-65 -3,-78 15,-100 l 20,-25 464,5 c 254,3 614,5 798,5 h 335 l 49,-25 c 31,-16 54,-36 64,-56 16,-35 21,-17 -87,-304 -21,-58 -53,-143 -70,-190 -17,-47 -36,-94 -41,-105 -5,-11 -21,-54 -36,-95 -14,-41 -32,-88 -39,-105 -8,-16 -64,-165 -126,-330 -61,-165 -121,-322 -131,-350 -11,-27 -30,-79 -43,-115 -13,-36 -44,-119 -70,-185 -47,-123 -69,-181 -173,-460 -33,-88 -78,-209 -102,-270 -23,-60 -52,-139 -65,-175 -13,-36 -44,-119 -70,-185 -25,-66 -62,-163 -81,-215 -19,-52 -39,-104 -44,-115 -5,-11 -25,-65 -45,-120 -19,-55 -40,-109 -45,-120 -6,-11 -28,-69 -50,-130 -21,-60 -60,-164 -85,-230 -25,-66 -57,-149 -69,-185 -13,-36 -46,-126 -74,-200 -27,-74 -53,-150 -56,-168 -6,-36 17,-106 33,-100 12,4 167,211 1506,2003 197,264 523,701 725,970 201,270 480,643 619,830 140,187 273,365 296,395 55,72 175,232 625,835 205,275 395,529 422,565 66,89 90,141 86,187 l -3,38 -200,6 c -110,4 -573,7 -1029,8 -751,1 -828,2 -822,17 3,9 44,73 89,142 46,70 133,201 192,292 60,91 165,251 233,355 69,105 176,267 237,360 62,94 177,269 257,390 79,121 198,301 263,400 65,99 182,277 260,395 233,353 432,656 533,810 52,80 130,198 172,262 98,147 121,233 78,285 -16,19 -2380,18 -2423,-1 z"
                id="path4640"
                style="fill:#ffff00;fill-opacity:1;stroke:#000000;stroke-opacity:1"/>
    </g>
</svg>
