<?xml version="1.0" encoding="utf-8"?>
<!-- Svg Vector Icons : http://www.onlinewebfonts.com/icon -->
<!DOCTYPE svg PUBLIC "-//W3C//DTD SVG 1.1//EN" "http://www.w3.org/Graphics/SVG/1.1/DTD/svg11.dtd">
<svg version="1.1" xmlns="http://www.w3.org/2000/svg" x="0px" y="0px"
     viewBox="0 0 1000 1000" enable-background="new 0 0 1000 1000" xml:space="preserve">
<metadata> Svg Vector Icons : http://www.onlinewebfonts.com/icon </metadata>
    <g><path d="M958.2,678.9c2.1,18.2,4.5,38.6,7.3,61.3c2.8,22.7,5.4,45.9,7.9,69.7c2.4,23.7,5.1,47.3,7.9,70.7c2.8,23.4,5.2,44.5,7.3,63.4c4.2,32.8-10.1,48.2-42.9,46.1c-17.5-1.4-37.2-3.3-59.2-5.8c-22-2.4-44.5-5.1-67.6-7.9c-23-2.8-45.9-5.6-68.6-8.4c-22.7-2.8-43.5-5.2-62.3-7.3c-20.3-2.1-33.2-7.9-38.8-17.3c-5.6-9.4-2.4-20.1,9.4-31.9c7.7-7,17.1-16.6,28.3-28.8c11.2-12.2,20.6-22.2,28.3-29.8c7.7-8.4,10.1-16.1,7.3-23c-2.8-7-8.4-15-16.8-24.1c-19.6-18.8-37.4-36-53.4-51.3c-16.1-15.4-33.9-33.2-53.4-53.4c-4.2-4.2-8.4-8.7-12.6-13.6c-4.2-4.9-7.3-10.3-9.4-16.2c-2.1-5.9-2.4-12.2-1-18.9c1.4-6.6,5.9-13.8,13.6-21.5c4.2-4.2,7.7-7.9,10.5-11c2.8-3.1,5.6-5.9,8.4-8.4c2.8-2.4,5.8-5.2,8.9-8.4s7.2-7.5,12-13.1c14-14,26.9-19.9,38.8-17.8c11.9,2.1,24.8,10.1,38.8,24.1c14,14,28.3,28.1,42.9,42.4c14.7,14.3,31.1,30.5,49.2,48.7c13.3,12.6,24.6,21.3,34,26.2c9.4,4.9,18.7,2.8,27.8-6.3c6.3-6.3,14.1-13.8,23.6-22.5c9.4-8.7,17.6-16.6,24.6-23.6c11.9-11.9,22.5-16.4,31.9-13.6C950.4,650.2,956.1,660.7,958.2,678.9L958.2,678.9z M44.9,322.8c-2.1-18.2-4.5-38.6-7.3-61.3c-2.8-22.7-5.4-45.9-7.9-69.7c-2.4-23.7-5.1-47.3-7.9-70.7c-2.8-23.4-5.2-44.5-7.3-63.4c-2.1-18.2,0.2-30.7,6.8-37.7c6.6-7,18.3-9.8,35.1-8.4c17.5,1.4,37.2,3.3,59.2,5.8c22,2.4,44.5,5.1,67.6,7.9c23,2.8,45.9,5.6,68.6,8.4c22.7,2.8,43.5,5.2,62.3,7.3c20.9,2.1,34,7.9,39.3,17.3c5.2,9.4,1.9,20.1-10,31.9c-7,7-15.5,16.1-25.7,27.2c-10.1,11.2-19,20.6-26.7,28.3c-8.4,8.4-11.2,16.1-8.4,23c2.8,7,8.7,15,17.8,24.1c9.1,9.8,17.6,18.3,25.7,25.7c8,7.3,15.9,14.7,23.6,22s15.7,15.2,24.1,23.6l26.2,26.2c4.2,4.2,8.2,9.1,12,14.7c3.8,5.6,6.6,11.5,8.4,17.8c1.7,6.3,1.6,12.9-0.5,19.9c-2.1,7-6.6,14-13.6,20.9l-11.5,11.5c-2.8,2.8-5.4,5.6-7.9,8.4c-2.4,2.8-5.4,5.6-8.9,8.4l-11.5,12.6c-14,14-26,19.2-36.1,15.7c-10.1-3.5-22.2-12.2-36.1-26.2c-14-14-27.2-27.1-39.8-39.3c-12.6-12.2-27.9-27.4-46.1-45.6c-12.6-12.6-23.7-21.3-33.5-26.2c-9.8-4.9-19.2-2.8-28.3,6.3c-6.3,7-15,15.5-26.2,25.7c-11.2,10.1-20.2,18.7-27.2,25.7c-11.9,11.9-22.3,16.4-31.4,13.6C52.6,351.4,47,340.9,44.9,322.8L44.9,322.8z M943.6,10.6c18.2-2.1,30.7,0.2,37.7,6.8c7,6.6,9.8,18.7,8.4,36.1c-1.4,17.5-3.3,37.2-5.8,59.2c-2.4,22-5.1,44.5-7.9,67.6c-2.8,23-5.6,45.9-8.4,68.6c-2.8,22.7-5.2,43.5-7.3,62.3c-2.1,20.3-7.9,33.2-17.3,38.8c-9.4,5.6-20.1,2.1-31.9-10.5c-7-7-16.1-15.5-27.2-25.7c-11.2-10.1-20.6-19-28.3-26.7c-8.4-7.7-16.1-10.3-23-7.9c-7,2.4-15,8.2-24.1,17.3c-18.8,18.9-35.4,36-49.8,51.3c-14.3,15.4-31.2,32.8-50.8,52.4c-4.2,4.2-9.1,8.2-14.7,12c-5.6,3.8-11.5,6.6-17.8,8.4c-6.3,1.7-12.9,1.6-19.9-0.5c-7-2.1-14-7-20.9-14.7c-4.2-4.2-7.9-7.7-11-10.5c-3.1-2.8-6.1-5.6-8.9-8.4c-2.8-2.8-5.8-5.6-8.9-8.4c-3.1-2.8-7.2-7-12-12.6c-14-14-19.6-26.2-16.8-36.7s11.5-22.7,26.2-36.7l39.8-41.9c13.3-14,29-30,47.1-48.2c13.3-12.6,22.3-23.7,27.2-33.5c4.9-9.8,2.4-18.9-7.3-27.2c-6.3-6.3-14.3-14.8-24.1-25.7c-9.8-10.8-18.2-19.7-25.1-26.7c-11.9-11.9-16.4-22.3-13.6-31.4c2.8-9.1,13.3-14.7,31.4-16.8c18.2-2.1,38.6-4.5,61.3-7.3c22.7-2.8,46.1-5.4,70.2-7.9c24.1-2.4,47.7-5.1,70.7-7.9C903.8,15.2,924.7,12.7,943.6,10.6L943.6,10.6z M364.4,589.8c4.2,4.2,7.9,7.7,11,10.5c3.1,2.8,6.1,5.6,8.9,8.4l8.4,9.4l12.6,11.5c14,14,20.1,26.7,18.3,38.2c-1.7,11.5-10,24.6-24.6,39.3c-13.3,13.3-27.2,27.4-41.9,42.4c-14.7,15-31.1,31.6-49.2,49.7c-12.6,12.6-20.4,22.9-23.6,30.9c-3.1,8-0.2,16.6,8.9,25.7c7,6.3,14.8,14.1,23.6,23.6c8.7,9.4,16.6,17.6,23.6,24.6c11.9,11.9,16.2,22.3,13.1,31.4c-3.1,9.1-13.8,14.7-31.9,16.8c-18.2,2.1-38.4,4.5-60.7,7.3c-22.3,2.8-45.6,5.6-69.7,8.4c-24.1,2.8-47.8,5.6-71.2,8.4c-23.4,2.8-44.5,5.2-63.4,7.3c-17.5,1.4-29.9-1.2-37.2-7.9c-7.3-6.6-10.3-18.3-8.9-35.1c1.4-17.5,3.3-37.2,5.8-59.2c2.4-22,5.1-44.5,7.9-67.6c2.8-23,5.6-45.9,8.4-68.6c2.8-22.7,5.2-43.5,7.3-62.3c2.1-20.9,7.9-34,17.3-39.3c9.4-5.2,20.1-1.9,31.9,9.9c7,7,16.6,16.1,28.8,27.2c12.2,11.2,22.2,20.6,29.9,28.3c8.4,8.4,15.4,12,20.9,11c5.6-1,12.6-6.1,20.9-15.2c9.1-9.1,17.8-18,26.2-26.7c8.4-8.7,16.8-17.3,25.1-25.7c8.4-8.4,16.9-17.1,25.7-26.2c8.7-9.1,18-18.5,27.8-28.3c4.2-4.2,8.7-8.4,13.6-12.6c4.9-4.2,10.3-7.3,16.2-9.4c5.9-2.1,12.2-2.3,18.9-0.5C349.5,577.4,356.7,582.2,364.4,589.8L364.4,589.8z"/></g>
</svg>