<?xml version="1.0" encoding="UTF-8" standalone="no"?>
<!-- Created with Inkscape (http://www.inkscape.org/) -->

<svg
   width="199.31888mm"
   height="155.0907mm"
   viewBox="0 0 199.31888 155.0907"
   version="1.1"
   id="svg5"
   xml:space="preserve"
   inkscape:version="1.2.2 (732a01da63, 2022-12-09)"
   sodipodi:docname="qm.svg"
   xmlns:inkscape="http://www.inkscape.org/namespaces/inkscape"
   xmlns:sodipodi="http://sodipodi.sourceforge.net/DTD/sodipodi-0.dtd"
   xmlns="http://www.w3.org/2000/svg"
   xmlns:svg="http://www.w3.org/2000/svg"><sodipodi:namedview
     id="namedview7"
     pagecolor="#505050"
     bordercolor="#eeeeee"
     borderopacity="1"
     inkscape:showpageshadow="0"
     inkscape:pageopacity="0"
     inkscape:pagecheckerboard="0"
     inkscape:deskcolor="#505050"
     inkscape:document-units="mm"
     showgrid="false"
     inkscape:zoom="0.914906"
     inkscape:cx="360.14629"
     inkscape:cy="300.57733"
     inkscape:window-width="2560"
     inkscape:window-height="1360"
     inkscape:window-x="-11"
     inkscape:window-y="1609"
     inkscape:window-maximized="1"
     inkscape:current-layer="layer1" /><defs
     id="defs2" /><g
     inkscape:label="Layer 1"
     inkscape:groupmode="layer"
     id="layer1"
     transform="translate(0.31378289,-46.693503)"><path
       style="fill:#000000;stroke-width:0.352778"
       d="M 12.948549,201.44152 C 6.5182498,200.50377 1.1070022,195.10711 0.03533034,188.56311 -0.44881482,185.60674 -0.42054674,72.561399 0.0650942,69.540457 0.26783911,68.279276 0.81575238,66.409007 1.2826749,65.384304 2.3486988,63.044834 5.4856763,59.724352 7.8408278,58.44252 11.597096,56.398102 8.4903058,56.49641 69.486609,56.491867 l 56.213521,-0.0042 3.16968,-2.120159 c 8.34197,-5.579854 17.10339,-8.046074 27.10188,-7.628805 5.10836,0.213187 8.05244,0.731149 12.52361,2.203326 8.27634,2.725064 16.29071,8.543012 21.7519,15.790559 3.03592,4.028962 6.06062,10.406885 7.38285,15.567579 1.43964,5.618904 1.77939,12.689787 0.87429,18.19552 -1.84583,11.228163 -7.87251,21.653873 -16.1963,28.018373 l -2.30689,1.76389 -0.0203,30.21926 c -0.0189,28.21768 -0.0629,30.3557 -0.6633,32.27917 -1.77058,5.672 -6.68273,9.83146 -12.62493,10.6904 -3.03838,0.43921 -150.725598,0.41493 -153.744078,-0.0252 z M 169.4443,196.78943 c 2.44635,-1.20132 5.25253,-4.16374 6.15556,-6.49825 0.61331,-1.58554 0.6591,-3.44238 0.75288,-30.52781 0.0695,-20.08351 -0.0133,-28.83958 -0.27289,-28.83958 -0.205,0 -1.28101,0.45642 -2.39114,1.01427 -10.16392,5.10744 -24.09535,5.89624 -34.5833,1.95811 -1.29806,-0.48741 -3.43146,-1.379 -4.74089,-1.9813 l -2.38077,-1.09509 -7.90889,1.4632 c -4.34989,0.80477 -8.19979,1.3694 -8.55534,1.25474 -2.22874,-0.71872 -3.29228,-1.98707 -3.29228,-3.92628 0,-0.54703 0.61052,-4.34782 1.3567,-8.44619 l 1.35669,-7.45159 -1.31567,-2.77202 c -3.09224,-6.51506 -4.3385,-12.197642 -4.32164,-19.70535 0.0112,-4.970289 0.7519,-9.925477 2.02178,-13.524688 l 0.52013,-1.47422 -2.46841,-1.243072 C 99.734872,70.138701 87.232237,69.216879 76.536386,72.572977 61.27215,77.362521 49.385938,90.764743 46.217796,106.75851 c -0.646274,3.2626 -0.646274,12.96519 0,16.22778 1.635175,8.25488 5.636243,16.11656 11.226641,22.05919 7.853532,8.34835 17.176743,12.93757 28.599878,14.07787 15.770105,1.57423 32.342675,-6.48243 41.059265,-19.96071 1.52776,-2.36235 2.30056,-2.86648 3.45062,-2.25099 1.49229,0.79865 1.30864,1.9706 -0.79381,5.06575 -7.38713,10.87505 -19.29199,18.36365 -32.698395,20.56852 -4.404833,0.72443 -12.991405,0.46233 -17.290306,-0.52778 -9.527518,-2.19435 -16.677999,-6.14932 -23.674372,-13.09443 -4.410672,-4.37835 -6.682582,-7.47605 -9.288382,-12.66451 -3.51555,-6.99988 -4.923874,-13.19041 -4.905558,-21.56319 0.0181,-8.26844 1.322966,-13.76689 5.065088,-21.343053 6.483202,-13.125669 18.463771,-22.376423 33.184655,-25.623421 3.035469,-0.669537 4.719856,-0.81086 9.672736,-0.811558 8.255497,-0.0011 13.551014,1.130271 20.534694,4.38743 l 2.89581,1.350588 1.45388,-2.695388 c 1.54639,-2.866915 3.18993,-5.237935 5.40755,-7.801098 1.09606,-1.266836 1.2547,-1.615137 0.80718,-1.77219 -0.30634,-0.107512 -24.970839,-0.116099 -54.809992,-0.01909 l -54.253009,0.176389 -1.778053,0.938565 C 7.9207496,62.625046 5.5380744,65.13815 4.510394,67.361818 L 3.74808,69.01129 v 60.14861 60.14861 l 0.9505985,1.80179 c 1.3007516,2.4655 2.5435948,3.86625 4.3909649,4.94888 3.3452896,1.96047 -1.534996,1.85368 81.4417676,1.78222 l 76.905559,-0.0662 z M 58.075857,191.64896 c -1.738627,-0.79183 -3.830952,-3.05619 -4.390429,-4.75143 l -0.418634,-1.26848 -17.766503,-0.10055 c -17.394219,-0.0984 -17.787362,-0.11601 -18.762133,-0.83854 -3.503256,-2.59671 -3.451937,-7.53893 0.09942,-9.57495 1.371141,-0.78608 1.415672,-0.78796 18.854211,-0.79375 l 17.479825,-0.006 0.46615,-1.32292 c 1.043855,-2.96244 3.184909,-4.76362 6.439439,-5.41722 3.73556,-0.75021 7.376312,1.10956 8.999174,4.59695 l 0.99392,2.13584 45.897143,0.004 45.89713,0.004 1.16626,0.79375 c 1.74779,1.18953 2.54806,2.48576 2.70627,4.38344 0.17543,2.1043 -0.88124,4.13577 -2.71005,5.21009 -1.22481,0.71951 -1.56989,0.72596 -43.84527,0.81896 -29.118784,0.0641 -42.828772,-0.0229 -43.299311,-0.27476 -1.008387,-0.53968 -1.268557,-1.991 -0.50764,-2.8318 0.614758,-0.6793 1.364488,-0.69134 43.055501,-0.69134 38.70335,0 42.48022,-0.0504 43.00337,-0.57352 0.81633,-0.81633 0.54126,-2.31676 -0.52312,-2.85343 -0.69836,-0.35212 -10.24484,-0.42725 -45.86111,-0.36095 l -44.979173,0.0837 -0.176389,4.43699 c -0.162239,4.08102 -0.253104,4.55278 -1.132646,5.88048 -2.360687,3.56355 -6.985451,4.99696 -10.685409,3.31187 z m 6.173611,-3.89194 c 1.733165,-1.20922 2.11552,-2.60417 2.116119,-7.72026 7.06e-4,-5.07712 -0.304154,-6.34517 -1.872301,-7.79063 -1.240846,-1.14377 -3.562646,-1.36106 -5.155448,-0.48247 -2.125521,1.17243 -2.496704,2.37964 -2.496704,8.12006 0,5.27234 0.220762,6.26439 1.689866,7.59391 1.508989,1.36562 3.987987,1.48673 5.718468,0.27939 z m -11.288889,-7.97351 v -1.94028 H 36.356832 c -10.642536,0 -16.845833,0.12957 -17.278025,0.36087 -1.171988,0.62723 -1.523344,1.6853 -0.883779,2.6614 l 0.562374,0.85829 h 17.101587 17.10159 z m 28.435412,-47.79747 c -1.333087,-0.42173 -2.997313,-2.00484 -3.608027,-3.43217 -0.599821,-1.40187 -0.706321,-24.86749 -0.122404,-26.96981 0.770971,-2.775772 4.430004,-4.674468 7.180365,-3.725933 0.798685,0.275445 6.135278,3.213243 11.859097,6.528443 11.264168,6.52413 11.927348,7.06811 12.236048,10.03688 0.11543,1.11014 -0.0584,1.92557 -0.6598,3.09478 -0.91575,1.78041 -0.66849,1.61784 -14.801734,9.73221 -8.570397,4.92055 -9.878465,5.43319 -12.083545,4.7356 z m 12.821204,-9.51233 c 5.699749,-3.28934 10.493795,-6.18653 10.653435,-6.43819 0.60468,-0.95322 0.29066,-2.0169 -0.84547,-2.86392 -1.80301,-1.34419 -20.234206,-11.88114 -20.782451,-11.88114 -0.270493,0 -0.844631,0.24712 -1.275856,0.54917 l -0.784052,0.54917 v 12.38763 c 0,11.03177 0.0639,12.45825 0.583843,13.03278 0.321113,0.35482 0.922137,0.64514 1.335606,0.64514 0.413473,0 5.415199,-2.69129 11.114945,-5.98064 z m 65.458655,9.8489 c 6.32056,-0.89862 11.74047,-2.96511 17.14584,-6.53733 19.86023,-13.12492 24.43078,-39.791324 10.13607,-59.137943 -2.19376,-2.969066 -6.60826,-7.142949 -9.79634,-9.262378 -3.47637,-2.31109 -8.49107,-4.599989 -12.56706,-5.736093 -3.28084,-0.91447 -3.95175,-0.977755 -10.38656,-0.979738 -7.53518,-0.0025 -9.70975,0.374096 -15.52222,2.68689 -15.8675,6.313706 -26.38366,22.573738 -25.63982,39.644161 0.28193,6.469998 1.42182,10.976241 4.28673,16.946441 l 1.52988,3.18811 -1.37729,7.56466 c -1.40393,7.71103 -1.58097,9.16886 -1.1127,9.16244 0.14552,-0.002 3.6559,-0.637 7.80084,-1.41111 4.14493,-0.77412 7.88075,-1.40749 8.30182,-1.40749 0.42106,0 1.79319,0.54567 3.04918,1.21261 2.88906,1.53409 7.882,3.21424 11.48588,3.86506 3.30905,0.59756 9.21942,0.69169 12.66575,0.20171 z m -9.57603,-4.37859 c -1.73816,-0.7563 -4.05195,-3.04289 -4.81208,-4.75552 -0.84471,-1.90319 -0.9177,-5.30503 -0.15299,-7.13061 1.41725,-3.38341 4.76383,-5.59752 8.45184,-5.59176 5.25712,0.008 9.07238,3.78982 9.07238,8.99238 0,5.24004 -3.8037,9.01234 -9.05681,8.98203 -1.31613,-0.008 -2.89219,-0.23103 -3.50234,-0.49652 z m 6.77845,-4.24705 c 0.65284,-0.49795 1.41123,-1.56655 1.76012,-2.48011 0.52793,-1.38236 0.55134,-1.81104 0.16871,-3.08816 -1.25466,-4.18768 -6.31886,-5.40889 -9.13399,-2.20263 -2.43456,2.7728 -1.50835,6.9913 1.87136,8.52337 1.48145,0.67155 3.91736,0.32791 5.3338,-0.75247 z m -10.7138,-16.47985 c -0.30678,-0.30677 -0.42334,-2.86142 -0.42334,-9.278052 0,-6.416636 0.11656,-8.971283 0.42334,-9.278055 0.26814,-0.26814 1.61767,-0.423334 3.6812,-0.423334 4.96391,0 6.52486,-0.880198 7.18299,-4.0504 0.47197,-2.273438 0.004,-4.686067 -1.07834,-5.562794 -0.43738,-0.354193 -1.35405,-0.617361 -2.15042,-0.617361 -1.77521,0 -2.94865,1.117451 -3.28902,3.132095 -0.41775,2.472665 -0.78066,2.569813 -9.1319,2.444598 -5.25469,-0.07878 -7.3684,-0.23144 -7.69191,-0.555523 -1.00584,-1.007618 0.0476,-6.534721 1.93198,-10.136448 1.49486,-2.857225 5.14256,-6.468498 7.93199,-7.85277 3.53804,-1.755782 6.78342,-2.319574 12.19743,-2.11896 3.79455,0.140607 5.14366,0.343821 7.45516,1.122952 5.56972,1.877374 9.97823,5.854432 11.83269,10.674675 1.10605,2.874927 1.3604,8.886983 0.53326,12.604817 -1.55754,7.000839 -5.75694,11.551884 -11.92498,12.92353 l -2.02847,0.45109 v 2.68758 c 0,4.38621 0.24729,4.2557 -8.06333,4.2557 -4.94685,0 -7.08767,-0.12267 -7.38833,-0.42334 z m 11.57111,-6.03563 c 0,-1.820918 0.16703,-3.136317 0.44097,-3.472754 0.26123,-0.320827 1.57354,-0.708706 3.21957,-0.951611 6.41514,-0.946683 9.83409,-4.884794 10.86018,-12.509288 1.16721,-8.672968 -3.35389,-15.127362 -12.05128,-17.204644 -2.89782,-0.692112 -9.22749,-0.588018 -11.9367,0.19631 -2.79768,0.809935 -5.88979,2.784838 -7.56927,4.834431 -1.39193,1.698657 -2.92672,4.766779 -3.28789,6.572645 l -0.22489,1.124434 h 4.80186 4.80187 l 0.55074,-1.318102 c 1.19509,-2.860273 3.08785,-4.034991 6.53611,-4.056577 3.12333,-0.01954 5.16952,1.078604 6.17627,3.3147 0.95206,2.11462 0.96389,7.687338 0.0201,9.468312 -1.68811,3.185555 -3.55959,4.306334 -7.62932,4.56898 l -2.99861,0.19352 -0.0975,5.630284 c -0.0536,3.09665 -0.0189,5.83509 0.0771,6.08542 0.12865,0.33524 1.24618,0.45513 4.24267,0.45513 h 4.06802 z"
       id="path302"
       sodipodi:nodetypes="cssssscssssssscccsccssssssscsssscscscsssssssssssssssscscsssscsscccssscscsccssccssscccsssscssssscssccscsssssccsssccccsssssssssssssscssssssssscssscsssssssssscscsssssssssssscssssssssssscssssssssssscccssssscccscs" /></g></svg>
