<?xml version="1.0" encoding="UTF-8" standalone="no"?>
<!-- Created with Inkscape (http://www.inkscape.org/) -->

<svg
        version="1.1"
        id="svg13296"
        width="581.33331"
        height="154.66667"
        viewBox="0 0 581.33331 154.66667"
        sodipodi:docname="gurobi-optimizer.svg"
        inkscape:version="1.2.2 (732a01da63, 2022-12-09)"
        xmlns:inkscape="http://www.inkscape.org/namespaces/inkscape"
        xmlns:sodipodi="http://sodipodi.sourceforge.net/DTD/sodipodi-0.dtd"
        xmlns="http://www.w3.org/2000/svg"
>
    <defs
            id="defs13300">
        <rect
                x="192.09197"
                y="171.55383"
                width="389.31847"
                height="91.817544"
                id="rect15852"/>
        <rect
                x="195.41431"
                y="3.9264081"
                width="388.11034"
                height="87.287073"
                id="rect14855"/>
        <rect
                x="205.87998"
                y="165.72911"
                width="376.3076"
                height="126.43252"
                id="rect14601"/>
    </defs>
    <sodipodi:namedview
            id="namedview13298"
            pagecolor="#505050"
            bordercolor="#eeeeee"
            borderopacity="1"
            inkscape:showpageshadow="0"
            inkscape:pageopacity="0"
            inkscape:pagecheckerboard="0"
            inkscape:deskcolor="#505050"
            showgrid="false"
            inkscape:zoom="1.655457"
            inkscape:cx="215.34838"
            inkscape:cy="100.27442"
            inkscape:window-width="2560"
            inkscape:window-height="1360"
            inkscape:window-x="2869"
            inkscape:window-y="303"
            inkscape:window-maximized="1"
            inkscape:current-layer="g13302"/>
    <g
            inkscape:groupmode="layer"
            inkscape:label="Image"
            id="g13302">
        <path
                style="fill:#000000;stroke-width:1.33333"
                d="m 221.27421,78.78883 c -15.31228,-3.00823 -25.9846,-16.67242 -25.95189,-33.22724 0.0197,-9.99707 2.26775,-16.07905 8.61507,-23.30825 9.9877,-11.37537 26.49427,-14.50676 41.34309,-7.843 4.30837,1.93348 7.8334,4.07062 7.8334,4.74919 0,0.67857 -1.04082,2.61361 -2.31292,4.30008 l -2.31292,3.0663 -5.35375,-2.8045 c -3.75677,-1.96795 -7.74008,-2.79111 -13.35375,-2.75961 -14.59916,0.0819 -22.19126,7.11857 -23.10134,21.41118 -0.66549,10.45135 1.37888,16.65202 7.16525,21.73252 8.42876,7.40056 18.78641,7.93495 29.18875,1.50595 3.94288,-2.43683 4.74734,-3.70638 4.74734,-7.49194 0,-4.42868 -0.15122,-4.55792 -5.33333,-4.55792 -5.20635,0 -5.33333,-0.11111 -5.33333,-4.66667 v -4.66666 h 10 10 v 17.33333 17.33333 h -4.66667 c -4.12188,0 -4.66667,-0.39972 -4.66667,-3.42412 v -3.42413 l -3.79993,2.70579 c -3.14903,2.2423 -13.57247,4.730698 -16.20007,4.806309 -0.37178,0.0107 -3.29452,-0.138949 -6.50633,-0.769939 z m 74.95998,0.17707 c -7.09541,-1.71498 -12.97582,-5.94637 -16.0975,-11.58334 -2.66516,-4.81261 -3.0714,-7.98452 -3.87627,-30.26518 l -0.89909,-24.88912 h 5.43704 5.43705 l 0.43923,24.77843 0.93003,25.080471 4.02791,3.733049 c 4.09981,3.799682 5.12679,3.99109 12.38512,3.46607 5.82614,-0.42143 8.63107,-1.33284 10.81462,-3.51402 2.802,-2.79894 2.96876,-4.19976 3.36236,-28.2445 l 0.41414,-25.2995 h 5.25252 5.25252 v 23.9132 c 0,13.65415 -0.6084,25.52348 -1.41816,27.66666 -1.70981,4.52539 -7.34857,10.69301 -11.91517,13.0327 -4.48897,2.29992 -14.37581,3.37482 -19.54635,2.12508 z m 56.43524,-0.95987 c -1.1311,-1.13109 -1.14645,-44.8499 -0.02,-56.77777 l 0.85,-9 h 14.54007 c 15.80457,0 20.06949,1.27357 24.92154,7.44195 6.18203,7.85917 4.75682,20.50127 -3.00986,26.69845 l -4.40007,3.5109 7.78135,13.96483 c 4.2798,7.68066 7.78141,14.20912 7.78141,14.50768 0,0.29857 -2.55,0.53966 -5.66667,0.53576 l -5.66666,-0.007 -7.09039,-13.32624 -7.09039,-13.32627 h -6.57627 -6.57628 v 13.33334 13.33333 h -4.44444 c -2.44446,0 -4.84446,-0.4 -5.33334,-0.88889 z m 31.01433,-38.62425 c 1.5199,-1.93223 2.76344,-5.15132 2.76344,-7.15352 0,-2.00221 -1.24354,-5.2213 -2.76344,-7.15353 -2.51025,-3.19127 -3.60969,-3.51314 -11.99999,-3.51314 h -9.23656 v 10.66667 10.66666 h 9.23656 c 8.3903,0 9.48974,-0.32187 11.99999,-3.51314 z m 51.43011,36.33006 c -27.17865,-12.87056 -26.58719,-50.29883 0.98227,-62.15889 16.72858,-7.19645 37.50126,1.44099 44.68015,18.57834 3.0156,7.19878 2.58264,20.03831 -0.91966,27.27312 -8.06815,16.66655 -28.36384,24.06374 -44.74276,16.30743 z m 27.0869,-9.97478 c 4.57878,-3.26037 8.66814,-10.12506 10.16515,-17.0639 1.98264,-9.18978 -4.62864,-21.59441 -13.48031,-25.29287 -10.30367,-4.30515 -21.70241,-1.17276 -29.01027,7.97208 -3.62342,4.53423 -4.08394,6.08327 -4.00044,13.45595 0.11093,9.79229 3.42882,16.26791 11.0419,21.55055 4.16123,2.88743 6.02743,3.30773 12.92046,2.9099 5.72867,-0.33064 9.30121,-1.35115 12.36351,-3.53171 z m 41.13532,12.26897 C 502.8472,77.51715 502.4472,62.51715 502.4472,44.6727 V 12.22826 h 15.0208 c 17.63047,0 22.83101,1.90877 26.78337,9.83038 3.00223,6.01727 2.14311,12.53212 -2.33992,17.74394 l -3.08355,3.58484 3.72064,3.13072 c 10.71432,9.0155 5.96983,27.00789 -8.1929,31.06971 -5.11071,1.46573 -29.64131,1.79643 -31.01955,0.41818 z m 31.83838,-11.71717 c 2.06298,-2.06298 3.27273,-4.79611 3.27273,-7.39394 0,-2.59783 -1.20975,-5.33095 -3.27273,-7.39394 -2.85539,-2.85539 -4.47063,-3.27272 -12.66667,-3.27272 h -9.39393 v 10.66666 10.66667 h 9.39393 c 8.19604,0 9.81128,-0.41733 12.66667,-3.27273 z M 533.4472,36.13745 c 2.88667,-3.55219 2.97932,-7.7269 0.25773,-11.61252 -1.806,-2.57841 -3.27816,-2.96334 -11.33333,-2.96334 h -9.25773 l -10e-4,9 -0.001,9 9.00176,-0.27642 c 7.40405,-0.22736 9.41592,-0.78605 11.33511,-3.14772 z m 35.66666,9.42414 V 12.22826 h 5.33334 5.33333 v 33.33333 33.33333 h -5.33333 -5.33334 z"
                id="path13427"
                sodipodi:nodetypes="scsssscsssssssscccccsscsssssscccccsssscccsssssscsssccsccccccccssssssscccssssssssssssssssscssscssssssscccsscsscccsccccccccccc"/>
        <path
                style="fill:#ec3826;fill-opacity:1;stroke-width:1.04612"
                d="M 95.135926,146.35425 C 4.7502292,114.94765 7.8006531,116.04325 5.6096968,114.19968 c -1.0262461,-0.86353 -1.244997,-1.31826 -1.0355609,-2.15273 0.422387,-1.68292 3.7706793,-23.01445 6.8202361,-43.45083 3.892884,-26.08786 3.618444,-24.56037 4.412687,-24.56037 0.843305,0 4.587143,1.12233 43.022231,12.89719 24.708986,7.56978 30.996129,9.64196 31.986433,10.54243 2.522619,2.29376 3.408804,4.88986 13.723647,40.20378 7.66465,26.24071 12.36287,42.74215 12.73893,44.74259 0.17982,0.95658 0.0983,1.38279 -0.26229,1.37082 -0.28778,-0.01 -10.13382,-3.3568 -21.880084,-7.43831 z"
                id="path13506"/>
        <path
                style="fill:#c62026;fill-opacity:1;stroke-width:1.04612"
                d="M 84.671073,57.80966 C 80.090029,56.31372 66.250794,51.91154 53.917216,48.02703 31.957415,41.11071 21.027643,37.39248 21.027708,36.83826 21.027726,36.68569 22.613472,35.4811 24.551588,34.1614 27.361372,32.24816 64.986665,8.08863 73.159272,2.94999 l 1.943011,-1.2217 14.715328,2.81134 c 15.516879,2.96447 25.564159,5.17988 26.205519,5.77828 0.40999,0.38253 -0.7267,3.05819 -8.51752,20.04946 -6.54999,14.28508 -13.283863,28.47318 -13.952747,29.39806 -0.52006,0.71909 -1.043376,0.60386 -8.88179,-1.95577 z"
                id="path13508"/>
        <path
                style="fill:#c62026;fill-opacity:1;stroke-width:1.04612"
                d="M 123.19638,146.65128 C 118.71614,132.09486 101.65498,72.3265 100.47537,67.05547 l -0.531169,-2.37353 2.649689,-6.37208 C 106.34447,49.2903 115.35118,29.11028 118.7826,22.0382 l 2.90149,-5.97992 0.90632,2.03371 c 0.49848,1.11853 3.52445,9.57584 6.72438,18.79402 3.19992,9.21818 11.02436,31.74507 17.38763,50.05977 l 11.56958,33.29945 -13.22345,13.04491 c -13.01222,12.83652 -18.67735,17.96097 -19.84702,17.95286 -0.38053,-0.003 -1.09932,-1.64866 -2.00515,-4.59172 z"
                id="path14407"/>
        <text
                xml:space="preserve"
                id="text14599"
                style="font-size:5.33333px;font-family:'Times New Roman';-inkscape-font-specification:'Times New Roman, ';white-space:pre;shape-inside:url(#rect14601);display:inline;fill:#000000;fill-opacity:1;stroke-width:2.44913"
                transform="matrix(1.0632528,0,0,1.0632528,-24.603718,-82.402607)"><tspan
         x="205.88086"
         y="214.37305"
         id="tspan15971"><tspan
           style="font-size:56px;font-family:Corbel;-inkscape-font-specification:'Corbel, Normal'"
           id="tspan15969">OPTIMIZATION</tspan></tspan></text>
        <text
                xml:space="preserve"
                id="text14853"
                style="font-style:normal;font-variant:normal;font-weight:normal;font-stretch:normal;font-size:56px;font-family:Corbel;-inkscape-font-specification:'Corbel, Normal';font-variant-ligatures:normal;font-variant-caps:normal;font-variant-numeric:normal;font-variant-east-asian:normal;white-space:pre;shape-inside:url(#rect14855);display:inline;fill:#000000;fill-opacity:0;stroke-width:2.44913"><tspan
         x="195.41406"
         y="52.570312"
         id="tspan15973">G</tspan></text>
        <rect
                style="fill:#000000;fill-opacity:0;stroke-width:2.44913"
                id="rect15483"
                width="46.814865"
                height="33.827515"
                x="166.4193"
                y="19.63204"/>
        <rect
                style="fill:#000000;fill-opacity:0;stroke-width:2.44913"
                id="rect15485"
                width="1.510157"
                height="0.3020314"
                x="161.58679"
                y="56.781902"/>
        <text
                xml:space="preserve"
                id="text15850"
                style="font-style:normal;font-variant:normal;font-weight:normal;font-stretch:normal;font-size:80px;font-family:'Microsoft Yi Baiti';-inkscape-font-specification:'Microsoft Yi Baiti, Normal';font-variant-ligatures:normal;font-variant-caps:normal;font-variant-numeric:normal;font-variant-east-asian:normal;white-space:pre;shape-inside:url(#rect15852);display:inline;fill:#000000;fill-opacity:0;stroke-width:2.44913"/>
    </g>
</svg>
