<?xml version="1.0" encoding="UTF-8" standalone="no"?>
<!-- Created with Inkscape (http://www.inkscape.org/) -->

<svg
        version="1.1"
        id="svg6082"
        width="1927.1383"
        height="1400.7748"
        viewBox="0 0 1927.1383 1400.7748"
        sodipodi:docname="LogoRLI.svg"
        inkscape:version="1.2.2 (732a01da63, 2022-12-09)"
        xmlns:inkscape="http://www.inkscape.org/namespaces/inkscape"
        xmlns:sodipodi="http://sodipodi.sourceforge.net/DTD/sodipodi-0.dtd"
        xmlns="http://www.w3.org/2000/svg"
>
    <defs
            id="defs6086"/>
    <sodipodi:namedview
            id="namedview6084"
            pagecolor="#505050"
            bordercolor="#eeeeee"
            borderopacity="1"
            inkscape:showpageshadow="0"
            inkscape:pageopacity="0"
            inkscape:pagecheckerboard="0"
            inkscape:deskcolor="#505050"
            showgrid="false"
            inkscape:zoom="0.34025"
            inkscape:cx="877.29611"
            inkscape:cy="840.55841"
            inkscape:window-width="2560"
            inkscape:window-height="1360"
            inkscape:window-x="2869"
            inkscape:window-y="303"
            inkscape:window-maximized="1"
            inkscape:current-layer="g6088"/>
    <g
            inkscape:groupmode="layer"
            inkscape:label="Image"
            id="g6088"
            transform="translate(197.20735,120.01176)">
        <path
                style="fill:#003051;fill-opacity:1"
                d="m 1231.6096,1057.9586 c -25.8398,-4.6569 -45.1983,-24.3646 -52.5226,-53.4704 -1.9521,-7.75726 -2.2566,-11.48536 -2.2053,-26.99996 0.05,-15.2098 0.3954,-19.2401 2.2267,-26 6.821,-25.1788 22.4412,-41.7455 44.8649,-47.5835 9.9744,-2.5968 27.6977,-2.8135 37.814,-0.4624 9.1205,2.1197 19.7557,7.4273 26.2286,13.0897 26.7985,23.4427 31.14,80.8091 8.6732,114.60386 -7.8813,11.8551 -20.5325,21.16 -34.4018,25.3022 -6.6159,1.976 -23.5055,2.8131 -30.6777,1.5205 z m 20.6777,-15.9991 c 13.1442,-2.0497 25.2215,-10.145 32.999,-22.1191 8.0447,-12.3853 12.0521,-33.21176 9.9924,-51.93006 -3.5798,-32.533 -21.0228,-49.1642 -51.5887,-49.1878 -26.6753,-0.021 -43.0961,12.5203 -50.1047,38.2657 -2.6304,9.6626 -2.3398,33.6661 0.5363,44.30046 5.9134,21.8646 19.4402,36.0707 38.2245,40.1438 7.9532,1.7246 11.6371,1.8219 19.9412,0.527 z m -1448.64186,9.2787 c 0.34091,-2.0625 0.62479,-36.068 0.63084,-75.56766 l 0.011,-71.8178 29.25,0.3343 c 26.92645,0.3078 29.70024,0.5035 34.91785,2.4632 11.8087,4.4354 18.92261,11.5805 23.06906,23.1701 2.59722,7.2595 3.50178,22.884 1.75419,30.3 -4.74136,20.1203 -21.45532,32.8679 -43.09462,32.8679 h -6.68332 l 7.48991,7.24996 c 4.11945,3.9875 14.04934,15.35 22.06642,25.25 8.01708,9.9 16.77956,20.5875 19.47218,23.75 l 4.89568,5.75 h -11.38454 -11.38453 l -2.31719,-4.1229 c -3.03906,-5.4073 -29.9852,-41.2162 -38.473,-51.12706 -5.99144,-6.996 -6.98663,-7.75 -10.22857,-7.75 h -3.59137 l 0.40681,31.49996 0.40681,31.5 h -8.91673 -8.91673 z m 56.49837,-72.89636 c 3.98231,-1.0939 6.57499,-2.6899 10.10598,-6.2209 6.30256,-6.3025 8.55732,-12.7469 8.47845,-24.2323 -0.0501,-7.2932 -0.47962,-9.4591 -2.82762,-14.2583 -5.61488,-11.4764 -11.48674,-13.7536 -37.11333,-14.3933 l -19,-0.4743 v 31.1064 31.1065 l 17.5,-0.5812 c 10.49567,-0.3485 19.64393,-1.1701 22.85652,-2.0526 z m 89.622819,1.1466 0.0207,-75.4998 43.7499998,-2e-4 43.7500002,-2e-4 v 8.6111 8.6112 l -35.9888102,-0.3612 c -19.7938498,-0.1986 -35.9938498,-0.024 -35.9999998,0.3889 -0.006,0.4125 -0.0113,12.3375 -0.0113,26.5 l -1.5e-4,25.75 32.0001498,-0.3535 32.0001502,-0.3535 v 7.6195 7.6196 l -32.2500002,-0.6716 -32.2499998,-0.6717 v 26.71276 26.7128 l 35.24999976,-0.7103 35.25000024,-0.7102 v 8.153 8.1531 H -7.4832912 -50.253961 l 0.0207,-75.49976 z m 143.51849,24.74976 c -10e-4,-27.91246 -0.29824,-61.88746 -0.66012,-75.49996 l -0.65796,-24.75 h 9.321101 9.32111 l -0.66098,28.6627 c -0.36354,15.7645 -0.66098,49.7395 -0.66098,75.49996 v 46.8373 h -8 -8.000001 l -0.002,-50.75 z m 83.502171,-24.75006 v -75.5 l 8.13951,10e-5 h 8.13951 l 10.97747,16.75 c 15.78349,24.0833 45.43945,71.2017 58.7133,93.28566 6.27295,10.4364 11.58213,18.6353 11.79818,18.2198 0.21605,-0.4155 0.0502,-6.3805 -0.36856,-13.2555 -0.41876,-6.875 -0.90562,-35.56246 -1.08192,-63.74996 l -0.32054,-51.25 8.50152,-2e-4 8.50153,-2e-4 v 75.4998 75.49966 l -6.57374,5e-4 -6.57374,4e-4 -8.54357,-11.75 c -19.66593,-27.0466 -58.13283,-85.05606 -70.29004,-105.99996 -5.12898,-8.836 -7.14985,-10.4267 -6.09365,-4.7967 0.85478,4.5563 2.50776,68.72026 2.54518,98.79666 l 0.0296,23.75 h -8.75 l -8.75,-10e-5 z m 178,2e-4 v -75.4999 l 43.75,-10e-5 43.75,-10e-5 v 8.6265 8.6266 l -35.84121,-0.736 -35.84121,-0.7361 0.0846,26.8661 0.0846,26.8661 31.75662,-0.3686 31.75661,-0.3685 v 7.633 7.6329 l -32,-0.6813 -32,-0.6813 v 26.72246 26.7226 l 35.31556,-0.7116 35.31555,-0.7116 0.0525,8.1494 0.0525,8.1493 -43.11803,10e-5 h -43.11803 v -75.49996 z m 153,-2e-4 v -75.4999 h 27.0399 c 20.77096,0 28.37081,0.3467 32.7805,1.4952 17.96694,4.6798 27.13317,15.669 29.62131,35.5123 3.73081,29.7538 -14.6654,51.9301 -43.12028,51.9806 l -6.67857,0.012 8.17857,8.24996 c 4.49821,4.5375 16.40226,18.4875 26.45344,31 l 18.27486,22.75 h -10.97641 -10.97642 l -4.36702,-6.7507 c -5.56221,-8.5983 -24.64845,-33.8411 -35.14663,-46.4837 -7.56677,-9.11236 -8.32163,-9.73526 -11.81407,-9.74996 l -3.73081,-0.016 0.64216,31.49996 0.64216,31.5 -8.41134,-10e-5 h -8.41135 v -75.49996 z m 54.50933,-0.5737 c 8.29467,-2.065 16.53956,-10.534 18.91222,-19.4262 1.52021,-5.6974 1.329,-16.2933 -0.39902,-22.1122 -2.11877,-7.1346 -7.33813,-12.7852 -14.29669,-15.4777 -4.96693,-1.922 -8.21099,-2.2776 -24.47584,-2.6832 l -18.75,-0.4676 v 31.1233 31.1233 l 17.75,-0.603 c 9.7625,-0.3317 19.3292,-0.9962 21.25933,-1.4767 z m 142.97966,4.3238 c -0.006,-39.4625 -0.28993,-73.4375 -0.63084,-75.5 l -0.61983,-3.75 h 8.99006 8.99007 l -0.50167,67.75 -0.50168,67.74996 17.39245,-0.2464 c 9.56585,-0.1355 25.60517,-0.3605 35.64295,-0.5 l 18.2505,-0.2536 -5e-4,8.25 -5e-4,8.25 h -43.5 -43.5 l -0.011,-71.74996 z m 131.41751,-3.7499 0.093,-75.4999 43.75,-10e-5 43.75,-10e-5 v 8.6233 8.6233 l -36.6489,-0.7428 -36.6489,-0.7429 0.6489,3.2446 c 0.3569,1.7845 0.6488,13.8758 0.6488,26.8695 l -2e-4,23.625 32.0002,-0.3535 32.0001,-0.3535 v 7.6195 7.6196 l -32.25,-0.6714 -32.25,-0.6714 v 26.71266 26.7127 l 35.25,-0.7104 35.25,-0.7104 v 8.153 8.1531 h -42.8435 -42.8436 l 0.094,-75.49986 z m 142.0935,0 v -75.5 h 8.2939 l 8.294,-10e-5 7.53941,15.75 c 16.245,33.936 28.3624,61.6708 42.1499,96.47486 4.7335,11.9487 8.7925,21.5387 9.02,21.3112 0.2276,-0.2275 5.2494,-12.4788 11.1596,-27.2249 11.845,-29.55356 26.3281,-62.57806 39.0585,-89.06116 l 8.292,-17.25 8.0963,3e-4 8.0964,2e-4 v 75.4999 75.49986 l -8.6364,-2e-4 -8.6364,-10e-5 0.3768,-14.75 c 0.2073,-8.1125 0.6039,-33.2 0.8814,-55.74996 0.2776,-22.55 0.7345,-45.05 1.0155,-50 l 0.5108,-9 -3.8805,11 c -8.6441,24.5037 -25.8799,64.59846 -42.6897,99.30656 l -9.3505,19.3067 -4.7469,-0.3067 -4.7469,-0.3066 -8.2621,-17.5 c -18.4758,-39.13366 -37.268,-83.13446 -43.88371,-102.75096 -1.5305,-4.5381 -2.93,-8.1038 -3.11,-7.9237 -0.18,0.18 0.1136,10.1929 0.6525,22.251 0.5388,12.058 0.9857,40.9362 0.9929,64.17366 l 0.013,42.25 -8.25,10e-5 h -8.25 v -75.49996 z m 389.82071,0 -0.1793,-75.4985 h 9.0871 9.0871 l -0.6578,18.1603 c -0.3618,9.9882 -0.6578,43.9632 -0.6578,75.5 v 57.33966 h -8.25 -8.25 l -0.1793,-75.49856 z m 83.9909,0 0.073,-75.5 8.0576,0.024 8.0577,0.024 6.4491,9.7264 c 18.5462,27.9704 67.41,106.07396 71.9325,114.97626 1.1875,2.3375 2.3493,4.25 2.5819,4.25 0.2325,0 0.2265,-10.2375 -0.014,-22.75 -0.24,-12.51246 -0.6425,-41.53746 -0.8946,-64.49996 l -0.4582,-41.75 h 8.4514 8.4514 v 75.5457 75.54566 l -6.669,-0.2957 -6.6691,-0.2957 -7.6506,-10.5 c -18.3559,-25.1924 -58.1987,-85.25126 -70.1346,-105.72066 -2.9572,-5.0714 -5.7715,-9.2339 -6.2539,-9.25 -0.4825,-0.016 -0.594,2.3332 -0.2477,5.2207 0.3462,2.8875 0.8566,22.125 1.1341,42.75 0.2775,20.625 0.6676,46.61246 0.8668,57.74996 l 0.3621,20.25 h -8.7498 -8.7497 l 0.073,-75.49996 z m 178.1864,2e-4 v -75.4997 l 43.75,-3e-4 43.75,-2e-4 v 8.6265 8.6266 l -36,-0.7393 -36,-0.7393 -10e-5,26.8628 -2e-4,26.8627 32.0002,-0.3535 32.0001,-0.3535 v 7.6195 7.6196 l -32.25,-0.6717 -32.25,-0.6717 0.2211,26.40566 0.2211,26.4056 35.2789,-0.3873 35.2789,-0.3874 v 8.1374 8.1373 h -43.002 -43.002 V 979.48854 Z M -188.44477,639.73824 c 0.33571,-169.98534 0.35438,-171.3625 2.52789,-186.48401 4.88079,-33.95658 12.31834,-60.06313 24.21691,-85.00387 22.07302,-46.26751 53.36863,-78.16708 97.487259,-99.36864 20.79949,-9.99535 43.06842,-16.6589 70.4999998,-21.09576 13.3095202,-2.15271 15.6235002,-2.19244 164.0000012,-2.81593 132.39914,-0.55634 151.28176,-0.82269 157,-2.21453 31.77164,-7.73333 47.46432,-26.82624 52.06042,-63.34068 1.57881,-12.54312 0.67738,-31.36526 -2.02679,-42.32008 -5.86081,-23.7426 -21.88753,-44.616476 -40.95674,-53.343766 -13.27892,-6.07728 3.35143,-5.72643 -272.326891,-5.74537 l -252.749999,-0.01736 v -98.01879 -98.018794 l 280.749999,0.33289 c 303.725881,0.36014 282.620681,-0.002 307.250001,5.27633 44.01233,9.43284 81.29447,29.792603 113.46512,61.963248 32.51045,32.510456 57.29479,77.230786 69.59393,125.573816 7.70608,30.289526 10.36707,56.439046 9.68167,95.141476 -0.5276,29.792 -1.83617,43.2342 -6.40057,65.74982 -11.54999,56.97461 -38.18599,106.39691 -78.4568,145.57426 -34.29627,33.36503 -73.4054,52.47078 -124.17013,60.66008 -12.49176,2.01516 -17.47211,2.15292 -91.21322,2.52311 -63.87797,0.32067 -77.54737,0.62142 -75.5,1.66112 1.375,0.69826 88.3326,33.62723 193.23912,73.17549 l 190.73912,71.90594 0.0109,109.73541 0.0109,109.73541 -5.25,-2.07602 C 544.00825,788.70454 15.125569,580.98824 14.776569,580.98824 c -0.26911,0 -0.48928,51.75 -0.48928,115 v 115 H -87.247851 -188.78298 Z M 1018.2873,810.32102 C 894.63619,804.95919 802.86739,770.73929 740.76126,706.83373 692.20778,656.87346 660.47849,587.62414 645.29961,498.48824 c -2.76071,-16.21189 -5.61707,-38.87735 -8.19146,-65 -0.8676,-8.80363 -1.27504,-84.11806 -1.52963,-282.75 l -0.34703,-270.75 h 103.0279 103.0279 l 0.01,244.25 c 0.01,268.89606 0.1809,277.84937 6.0966,319.25 5.1687,36.1729 17.0156,70.03487 32.6795,93.40812 7.2424,10.80679 22.1617,26.41758 33.0759,34.60881 20.1103,15.09303 48.8756,26.31544 83.1562,32.44231 27.21781,4.86456 34.53221,5.24221 111.23271,5.74295 l 72.75,0.47495 v 100.41143 100.41143 l -77.75,-0.19268 c -42.7625,-0.10597 -80.675,-0.31952 -84.25,-0.47454 z"
                id="path6209"/>
        <path
                style="fill:#a6a6a6;fill-opacity:1;stroke-width:3.59902"
                d="m 1180.7494,709.28998 v -99.1948 l 76.047,-0.6114 c 61.447,-0.4939 79.5737,-1.099 94.4159,-3.1516 66.0918,-9.1402 107.9175,-30.4114 133.2323,-67.7576 18.715,-27.6096 29.1894,-59.1899 36.0676,-108.7436 2.7646,-19.9175 3.12,-31.0035 3.6871,-114.9889 l 0.6275,-92.9464 h 102.5521 102.552 l -0.5355,69.4342 c -0.9987,129.479 -1.7726,147.9506 -7.9389,189.48 -14.6761,98.843 -47.9327,173.9579 -100.1272,226.1524 -33.1982,33.1982 -73.6218,57.7016 -123.1662,74.6591 -25.3552,8.6783 -38.079,12.0007 -64.8851,16.9426 -42.4056,7.8178 -55.209,8.572 -157.378,9.2704 l -95.1506,0.6504 z"
                id="path7280"/>
        <path
                style="fill:#a6a6a6;fill-opacity:1;stroke-width:3.59902"
                d="m 1529.0227,-14.695123 v -98.456997 h 97.7223 97.7223 v 98.456997 98.4571 h -97.7223 -97.7223 z"
                id="path7282"/>
        <path
                style="fill:#a6a6a6;fill-opacity:1;stroke-width:3.59902"
                d="m 757.53338,1216.7094 c 0.51192,-32.9353 1.30297,-64.0518 1.75789,-69.1476 l 0.82711,-9.2651 -25.84199,1.0357 -25.842,1.0358 v -8.3026 -8.3026 h 56.57605 56.57604 v 8.3026 8.3026 l -25.7017,-1.0302 -25.7017,-1.0301 0.68205,8.5248 c 0.37513,4.6886 1.03325,35.8025 1.4625,69.1419 l 0.78045,60.6172 h -8.25274 -8.25274 z"
                id="path7284"/>
        <path
                style="fill:#a6a6a6;fill-opacity:1;stroke-width:3.59902"
                d="m 597.27356,1279.4728 c -15.94275,-3.1553 -31.43083,-16.2953 -37.11528,-31.4884 -4.96954,-13.2822 -5.92778,-25.6001 -5.97682,-76.8297 l -0.0454,-47.3917 h 7.34754 7.34754 l 0.0159,53.2697 c 0.0164,54.888 0.46074,59.8601 6.3559,71.1205 3.4441,6.5787 11.44777,13.3268 17.87507,15.071 7.53876,2.0459 29.18601,2.0599 36.51916,0.024 8.00081,-2.2216 17.55836,-12.2779 20.96295,-22.0569 2.5188,-7.2347 2.76771,-12.8726 2.76771,-62.6879 v -54.7382 l 7.95201,-9e-4 h 7.952 l -0.92564,52.8793 c -0.72607,41.478 -1.43514,54.8455 -3.2887,61.9986 -6.22754,24.0328 -19.79582,37.2145 -42.01751,40.8203 -10.66488,1.7305 -17.02708,1.7334 -25.72645,0.012 z"
                id="path7286"/>
        <path
                style="fill:#a6a6a6;fill-opacity:1;stroke-width:3.59902"
                d="m 450.3681,1209.6784 c 0.56855,-36.8024 1.41995,-67.92 1.89201,-69.1502 0.75757,-1.9741 -2.18181,-2.1148 -25.04727,-1.1983 l -25.90556,1.0383 v -8.3026 -8.3026 h 56.57605 56.57605 v 8.3097 8.3096 l -25.34901,-0.9898 -25.34901,-0.9898 0.50215,69.0945 0.50214,69.0946 h -7.71563 -7.71564 z"
                id="path7288"/>
        <path
                style="fill:#a6a6a6;fill-opacity:1;stroke-width:3.59902"
                d="m 339.58796,1200.1774 v -76.4144 h 8.31813 8.31813 l -0.96759,38.5746 c -0.53217,21.216 -0.96893,55.6025 -0.97059,76.4144 l -0.003,37.8398 h -7.34753 -7.34754 z"
                id="path7290"/>
        <path
                style="fill:#a6a6a6;fill-opacity:1;stroke-width:3.59902"
                d="m 230.3302,1243.8953 c 0.27313,-17.9831 0.73161,-49.0781 1.01885,-69.0999 l 0.52225,-36.4033 -25.49509,0.9951 -25.49509,0.9951 v -8.3096 -8.3097 h 56.57605 56.57605 v 8.307 8.3069 l -25.00394,-1.015 -25.00394,-1.015 0.99596,69.1224 0.99596,69.1225 h -8.09183 -8.09184 z"
                id="path7292"/>
        <path
                style="fill:#a6a6a6;fill-opacity:1;stroke-width:3.59902"
                d="m 78.38372,1277.2243 c -7.72283,-1.802 -15.94801,-5.2845 -19.73686,-8.3565 -1.88585,-1.5291 -2.27419,-3.4574 -1.64339,-8.1604 0.45429,-3.387 0.98964,-6.1582 1.18967,-6.1582 0.20003,0 3.91531,1.6196 8.25618,3.599 18.69225,8.5238 44.16281,7.6921 55.10192,-1.7991 4.68887,-4.0682 7.381,-10.3929 8.44526,-19.8406 1.81198,-16.0853 -4.53345,-21.734 -33.24537,-29.5948 -23.25894,-6.3679 -30.05546,-9.3371 -36.79164,-16.0733 -14.85883,-14.8588 -9.71321,-46.2786 9.68095,-59.1131 18.62692,-12.3267 51.14591,-12.7693 67.85401,-0.9234 5.58539,3.9599 5.88633,4.5548 5.41256,10.6995 -0.27592,3.5786 -0.73381,6.744 -1.01753,7.0342 -0.28372,0.2902 -2.49407,-0.8809 -4.91189,-2.6026 -7.99037,-5.6896 -15.81756,-7.4769 -32.74447,-7.4769 -14.1733,0 -16.86573,0.4242 -23.2599,3.6643 -9.89387,5.0136 -14.71571,13.2489 -14.7082,25.1202 0.0103,16.3218 5.13175,20.502 34.80106,28.4049 25.85061,6.8858 34.94429,11.9829 40.37689,22.6316 2.44534,4.7933 2.89212,8.009 2.47487,17.8132 -0.44951,10.5622 -1.10179,12.9414 -5.56751,20.3074 -5.51639,9.0991 -13.30837,15.4012 -23.59705,19.0852 -8.31141,2.976 -27.19837,3.8793 -36.36956,1.7394 z"
                id="path7294"/>
        <path
                style="fill:#a6a6a6;fill-opacity:1;stroke-width:3.59902"
                d="m -114.48993,1200.1774 v -76.4144 h 7.29279 c 7.23454,0 7.33851,0.068 13.01938,8.4497 15.6497,23.0913 68.67034,108.0454 74.37307,119.1667 1.38544,2.7018 2.91391,4.5175 3.39659,4.0348 1.11894,-1.1189 0.63925,-101.6957 -0.56656,-118.793 l -0.90684,-12.8582 h 8.27183 8.27184 v 76.4144 76.4144 h -5.82019 c -5.55278,0 -6.20856,-0.5232 -14.27318,-11.3886 -13.02716,-17.5515 -58.54978,-86.0038 -68.4083,-102.8656 -4.84359,-8.2843 -9.48085,-15.0624 -10.30501,-15.0624 -0.92969,0 -1.16934,2.6495 -0.63135,6.9801 0.47692,3.8391 1.32248,32.9354 1.87903,64.6584 l 1.01191,57.6781 h -8.3025 -8.30251 z"
                id="path7296"/>
        <path
                style="fill:#a6a6a6;fill-opacity:1;stroke-width:3.59902"
                d="m -195.3233,1210.0966 c -0.006,-36.5724 -0.43201,-70.9588 -0.94725,-76.4144 l -0.9368,-9.9192 h 9.25118 9.25118 l -0.94879,14.3277 c -0.52184,7.8803 -0.95221,42.2668 -0.95639,76.4144 l -0.008,62.0867 h -7.34754 -7.34754 z"
                id="path7298"/>
    </g>
</svg>
