<?xml version="1.0" encoding="UTF-8" standalone="no"?>
<!-- Created with Inkscape (http://www.inkscape.org/) -->

<svg
        version="1.1"
        id="svg5879"
        width="178.37897"
        height="132.62236"
        viewBox="0 0 178.37896 132.62236"
        sodipodi:docname="LogoTUB.svg"
        inkscape:version="1.2.2 (732a01da63, 2022-12-09)"
        xmlns:inkscape="http://www.inkscape.org/namespaces/inkscape"
        xmlns:sodipodi="http://sodipodi.sourceforge.net/DTD/sodipodi-0.dtd"
        xmlns="http://www.w3.org/2000/svg"
        xmlns:svg="http://www.w3.org/2000/svg">
    <defs
            id="defs5883"/>
    <sodipodi:namedview
            id="namedview5881"
            pagecolor="#505050"
            bordercolor="#eeeeee"
            borderopacity="1"
            inkscape:showpageshadow="0"
            inkscape:pageopacity="0"
            inkscape:pagecheckerboard="0"
            inkscape:deskcolor="#505050"
            showgrid="false"
            inkscape:zoom="3.814462"
            inkscape:cx="131.99764"
            inkscape:cy="54.267155"
            inkscape:window-width="2560"
            inkscape:window-height="1360"
            inkscape:window-x="2869"
            inkscape:window-y="303"
            inkscape:window-maximized="1"
            inkscape:current-layer="g5885"/>
    <g
            inkscape:groupmode="layer"
            inkscape:label="Image"
            id="g5885"
            transform="translate(-0.02290511,-0.5377029)">
        <path
                style="fill:#c50e1f;fill-opacity:1;stroke-width:0.08"
                d="m 127.27999,133.06603 c 0,-0.054 2.61,-27.28317 5.8,-60.50915 3.19,-33.22598 5.8,-60.487752 5.8,-60.581716 V 11.80432 h 19.76095 19.76094 l -0.0437,0.3 c -0.024,0.165 -1.80641,18.876 -3.96087,41.58 -2.15446,22.704 -3.97328,41.694 -4.04182,42.2 -0.75335,5.56226 -2.8665,11.52019 -5.90185,16.64 -3.28698,5.54423 -7.52528,9.91218 -13.29369,13.70034 -6.50219,4.27005 -13.31478,6.44576 -21.47173,6.85733 -2.13063,0.10751 -2.40827,0.10567 -2.40827,-0.016 z M 163.19872,84.3667 c 0.15601,-0.29152 0.62858,-2.14024 0.81178,-3.17573 0.14241,-0.80494 0.18248,-1.33762 0.18556,-2.46665 0.004,-1.64499 -0.0694,-2.02651 -0.61225,-3.16 -0.26518,-0.55376 -0.45356,-0.80758 -1.01472,-1.36724 -1.36113,-1.35747 -2.93143,-1.91276 -5.4091,-1.91276 -2.49151,0 -4.11057,0.54229 -5.36292,1.79625 -1.05507,1.05643 -1.49021,2.13424 -1.50337,3.72375 -0.0131,1.57692 0.5632,2.76167 1.7384,3.574 0.34869,0.24103 0.37306,0.27337 0.16789,0.22283 -0.132,-0.0325 -2.07937,-0.0744 -4.32751,-0.0931 l -4.08751,-0.034 -0.0957,1.06516 c -0.0527,0.58585 -0.11714,1.25341 -0.14331,1.48348 l -0.0476,0.41831 1.63082,0.0234 c 0.89695,0.0129 5.31055,0.0316 9.808,0.0417 8.0637,0.018 8.17835,0.0161 8.26154,-0.13937 z m -6.92604,-2.96569 c -0.60238,-0.0794 -1.6185,-0.41475 -2.0851,-0.68819 -0.50672,-0.29696 -1.00607,-0.81187 -1.23138,-1.26977 -0.16462,-0.33453 -0.19602,-0.51465 -0.19502,-1.11873 0.001,-0.85766 0.16177,-1.28296 0.67864,-1.79983 0.72296,-0.72295 1.85748,-1.04017 3.72017,-1.04017 1.37943,0 2.18415,0.13872 2.97022,0.51203 0.69358,0.32938 1.12852,0.74563 1.43826,1.37645 0.22472,0.45767 0.23126,0.5056 0.22282,1.63152 -0.007,0.97476 -0.0392,1.2622 -0.2,1.8 l -0.1913,0.64 -2.32,0.0105 c -1.276,0.006 -2.53929,-0.0185 -2.80731,-0.0538 z M 159.9267,69.8478 c 0.98859,-0.14902 2.13613,-0.51965 2.79135,-0.90154 0.6944,-0.404719 1.65965,-1.369451 2.06304,-2.06194 0.73847,-1.267715 1.08428,-2.793387 1.08799,-4.8 0.002,-1.264894 -0.085,-2.086435 -0.32518,-3.06 -0.14509,-0.58807 -0.044,-0.566445 -1.46391,-0.313023 -0.78114,0.139413 -0.99374,0.204138 -0.97137,0.295748 0.28046,1.148822 0.35554,1.737419 0.36191,2.837275 0.0108,1.866171 -0.34079,3.048658 -1.15501,3.884592 -0.66658,0.684347 -1.83806,1.115408 -3.03132,1.115408 -0.4703,0 -0.56421,-0.0219 -0.56421,-0.13161 0,-0.07238 0.18192,-2.020468 0.40427,-4.329073 0.22233,-2.308605 0.38135,-4.22038 0.35335,-4.24839 -0.028,-0.02801 -0.68692,-0.05093 -1.46427,-0.05093 -1.2254,0 -1.50267,0.02441 -2.08506,0.183586 -1.71697,0.469264 -2.93486,1.445732 -3.64012,2.91854 -0.47546,0.99291 -0.61493,1.584267 -0.66537,2.82134 -0.049,1.201089 0.0965,1.969325 0.546,2.882282 0.71924,1.460982 2.45532,2.618345 4.42386,2.949175 0.86954,0.14613 2.39542,0.15005 3.33405,0.009 z m -4.14374,-3.232793 c -1.33891,-0.462613 -2.03092,-1.478405 -1.91874,-2.816499 0.12376,-1.476181 1.21482,-2.566288 2.69254,-2.690174 0.45034,-0.03776 0.5638,-0.02485 0.56606,0.06438 0.002,0.06138 -0.11349,1.344603 -0.25565,2.851603 l -0.25848,2.74 -0.20435,-0.0026 c -0.11239,-0.0014 -0.39201,-0.06745 -0.62138,-0.146701 z M 166.4677,53.94432 c 0.0501,-0.495 0.11468,-1.179 0.14346,-1.52 l 0.0523,-0.62 h -3.1349 c -1.72419,0 -3.48447,-0.03767 -3.91173,-0.08372 -2.9227,-0.314973 -4.07038,-1.526578 -3.56882,-3.767581 l 0.0473,-0.2113 -1.18766,-0.05053 c -0.65322,-0.02779 -1.30304,-0.06518 -1.44406,-0.08308 -0.28355,-0.036 -0.29597,-0.01623 -0.38015,0.605344 -0.0727,0.536325 0.0852,1.397718 0.35954,1.96256 0.29606,0.609473 1.05704,1.343784 1.76895,1.706949 l 0.50805,0.259167 -0.36,-0.05156 c -0.198,-0.02836 -0.81051,-0.07319 -1.36113,-0.09963 l -1.00114,-0.04807 -0.13107,1.390732 c -0.0721,0.764901 -0.11445,1.41773 -0.0941,1.45073 0.0203,0.033 3.08954,0.06 6.82049,0.06 h 6.78356 z m 0.98649,-10.18 c 0.0738,-0.748 0.13681,-1.423 0.14,-1.5 0.006,-0.132618 -0.52151,-0.14 -9.9942,-0.14 -5.5,0 -10.00227,0.009 -10.00505,0.02 -0.0452,0.179239 -0.28658,2.917158 -0.26095,2.96031 0.0197,0.03317 4.52462,0.05117 10.01091,0.04 l 9.97509,-0.02031 z m -16.6016,-5.369591 c 0.45667,-0.162003 1.00723,-0.767982 1.18557,-1.304899 0.35718,-1.075359 -0.25918,-2.17122 -1.33142,-2.367188 -0.4605,-0.08416 -1.1343,0.150041 -1.55964,0.542105 -0.89014,0.820501 -0.98861,1.963939 -0.23759,2.758816 0.51839,0.548654 1.11923,0.663425 1.94308,0.371166 z m 17.09861,-0.256183 c 0.0444,-0.07182 0.2881,-2.398259 0.28853,-2.754226 v -0.22 h -6.79848 -6.79847 l -0.0368,0.18 c -0.0202,0.099 -0.0759,0.648 -0.12381,1.22 -0.0479,0.572 -0.10559,1.156729 -0.12825,1.299398 l -0.0412,0.259397 5.02352,0.02121 c 2.76292,0.01167 5.82238,0.02994 6.79879,0.0406 0.9764,0.01066 1.79356,-0.01021 1.81592,-0.04639 z m 0.72253,-7.154226 c 0.0202,-0.099 0.076,-0.648 0.12382,-1.22 0.0479,-0.572 0.10483,-1.152727 0.12658,-1.290504 l 0.0396,-0.250505 -3.74185,-0.05298 c -4.15629,-0.05885 -4.49818,-0.09483 -5.45649,-0.574252 -0.77486,-0.387645 -1.30465,-0.888838 -1.6229,-1.535294 -0.2315,-0.470253 -0.26218,-0.608755 -0.26019,-1.174786 0.004,-1.10577 0.4191,-1.745919 1.35774,-2.093245 0.36833,-0.136291 0.78962,-0.151196 5.32,-0.188224 l 4.92,-0.04021 0.0897,-0.88 c 0.0494,-0.484 0.11454,-1.141 0.14484,-1.46 l 0.0551,-0.58 h -5.27205 c -4.98833,0 -5.30529,0.0085 -5.88996,0.158035 -2.13946,0.547184 -3.25465,2.228577 -3.15028,4.749775 0.0283,0.68277 0.0848,1.027692 0.2408,1.469472 0.27463,0.777612 0.84336,1.555208 1.46973,2.009471 0.27798,0.201605 0.49793,0.373002 0.48875,0.380884 -0.009,0.0079 -0.52971,-0.02358 -1.15674,-0.06992 -0.62704,-0.04634 -1.15789,-0.06643 -1.17967,-0.04466 -0.0427,0.04267 -0.2798,2.283555 -0.28009,2.64694 v 0.22 h 6.79847 6.79848 l 0.0368,-0.18 z M 118.15999,132.2057 c -5.71576,-1.18627 -10.60547,-2.84805 -15.2,-5.16575 -6.248032,-3.15181 -10.509102,-6.74143 -13.717172,-11.55563 -2.13395,-3.20233 -3.40146,-6.31646 -4.20045,-10.32 -0.492,-2.4653 -0.7246,-5.96682 -0.57924,-8.72 0.0499,-0.946 1.27947,-14.068 2.73228,-29.16 1.45282,-15.092 2.65119,-27.548 2.66304,-27.68 l 0.0215,-0.24 -36.88,-0.04089 -36.880001,-0.04089 -0.862116,-0.215404 C 8.0703938,37.271329 2.4721008,31.936636 0.71461582,25.208708 c -0.935132,-3.579834 -0.921586,-7.487074 0.0375,-10.816367 C 1.0980248,13.19158 1.3852998,12.470742 2.0332348,11.177718 3.9298758,7.3927701 7.1160408,4.2772001 11.121198,2.2911161 c 1.969582,-0.97668 3.805058,-1.517378 5.731804,-1.688485 0.653097,-0.058 15.792275,-0.07613 48.786945,-0.05843 l 47.839993,0.02567 0.88,0.172821 c 4.12488,0.810072 7.95512,2.82916 10.60326,5.589441 2.42257,2.525153 4.21425,5.7731479 4.98237,9.0321909 0.36491,1.54822 0.48188,2.645541 0.48184,4.52 -3e-5,1.66839 -0.14317,3.202265 -4.77081,51.12 -2.62393,27.17 -5.03277,52.126996 -5.35297,55.459996 -0.3202,3.333 -0.60053,6.05742 -0.62293,6.05428 -0.0224,-0.003 -0.70676,-0.14395 -1.52076,-0.3129 z M 34.924738,121.6245 c 0.0229,-0.1871 0.47296,-4.85818 1.00002,-10.38018 0.52706,-5.522 1.93056,-20.12 3.11889,-32.44 1.18833,-12.32 2.33836,-24.254 2.55563,-26.52 0.21726,-2.266 0.41689,-4.309 0.44363,-4.54 l 0.0486,-0.42 h 17.55424 17.55424 l -0.004,0.18 c -0.002,0.099 -1.61363,16.884 -3.58153,37.3 l -3.57799,37.12 -17.57696,0.0202 -17.57697,0.0202 0.0417,-0.34018 z"
                id="path6006"/>
    </g>
</svg>
