<svg xmlns="http://www.w3.org/2000/svg" viewBox="0 0 628.47 216.09"><defs><style>.cls-1{fill:#0c4460;}.cls-2{fill:#099a39;}.cls-3{fill:#0d8c73;}.cls-4{fill:#285ba6;}.cls-5{fill:#7cb94a;}.cls-6{fill:#fff;}.cls-7{fill:#07435f;}.cls-8{fill:#022435;}</style></defs><title>client2_ohne_rahmen_eng_konv_rgb</title><g id="dots"><path id="SVGID" class="cls-1" d="M520.48,14.24a93.8,93.8,0,1,1-93.8,93.8,93.81,93.81,0,0,1,93.8-93.8m0-14.24a108,108,0,1,0,108,108,108.17,108.17,0,0,0-108-108Z"/><path class="cls-2" d="M608.37,163.53a5.48,5.48,0,0,1-5.42-4.76c-5.55-42.15-33.86-78.45-56.63-101.49C520.41,31.07,496,15.79,494.42,14.82a5.5,5.5,0,0,1-3-5.39,5.44,5.44,0,0,1,5.93-5c.75.06,3,.26,18.93,12.18A346,346,0,0,1,552.5,48c24.63,24.56,55.27,63.48,61.31,109.38a5.46,5.46,0,0,1-4.71,6.14A4.56,4.56,0,0,1,608.37,163.53Zm-112-148.17h0Zm0,0Z"/><path class="cls-3" d="M423.55,125.08c-1.9,0-3.09,0-3.48,0a5.48,5.48,0,1,1,.26-11c1,0,104.5,1.87,192.43-45.38a5.48,5.48,0,0,1,5.18,9.65C535.54,122.66,442.83,125.08,423.55,125.08Z"/><path class="cls-4" d="M494.68,211.1a5.48,5.48,0,0,1-5.46-5.1c-.09-1.23-2-30.72,6.72-68.91,8.08-35.39,27.25-85,72.68-120.55a5.48,5.48,0,1,1,6.75,8.63c-42.9,33.54-61.07,80.7-68.75,114.36-8.36,36.62-6.49,65.43-6.47,65.72a5.48,5.48,0,0,1-5.09,5.84Z"/><path class="cls-5" d="M544.31,211.61a5.5,5.5,0,0,1-2.51-.61c-58.25-30.15-85.14-71.82-97.45-101.47C431,77.25,431.44,52.29,431.47,51.25a5.47,5.47,0,0,1,5.47-5.34h.15a5.48,5.48,0,0,1,5.33,5.61h0c0,.24-.4,24.08,12.25,54.3,11.65,27.81,37.09,67,92.16,95.45a5.48,5.48,0,0,1-2.52,10.34Z"/><path class="cls-1" d="M520.48,0c-1.78,0-3.55.05-5.31.14a113.9,113.9,0,0,0,3.08,14.13c.74,0,1.48,0,2.23,0a93.8,93.8,0,0,1,83.39,50.87c4-2.5,8-5.14,12.09-7.57A108.13,108.13,0,0,0,520.48,0Z"/><path class="cls-1" d="M480.59,23.14c-1.6-4.53-3-9.1-4.44-13.62a108.18,108.18,0,0,0-63.69,97.34c4.74.65,9.48,1.25,14.23,1.74,0-.18,0-.37,0-.56A93.79,93.79,0,0,1,480.59,23.14Z"/><path class="cls-1" d="M521.36,201.83h-.88a93.82,93.82,0,0,1-90.12-67.78,131.26,131.26,0,0,0-14.22,2.05,108.24,108.24,0,0,0,104.34,80c2,0,4-.07,6-.18Q524,208.88,521.36,201.83Z"/><path class="cls-1" d="M628.52,108a108.65,108.65,0,0,0-1.36-17.12c-4.65,1.11-9.3,2.09-14,2.8a93.81,93.81,0,0,1-48.51,97.07q3,6.48,5.85,13A108.13,108.13,0,0,0,628.52,108Z"/><circle class="cls-6" cx="544.31" cy="206.13" r="3.79"/><circle class="cls-6" cx="420.2" cy="119.57" r="3.79"/><circle class="cls-6" cx="580.57" cy="89.96" r="3.79"/><circle class="cls-6" cx="509.36" cy="110.37" r="3.79"/><circle class="cls-6" cx="544.34" cy="47.72" r="3.79"/><circle class="cls-6" cx="454.28" cy="118.14" r="3.79"/><circle class="cls-6" cx="495.72" cy="172.71" r="3.79"/><circle class="cls-6" cx="615.35" cy="73.55" r="3.79"/><circle class="cls-6" cx="496.85" cy="9.9" r="3.79"/></g><g id="typo"><path class="cls-3" d="M0,121.69c0-9.45.36-12.6,1.71-16.56,3.24-10,11.07-15,21.78-15,10.35,0,17.91,5,21.33,13.59a.7.7,0,0,1-.45,1.08l-9.81,4.41a.86.86,0,0,1-1.26-.45c-1.71-4-4.59-6.93-9.72-6.93-4.77,0-7.83,2.52-9.18,6.75-.72,2.25-1,4.41-1,13.14s.27,10.89,1,13.14c1.35,4.23,4.41,6.75,9.18,6.75,5.13,0,8-3,9.72-6.93a.86.86,0,0,1,1.26-.45l9.81,4.41a.7.7,0,0,1,.45,1.08c-3.42,8.55-11,13.59-21.33,13.59-10.71,0-18.54-5-21.78-15C.36,134.29,0,131.14,0,121.69Z"/><path class="cls-3" d="M55.62,92a.85.85,0,0,1,.9-.9H68a.85.85,0,0,1,.9.9v48a.48.48,0,0,0,.54.54h27a.85.85,0,0,1,.9.9v10a.85.85,0,0,1-.9.9H56.52a.85.85,0,0,1-.9-.9Z"/><path class="cls-3" d="M107.37,92a.85.85,0,0,1,.9-.9H119.7a.85.85,0,0,1,.9.9v59.4a.85.85,0,0,1-.9.9H108.27a.85.85,0,0,1-.9-.9Z"/><path class="cls-3" d="M134.55,92a.85.85,0,0,1,.9-.9h39.24a.85.85,0,0,1,.9.9v9.63a.85.85,0,0,1-.9.9H148.32a.48.48,0,0,0-.54.54v12.15a.48.48,0,0,0,.54.54h22a.85.85,0,0,1,.9.9v9.54a.85.85,0,0,1-.9.9h-22a.48.48,0,0,0-.54.54v12.69a.48.48,0,0,0,.54.54h26.37a.85.85,0,0,1,.9.9v9.63a.85.85,0,0,1-.9.9H135.45a.85.85,0,0,1-.9-.9Z"/><path class="cls-3" d="M187.65,92a.85.85,0,0,1,.9-.9h10.8a1.67,1.67,0,0,1,1.53.9l21.6,38.52h.45V92a.85.85,0,0,1,.9-.9H234a.85.85,0,0,1,.9.9v59.4a.85.85,0,0,1-.9.9H223.29a1.58,1.58,0,0,1-1.53-.9L200.07,113h-.45v38.43a.85.85,0,0,1-.9.9H188.55a.85.85,0,0,1-.9-.9Z"/><path class="cls-3" d="M262.35,152.29a.85.85,0,0,1-.9-.9v-48a.48.48,0,0,0-.54-.54H245.43a.85.85,0,0,1-.9-.9V92a.85.85,0,0,1,.9-.9H290.7a.85.85,0,0,1,.9.9v10a.85.85,0,0,1-.9.9H275.22a.48.48,0,0,0-.54.54v48a.85.85,0,0,1-.9.9Z"/><path class="cls-3" d="M323.73,92a.85.85,0,0,1,.9-.9h11.43a.85.85,0,0,1,.9.9v59.4a.85.85,0,0,1-.9.9H324.63a.85.85,0,0,1-.9-.9Z"/><path class="cls-3" d="M350.91,92a.85.85,0,0,1,.9-.9h11.43a.85.85,0,0,1,.9.9v59.4a.85.85,0,0,1-.9.9H351.81a.85.85,0,0,1-.9-.9Z"/><path class="cls-7" d="M.87,166.79a.25.25,0,0,1,.26-.26h3.4a.25.25,0,0,1,.27.26V184a.24.24,0,0,1-.27.26H1.13A.24.24,0,0,1,.87,184Z"/><path class="cls-7" d="M16.69,184.21a.25.25,0,0,1-.27-.26v-7.22c0-1.38-.67-2.29-2-2.29a2,2,0,0,0-2,2.29V184a.25.25,0,0,1-.27.26H8.9a.25.25,0,0,1-.27-.26V171.89a.25.25,0,0,1,.27-.26h3.21a.25.25,0,0,1,.27.26v.88h0a4,4,0,0,1,3.34-1.43c2.87,0,4.42,1.93,4.42,4.68V184a.24.24,0,0,1-.27.26Z"/><path class="cls-7" d="M28.23,184.37c-3,0-4.12-1.3-4.12-4.19v-5.72c0-.1-.05-.15-.16-.15h-.8a.25.25,0,0,1-.27-.26v-2.16a.25.25,0,0,1,.27-.26H24a.14.14,0,0,0,.16-.16v-3.38a.25.25,0,0,1,.27-.26h3.18a.25.25,0,0,1,.27.26v3.38a.14.14,0,0,0,.16.16h1.66a.25.25,0,0,1,.27.26v2.16a.25.25,0,0,1-.27.26H28a.14.14,0,0,0-.16.15V180c0,.93.32,1.24,1.18,1.24h.64a.26.26,0,0,1,.27.27v2.57a.25.25,0,0,1-.27.26Z"/><path class="cls-7" d="M32.92,180.91a8.76,8.76,0,0,1-.46-3,9.27,9.27,0,0,1,.43-3c.75-2.26,2.82-3.56,5.57-3.56s4.85,1.33,5.6,3.54a11.63,11.63,0,0,1,.43,3.87.26.26,0,0,1-.29.26H36.35a.14.14,0,0,0-.16.16,2.48,2.48,0,0,0,.16.7A2.56,2.56,0,0,0,39,181.54a4.26,4.26,0,0,0,3-1.12c.13-.11.27-.13.38,0L44.14,182a.22.22,0,0,1,0,.36,7.49,7.49,0,0,1-5.52,2.11C35.71,184.5,33.67,183.17,32.92,180.91Zm7.71-4.31a.14.14,0,0,0,.16-.16,3.08,3.08,0,0,0-.13-.94,2.4,2.4,0,0,0-4.34,0,3.08,3.08,0,0,0-.13.94.14.14,0,0,0,.16.16Z"/><path class="cls-7" d="M47.89,184.21a.25.25,0,0,1-.27-.26V171.89a.25.25,0,0,1,.27-.26H51.1a.24.24,0,0,1,.27.26V173h0a3.73,3.73,0,0,1,3.37-1.61,3.66,3.66,0,0,1,2.28.76.25.25,0,0,1,.08.36l-1.5,2.65c-.11.13-.21.13-.37,0a3.3,3.3,0,0,0-1.88-.57c-1.39.06-2,1-2,2.73V184a.24.24,0,0,1-.27.26Z"/><path class="cls-7" d="M67.49,184.21a.24.24,0,0,1-.26-.26v-7.22c0-1.38-.67-2.29-2-2.29a2,2,0,0,0-2,2.29V184a.24.24,0,0,1-.27.26H59.7a.25.25,0,0,1-.27-.26V171.89a.25.25,0,0,1,.27-.26h3.21a.24.24,0,0,1,.27.26v.88h0a4,4,0,0,1,3.35-1.43c2.86,0,4.41,1.93,4.41,4.68V184a.24.24,0,0,1-.26.26Z"/><path class="cls-7" d="M82.25,184.21A.25.25,0,0,1,82,184v-.83h0a4.31,4.31,0,0,1-3.57,1.38c-2.3,0-4.31-1.17-4.31-3.85s2.17-4.05,5.38-4.05h2.31a.14.14,0,0,0,.16-.16V176c0-1.17-.59-1.71-2.65-1.71a5,5,0,0,0-2.9.8A.21.21,0,0,1,76,175L74.83,173a.25.25,0,0,1,.08-.36,8.44,8.44,0,0,1,4.82-1.25c4.23,0,5.76,1.41,5.76,4.55V184a.25.25,0,0,1-.27.26ZM81.93,180v-.86a.14.14,0,0,0-.16-.16H80c-1.58,0-2.31.45-2.31,1.43s.65,1.33,1.88,1.33C81.13,181.77,81.93,181.2,81.93,180Z"/><path class="cls-7" d="M93.58,184.37c-3,0-4.13-1.3-4.13-4.19v-5.72c0-.1,0-.15-.16-.15h-.8a.25.25,0,0,1-.27-.26v-2.16a.25.25,0,0,1,.27-.26h.8a.14.14,0,0,0,.16-.16v-3.38a.25.25,0,0,1,.27-.26h3.19a.25.25,0,0,1,.27.26v3.38a.14.14,0,0,0,.16.16H95a.24.24,0,0,1,.26.26v2.16a.25.25,0,0,1-.26.26H93.34c-.11,0-.16.05-.16.15V180c0,.93.32,1.24,1.17,1.24H95a.25.25,0,0,1,.26.27v2.57a.24.24,0,0,1-.26.26Z"/><path class="cls-7" d="M98.72,169.63a.25.25,0,0,1-.27-.26v-2.58a.25.25,0,0,1,.27-.26h3.21a.25.25,0,0,1,.27.26v2.58a.25.25,0,0,1-.27.26Zm0,14.58a.25.25,0,0,1-.27-.26V171.89a.25.25,0,0,1,.27-.26h3.21a.25.25,0,0,1,.27.26V184a.25.25,0,0,1-.27.26Z"/><path class="cls-7" d="M105.76,181a11,11,0,0,1,0-6.08c.75-2.29,2.89-3.54,5.63-3.54s4.87,1.25,5.62,3.54a11,11,0,0,1,0,6.08c-.75,2.29-2.89,3.54-5.62,3.54S106.51,183.25,105.76,181Zm7.63-.88a9.84,9.84,0,0,0,0-4.32,2.16,2.16,0,0,0-4,0,9.84,9.84,0,0,0,0,4.32,2.16,2.16,0,0,0,4,0Z"/><path class="cls-7" d="M128.63,184.21a.25.25,0,0,1-.27-.26v-7.22c0-1.38-.66-2.29-2-2.29a2,2,0,0,0-2,2.29V184a.25.25,0,0,1-.27.26h-3.21a.25.25,0,0,1-.27-.26V171.89a.25.25,0,0,1,.27-.26h3.21a.25.25,0,0,1,.27.26v.88h0a4,4,0,0,1,3.35-1.43c2.86,0,4.41,1.93,4.41,4.68V184a.24.24,0,0,1-.26.26Z"/><path class="cls-7" d="M143.39,184.21a.25.25,0,0,1-.27-.26v-.83h0a4.29,4.29,0,0,1-3.56,1.38c-2.3,0-4.31-1.17-4.31-3.85s2.17-4.05,5.38-4.05h2.31a.15.15,0,0,0,.16-.16V176c0-1.17-.59-1.71-2.65-1.71a5,5,0,0,0-2.9.8.21.21,0,0,1-.34-.05L136,173a.25.25,0,0,1,.08-.36,8.44,8.44,0,0,1,4.82-1.25c4.23,0,5.76,1.41,5.76,4.55V184a.25.25,0,0,1-.27.26Zm-.32-4.18v-.86a.14.14,0,0,0-.16-.16h-1.82c-1.58,0-2.31.45-2.31,1.43s.65,1.33,1.88,1.33C142.26,181.77,143.07,181.2,143.07,180Z"/><path class="cls-7" d="M154.29,184.37c-2.87,0-4-1.22-4-4V166.79a.25.25,0,0,1,.27-.26h3.21a.25.25,0,0,1,.27.26v13.29c0,.86.35,1.19,1.12,1.19h.57a.25.25,0,0,1,.26.27v2.57a.24.24,0,0,1-.26.26Z"/><path class="cls-7" d="M165.91,184.21a.25.25,0,0,1-.27-.26V166.79a.25.25,0,0,1,.27-.26H173c4,0,6.35,2.32,6.35,5.7s-2.41,5.67-6.35,5.67h-3.24c-.11,0-.16,0-.16.15V184a.25.25,0,0,1-.27.26Zm9.48-12a2.36,2.36,0,0,0-2.65-2.4h-3a.14.14,0,0,0-.16.16v4.45c0,.1,0,.15.16.15h3A2.34,2.34,0,0,0,175.39,172.23Z"/><path class="cls-7" d="M189.15,184.21a.24.24,0,0,1-.26-.26v-.83h0a4.29,4.29,0,0,1-3.56,1.38c-2.3,0-4.31-1.17-4.31-3.85s2.17-4.05,5.38-4.05h2.3a.14.14,0,0,0,.16-.16V176c0-1.17-.59-1.71-2.65-1.71a5,5,0,0,0-2.89.8.22.22,0,0,1-.35-.05l-1.2-2.06a.24.24,0,0,1,.08-.36,8.44,8.44,0,0,1,4.82-1.25c4.23,0,5.75,1.41,5.75,4.55V184a.24.24,0,0,1-.26.26Zm-.32-4.18v-.86a.14.14,0,0,0-.16-.16h-1.82c-1.58,0-2.3.45-2.3,1.43s.64,1.33,1.87,1.33C188,181.77,188.83,181.2,188.83,180Z"/><path class="cls-7" d="M196.36,184.21a.25.25,0,0,1-.27-.26V171.89a.25.25,0,0,1,.27-.26h3.21a.25.25,0,0,1,.27.26V173h0a3.72,3.72,0,0,1,3.37-1.61,3.66,3.66,0,0,1,2.28.76.25.25,0,0,1,.08.36l-1.5,2.65c-.11.13-.22.13-.38,0a3.25,3.25,0,0,0-1.87-.57c-1.39.06-2,1-2,2.73V184a.25.25,0,0,1-.27.26Z"/><path class="cls-7" d="M212.29,184.37c-3,0-4.12-1.3-4.12-4.19v-5.72c0-.1,0-.15-.16-.15h-.8a.25.25,0,0,1-.27-.26v-2.16a.24.24,0,0,1,.27-.26h.8a.14.14,0,0,0,.16-.16v-3.38a.25.25,0,0,1,.27-.26h3.18a.25.25,0,0,1,.27.26v3.38a.14.14,0,0,0,.16.16h1.66a.25.25,0,0,1,.27.26v2.16a.25.25,0,0,1-.27.26h-1.66a.14.14,0,0,0-.16.15V180c0,.93.32,1.24,1.18,1.24h.64a.26.26,0,0,1,.27.27v2.57a.25.25,0,0,1-.27.26Z"/><path class="cls-7" d="M225.23,184.21A.25.25,0,0,1,225,184v-7.22c0-1.38-.67-2.29-2-2.29a2,2,0,0,0-2,2.29V184a.25.25,0,0,1-.27.26h-3.21a.24.24,0,0,1-.27-.26V171.89a.24.24,0,0,1,.27-.26h3.21a.25.25,0,0,1,.27.26v.88h0a4,4,0,0,1,3.35-1.43c2.87,0,4.42,1.93,4.42,4.68V184a.25.25,0,0,1-.27.26Z"/><path class="cls-7" d="M232.19,180.91a8.76,8.76,0,0,1-.46-3,9.27,9.27,0,0,1,.43-3c.75-2.26,2.82-3.56,5.57-3.56s4.85,1.33,5.6,3.54a11.63,11.63,0,0,1,.43,3.87c0,.16-.11.26-.3.26h-7.84a.14.14,0,0,0-.16.16,2.48,2.48,0,0,0,.16.7,2.56,2.56,0,0,0,2.68,1.67,4.26,4.26,0,0,0,3-1.12c.13-.11.27-.13.37,0l1.77,1.61a.23.23,0,0,1,0,.36,7.51,7.51,0,0,1-5.52,2.11C235,184.5,232.94,183.17,232.19,180.91Zm7.71-4.31a.14.14,0,0,0,.16-.16,3.08,3.08,0,0,0-.13-.94,2.4,2.4,0,0,0-4.34,0,3.08,3.08,0,0,0-.13.94.14.14,0,0,0,.16.16Z"/><path class="cls-7" d="M247.16,184.21a.25.25,0,0,1-.27-.26V171.89a.25.25,0,0,1,.27-.26h3.22a.24.24,0,0,1,.26.26V173h0a3.73,3.73,0,0,1,3.37-1.61,3.66,3.66,0,0,1,2.28.76.25.25,0,0,1,.08.36l-1.5,2.65c-.11.13-.21.13-.37,0a3.3,3.3,0,0,0-1.88-.57c-1.39.06-2,1-2,2.73V184a.24.24,0,0,1-.26.26Z"/><path class="cls-7" d="M257.63,182.55a.25.25,0,0,1,0-.36l1.74-1.9a.26.26,0,0,1,.38,0,6.86,6.86,0,0,0,4,1.38c1.37,0,2-.5,2-1.2s-.35-1-1.85-1.09l-1.44-.16c-2.74-.26-4.23-1.58-4.23-3.85,0-2.47,1.95-4,5.32-4a9,9,0,0,1,5.25,1.56.27.27,0,0,1,0,.39l-1.5,1.8a.27.27,0,0,1-.38,0,6.84,6.84,0,0,0-3.5-1c-1.1,0-1.64.41-1.64,1s.32.91,1.8,1.05l1.42.15c3.05.29,4.31,1.72,4.31,3.82,0,2.58-2.09,4.32-5.79,4.32A9,9,0,0,1,257.63,182.55Z"/><path class="cls-7" d="M280.42,184.21a.25.25,0,0,1-.27-.26v-7.22c0-1.38-.67-2.29-2-2.29a2,2,0,0,0-2,2.29V184a.25.25,0,0,1-.27.26h-3.21a.25.25,0,0,1-.27-.26V166.79a.25.25,0,0,1,.27-.26h3.21a.25.25,0,0,1,.27.26v6h0a4,4,0,0,1,3.34-1.43c2.87,0,4.42,1.93,4.42,4.68V184a.25.25,0,0,1-.27.26Z"/><path class="cls-7" d="M287.84,169.63a.25.25,0,0,1-.27-.26v-2.58a.25.25,0,0,1,.27-.26h3.21a.25.25,0,0,1,.27.26v2.58a.25.25,0,0,1-.27.26Zm0,14.58a.25.25,0,0,1-.27-.26V171.89a.25.25,0,0,1,.27-.26h3.21a.25.25,0,0,1,.27.26V184a.25.25,0,0,1-.27.26Z"/><path class="cls-7" d="M295.37,188.89a.24.24,0,0,1-.27-.26V171.89a.24.24,0,0,1,.27-.26h3.21a.25.25,0,0,1,.27.26v.91h0a3.87,3.87,0,0,1,3.4-1.46,4.27,4.27,0,0,1,4.4,3,14.31,14.31,0,0,1,0,7.12,4.29,4.29,0,0,1-4.4,3,3.87,3.87,0,0,1-3.4-1.46h0v5.59a.25.25,0,0,1-.27.26Zm7.71-8.81a9.84,9.84,0,0,0,0-4.32,1.91,1.91,0,0,0-2-1.35,1.88,1.88,0,0,0-2,1.35,9.84,9.84,0,0,0,0,4.32,1.92,1.92,0,0,0,2,1.35A1.94,1.94,0,0,0,303.08,180.08Z"/><path class="cls-7" d="M309.45,182.55a.24.24,0,0,1,0-.36l1.74-1.9a.26.26,0,0,1,.38,0,6.86,6.86,0,0,0,4,1.38c1.37,0,2-.5,2-1.2s-.35-1-1.85-1.09l-1.45-.16c-2.73-.26-4.23-1.58-4.23-3.85,0-2.47,2-4,5.33-4a9,9,0,0,1,5.25,1.56.27.27,0,0,1,0,.39l-1.5,1.8a.27.27,0,0,1-.38,0,6.87,6.87,0,0,0-3.5-1c-1.1,0-1.64.41-1.64,1s.32.91,1.8,1.05l1.42.15c3.05.29,4.31,1.72,4.31,3.82,0,2.58-2.09,4.32-5.79,4.32A9,9,0,0,1,309.45,182.55Z"/><path class="cls-7" d="M331.65,184.21a.25.25,0,0,1-.27-.26v-9.49c0-.1-.05-.15-.16-.15h-.8a.25.25,0,0,1-.27-.26v-2.16a.25.25,0,0,1,.27-.26h.8a.14.14,0,0,0,.16-.16v-.6c0-3.06,1.48-4.34,4.56-4.34h1.47a.25.25,0,0,1,.27.26v2.45a.25.25,0,0,1-.27.26h-.83c-1.18,0-1.47.28-1.47,1.35v.62a.14.14,0,0,0,.16.16h2.11a.25.25,0,0,1,.27.26v2.16a.25.25,0,0,1-.27.26h-2.11c-.11,0-.16.05-.16.15V184a.25.25,0,0,1-.27.26Z"/><path class="cls-7" d="M340.11,181a11.21,11.21,0,0,1,0-6.08c.75-2.29,2.9-3.54,5.63-3.54s4.87,1.25,5.62,3.54a11,11,0,0,1,0,6.08c-.75,2.29-2.89,3.54-5.62,3.54S340.86,183.25,340.11,181Zm7.64-.88a9.84,9.84,0,0,0,0-4.32,2.17,2.17,0,0,0-4,0,9.84,9.84,0,0,0,0,4.32,2.17,2.17,0,0,0,4,0Z"/><path class="cls-7" d="M355.19,184.21a.25.25,0,0,1-.27-.26V171.89a.25.25,0,0,1,.27-.26h3.21a.25.25,0,0,1,.27.26V173h0a3.72,3.72,0,0,1,3.37-1.61,3.66,3.66,0,0,1,2.28.76.25.25,0,0,1,.08.36l-1.5,2.65c-.11.13-.22.13-.38,0a3.25,3.25,0,0,0-1.87-.57c-1.39.06-2,1-2,2.73V184a.25.25,0,0,1-.27.26Z"/><path class="cls-7" d="M0,213.28a.3.3,0,0,1,0-.44l2-2.26a.28.28,0,0,1,.4,0,7.85,7.85,0,0,0,4.77,1.82c1.9,0,3-.86,3-2.1,0-1-.64-1.69-2.81-2l-1-.13C2.66,207.67.6,206,.6,202.85s2.52-5.4,6.45-5.4a10.56,10.56,0,0,1,6.19,1.84c.16.11.18.21,0,.39l-1.63,2.37a.28.28,0,0,1-.38.08,7.63,7.63,0,0,0-4.23-1.36c-1.6,0-2.44.81-2.44,1.93s.75,1.66,2.84,2l1,.13c3.75.49,5.73,2.16,5.73,5.36S11.71,215.7,7,215.7A10.92,10.92,0,0,1,0,213.28Z"/><path class="cls-7" d="M25,215.41a.25.25,0,0,1-.27-.26v-.91h0a3.92,3.92,0,0,1-3.32,1.46c-2.87,0-4.37-1.95-4.37-4.68v-7.93a.25.25,0,0,1,.27-.26h3.21a.25.25,0,0,1,.27.26v7.23c0,1.35.67,2.29,2,2.29s2-.91,2-2.29v-7.23a.25.25,0,0,1,.27-.26h3.22a.24.24,0,0,1,.26.26v12.06a.24.24,0,0,1-.26.26Z"/><path class="cls-7" d="M31.45,213.75a.24.24,0,0,1,0-.36l1.74-1.9a.25.25,0,0,1,.37,0,6.89,6.89,0,0,0,4,1.38c1.36,0,2-.5,2-1.2s-.35-1-1.85-1.09l-1.45-.16c-2.73-.26-4.23-1.58-4.23-3.85,0-2.47,2-4,5.33-4a9,9,0,0,1,5.25,1.56.28.28,0,0,1,0,.39l-1.5,1.8a.27.27,0,0,1-.38.05,6.88,6.88,0,0,0-3.51-1c-1.1,0-1.63.42-1.63,1.05s.32.9,1.79,1l1.42.16c3.06.29,4.31,1.72,4.31,3.82,0,2.58-2.08,4.32-5.78,4.32A9,9,0,0,1,31.45,213.75Z"/><path class="cls-7" d="M50.57,215.57c-3,0-4.13-1.3-4.13-4.19v-5.72c0-.1,0-.15-.16-.15h-.8a.25.25,0,0,1-.27-.26v-2.16a.25.25,0,0,1,.27-.26h.8a.14.14,0,0,0,.16-.16v-3.38a.25.25,0,0,1,.27-.26H49.9a.25.25,0,0,1,.27.26v3.38a.14.14,0,0,0,.16.16H52a.24.24,0,0,1,.26.26v2.16a.25.25,0,0,1-.26.26H50.33c-.11,0-.16.05-.16.15v5.57c0,.93.32,1.25,1.17,1.25H52a.24.24,0,0,1,.26.26v2.57a.24.24,0,0,1-.26.26Z"/><path class="cls-7" d="M63.05,215.41a.25.25,0,0,1-.27-.26v-.83h0a4.29,4.29,0,0,1-3.56,1.38c-2.3,0-4.31-1.17-4.31-3.85s2.17-4,5.38-4h2.3a.14.14,0,0,0,.16-.16v-.47c0-1.17-.58-1.71-2.65-1.71a5,5,0,0,0-2.89.8.22.22,0,0,1-.35,0l-1.2-2.06a.25.25,0,0,1,.08-.36,8.44,8.44,0,0,1,4.82-1.25c4.23,0,5.76,1.41,5.76,4.55v8.06a.25.25,0,0,1-.27.26Zm-.33-4.18v-.86a.14.14,0,0,0-.16-.16H60.74c-1.58,0-2.3.45-2.3,1.43s.64,1.33,1.87,1.33C61.92,213,62.72,212.4,62.72,211.23Z"/><path class="cls-7" d="M70.25,200.83a.25.25,0,0,1-.27-.26V198a.25.25,0,0,1,.27-.26h3.21a.25.25,0,0,1,.27.26v2.58a.25.25,0,0,1-.27.26Zm0,14.58a.25.25,0,0,1-.27-.26V203.09a.25.25,0,0,1,.27-.26h3.21a.24.24,0,0,1,.27.26v12.06a.24.24,0,0,1-.27.26Z"/><path class="cls-7" d="M85.57,215.41a.25.25,0,0,1-.27-.26v-7.22c0-1.38-.67-2.29-2-2.29a2,2,0,0,0-2,2.29v7.22a.25.25,0,0,1-.27.26H77.78a.25.25,0,0,1-.27-.26V203.09a.25.25,0,0,1,.27-.26H81a.25.25,0,0,1,.27.26V204h0a4,4,0,0,1,3.35-1.43c2.87,0,4.42,1.93,4.42,4.68v7.93a.25.25,0,0,1-.27.26Z"/><path class="cls-7" d="M100.32,215.41a.24.24,0,0,1-.26-.26v-.83h0a4.31,4.31,0,0,1-3.56,1.38c-2.31,0-4.31-1.17-4.31-3.85s2.17-4,5.38-4h2.3a.14.14,0,0,0,.16-.16v-.47c0-1.17-.59-1.71-2.65-1.71a5,5,0,0,0-2.89.8.22.22,0,0,1-.35,0l-1.2-2.06a.24.24,0,0,1,.08-.36,8.39,8.39,0,0,1,4.82-1.25c4.23,0,5.75,1.41,5.75,4.55v8.06a.24.24,0,0,1-.26.26Zm-.32-4.18v-.86a.14.14,0,0,0-.16-.16H98c-1.58,0-2.3.45-2.3,1.43s.64,1.33,1.87,1.33C99.2,213,100,212.4,100,211.23Z"/><path class="cls-7" d="M111,214.24h0v.91a.25.25,0,0,1-.27.26h-3.21a.25.25,0,0,1-.27-.26V198a.25.25,0,0,1,.27-.26h3.21a.25.25,0,0,1,.27.26v6h0a3.86,3.86,0,0,1,3.4-1.46,4.26,4.26,0,0,1,4.39,3,14,14,0,0,1,0,7.12,4.28,4.28,0,0,1-4.39,3A3.86,3.86,0,0,1,111,214.24Zm4.2-3a9.84,9.84,0,0,0,0-4.32,2.15,2.15,0,0,0-4,0,9.84,9.84,0,0,0,0,4.32,2.15,2.15,0,0,0,4,0Z"/><path class="cls-7" d="M126.38,215.57c-2.86,0-4-1.22-4-4V198a.25.25,0,0,1,.26-.26h3.22a.25.25,0,0,1,.26.26v13.29c0,.86.35,1.2,1.13,1.2h.56a.25.25,0,0,1,.27.26v2.57a.25.25,0,0,1-.27.26Z"/><path class="cls-7" d="M130.77,212.11a8.79,8.79,0,0,1-.45-3,9,9,0,0,1,.43-3c.75-2.26,2.81-3.56,5.57-3.56s4.84,1.33,5.59,3.54a11.63,11.63,0,0,1,.43,3.87.26.26,0,0,1-.29.26H134.2a.14.14,0,0,0-.16.16,2.88,2.88,0,0,0,.16.7,2.56,2.56,0,0,0,2.68,1.67,4.26,4.26,0,0,0,3-1.12c.13-.11.27-.13.38,0l1.76,1.61a.22.22,0,0,1,0,.36,7.49,7.49,0,0,1-5.52,2.11C133.56,215.7,131.52,214.37,130.77,212.11Zm7.71-4.31a.15.15,0,0,0,.17-.16,3.06,3.06,0,0,0-.14-.94,2.4,2.4,0,0,0-4.34,0,3.08,3.08,0,0,0-.13.94.14.14,0,0,0,.16.16Z"/><path class="cls-7" d="M152.25,198a.25.25,0,0,1,.27-.26h3.4a.25.25,0,0,1,.27.26v17.16a.25.25,0,0,1-.27.26h-3.4a.25.25,0,0,1-.27-.26Z"/><path class="cls-7" d="M168.08,215.41a.25.25,0,0,1-.27-.26v-7.22c0-1.38-.67-2.29-2-2.29a2,2,0,0,0-2,2.29v7.22a.25.25,0,0,1-.27.26h-3.21a.24.24,0,0,1-.27-.26V203.09a.24.24,0,0,1,.27-.26h3.21a.25.25,0,0,1,.27.26V204h0a4,4,0,0,1,3.35-1.43c2.87,0,4.42,1.93,4.42,4.68v7.93a.25.25,0,0,1-.27.26Z"/><path class="cls-7" d="M183.29,215.41a.25.25,0,0,1-.27-.26v-7.22c0-1.38-.67-2.29-2-2.29a2,2,0,0,0-2,2.29v7.22a.25.25,0,0,1-.27.26H175.5a.25.25,0,0,1-.27-.26V203.09a.25.25,0,0,1,.27-.26h3.21a.25.25,0,0,1,.27.26V204h0a4,4,0,0,1,3.35-1.43c2.87,0,4.42,1.93,4.42,4.68v7.93a.25.25,0,0,1-.27.26Z"/><path class="cls-7" d="M190.22,212.16a11.21,11.21,0,0,1,0-6.08c.75-2.29,2.9-3.54,5.63-3.54s4.87,1.25,5.62,3.54a11,11,0,0,1,0,6.08c-.75,2.29-2.89,3.54-5.62,3.54S191,214.45,190.22,212.16Zm7.64-.88a6.59,6.59,0,0,0,.24-2.16,6.67,6.67,0,0,0-.24-2.16,2.17,2.17,0,0,0-4,0,6.4,6.4,0,0,0-.24,2.16,6.33,6.33,0,0,0,.24,2.16,2.17,2.17,0,0,0,4,0Z"/><path class="cls-7" d="M208.46,215.41a.34.34,0,0,1-.32-.26l-4.6-12.06c-.06-.16,0-.26.21-.26h3.37a.32.32,0,0,1,.35.26l2.52,7.46h0l2.41-7.46a.33.33,0,0,1,.35-.26h3.32c.19,0,.27.1.22.26l-4.61,12.06a.33.33,0,0,1-.32.26Z"/><path class="cls-7" d="M226.43,215.41a.25.25,0,0,1-.27-.26v-.83h0a4.31,4.31,0,0,1-3.56,1.38c-2.31,0-4.31-1.17-4.31-3.85s2.16-4,5.38-4H226a.14.14,0,0,0,.16-.16v-.47c0-1.17-.59-1.71-2.65-1.71a4.93,4.93,0,0,0-2.89.8.22.22,0,0,1-.35,0l-1.2-2.06a.23.23,0,0,1,.08-.36,8.39,8.39,0,0,1,4.82-1.25c4.23,0,5.75,1.41,5.75,4.55v8.06a.24.24,0,0,1-.27.26Zm-.32-4.18v-.86a.14.14,0,0,0-.16-.16h-1.82c-1.58,0-2.3.45-2.3,1.43s.64,1.33,1.87,1.33C225.31,213,226.11,212.4,226.11,211.23Z"/><path class="cls-7" d="M237.76,215.57c-3,0-4.12-1.3-4.12-4.19v-5.72c0-.1-.06-.15-.17-.15h-.8a.25.25,0,0,1-.27-.26v-2.16a.25.25,0,0,1,.27-.26h.8c.11,0,.17-.05.17-.16v-3.38a.25.25,0,0,1,.26-.26h3.19a.25.25,0,0,1,.27.26v3.38a.14.14,0,0,0,.16.16h1.66a.25.25,0,0,1,.27.26v2.16a.25.25,0,0,1-.27.26h-1.66c-.11,0-.16.05-.16.15v5.57c0,.93.32,1.25,1.18,1.25h.64a.25.25,0,0,1,.27.26v2.57a.25.25,0,0,1-.27.26Z"/><path class="cls-7" d="M242.9,200.83a.25.25,0,0,1-.27-.26V198a.25.25,0,0,1,.27-.26h3.22a.25.25,0,0,1,.26.26v2.58a.25.25,0,0,1-.26.26Zm0,14.58a.25.25,0,0,1-.27-.26V203.09a.25.25,0,0,1,.27-.26h3.22a.24.24,0,0,1,.26.26v12.06a.24.24,0,0,1-.26.26Z"/><path class="cls-7" d="M250,212.16a11,11,0,0,1,0-6.08c.75-2.29,2.89-3.54,5.62-3.54s4.87,1.25,5.62,3.54a11,11,0,0,1,0,6.08c-.75,2.29-2.89,3.54-5.62,3.54S250.7,214.45,250,212.16Zm7.63-.88a6.59,6.59,0,0,0,.24-2.16,6.67,6.67,0,0,0-.24-2.16,2.17,2.17,0,0,0-4,0,6.4,6.4,0,0,0-.24,2.16,6.33,6.33,0,0,0,.24,2.16,2.17,2.17,0,0,0,4,0Z"/><path class="cls-7" d="M272.81,215.41a.24.24,0,0,1-.26-.26v-7.22c0-1.38-.67-2.29-2-2.29a2,2,0,0,0-2,2.29v7.22a.24.24,0,0,1-.27.26H265a.25.25,0,0,1-.27-.26V203.09a.25.25,0,0,1,.27-.26h3.21a.24.24,0,0,1,.27.26V204h0a4,4,0,0,1,3.35-1.43c2.86,0,4.41,1.93,4.41,4.68v7.93a.24.24,0,0,1-.26.26Z"/><path class="cls-7" d="M279.16,213.75a.24.24,0,0,1,0-.36l1.74-1.9a.26.26,0,0,1,.38,0,6.86,6.86,0,0,0,4,1.38c1.37,0,2-.5,2-1.2s-.35-1-1.85-1.09l-1.44-.16c-2.74-.26-4.24-1.58-4.24-3.85,0-2.47,2-4,5.33-4a9,9,0,0,1,5.25,1.56.27.27,0,0,1,0,.39l-1.5,1.8a.27.27,0,0,1-.38.05,6.85,6.85,0,0,0-3.5-1c-1.1,0-1.64.42-1.64,1.05s.32.9,1.8,1l1.42.16c3.05.29,4.31,1.72,4.31,3.82,0,2.58-2.09,4.32-5.79,4.32A9,9,0,0,1,279.16,213.75Z"/><path class="cls-8" d="M5.92.26A.32.32,0,0,1,6.23,0h.94c.18,0,.26.1.31.26l6.13,17.16c.06.16,0,.26-.18.26h-1a.29.29,0,0,1-.34-.26l-1.56-4.34H2.82L1.26,17.42a.31.31,0,0,1-.33.26h-1c-.15,0-.23-.1-.18-.26ZM10,11.65,6.72,2.39H6.65L3.32,11.65Z"/><path class="cls-8" d="M24.85,17.68a.24.24,0,0,1-.26-.26V10.09c0-2.47-1.1-3.72-3.25-3.72A3.25,3.25,0,0,0,18,9.83v7.59a.25.25,0,0,1-.26.26h-.89a.25.25,0,0,1-.26-.26V5.54a.25.25,0,0,1,.26-.26h.89a.25.25,0,0,1,.26.26V7h0a3.92,3.92,0,0,1,3.67-2C24.4,5,26,6.73,26,9.75v7.67a.24.24,0,0,1-.26.26Z"/><path class="cls-8" d="M36.54.26A.25.25,0,0,1,36.8,0h1A.25.25,0,0,1,38,.26V17.42a.25.25,0,0,1-.26.26h-1a.25.25,0,0,1-.26-.26Z"/><path class="cls-8" d="M50.9,17.68a.24.24,0,0,1-.26-.26V10.09c0-2.47-1.1-3.72-3.25-3.72A3.25,3.25,0,0,0,44,9.83v7.59a.25.25,0,0,1-.26.26h-.89a.25.25,0,0,1-.26-.26V5.54a.25.25,0,0,1,.26-.26h.89a.25.25,0,0,1,.26.26V7h0A3.92,3.92,0,0,1,47.7,5C50.45,5,52,6.73,52,9.75v7.67a.24.24,0,0,1-.26.26Z"/><path class="cls-8" d="M56.54,2a.25.25,0,0,1-.26-.26V.26A.24.24,0,0,1,56.54,0h1.14a.24.24,0,0,1,.26.26V1.72a.25.25,0,0,1-.26.26Zm.13,15.7a.24.24,0,0,1-.26-.26V5.54a.24.24,0,0,1,.26-.26h.88a.24.24,0,0,1,.26.26V17.42a.24.24,0,0,1-.26.26Z"/><path class="cls-8" d="M65.9,17.76c-2.34,0-3.23-.91-3.23-3.36V6.68a.13.13,0,0,0-.15-.15h-1.3A.25.25,0,0,1,61,6.27V5.54a.24.24,0,0,1,.26-.26h1.3c.1,0,.15,0,.15-.16V1.56a.25.25,0,0,1,.26-.26h.89a.25.25,0,0,1,.26.26V5.12c0,.11,0,.16.15.16h2.34a.24.24,0,0,1,.26.26v.73a.25.25,0,0,1-.26.26H64.23a.13.13,0,0,0-.15.15v7.65c0,1.66.57,2.08,2,2.08h.49a.24.24,0,0,1,.26.26v.83a.25.25,0,0,1-.26.26Z"/><path class="cls-8" d="M70.29,2A.25.25,0,0,1,70,1.72V.26A.25.25,0,0,1,70.29,0h1.15a.25.25,0,0,1,.26.26V1.72a.25.25,0,0,1-.26.26Zm.13,15.7a.25.25,0,0,1-.26-.26V5.54a.25.25,0,0,1,.26-.26h.89a.25.25,0,0,1,.26.26V17.42a.25.25,0,0,1-.26.26Z"/><path class="cls-8" d="M77.08,7.25a.26.26,0,0,1-.39,0l-.44-.65a.26.26,0,0,1,.07-.37,6,6,0,0,1,4-1.19C83.5,5,84.8,6.08,84.8,9.13v8.29a.24.24,0,0,1-.26.26h-.83a.24.24,0,0,1-.26-.26v-1.3h0c-.49,1-1.82,1.82-3.85,1.82-2.49,0-4.16-1.25-4.16-3.67s1.69-3.66,4.71-3.66h3.15c.1,0,.15,0,.15-.16V9.18c0-2-.7-2.86-3.22-2.86A4.56,4.56,0,0,0,77.08,7.25Zm6.34,6.61V12a.14.14,0,0,0-.15-.16h-3c-2.47,0-3.51.81-3.51,2.45s1.09,2.39,3.07,2.39S83.42,15.55,83.42,13.86Z"/><path class="cls-8" d="M92.73,17.76c-2.34,0-3.23-.91-3.23-3.36V6.68a.13.13,0,0,0-.15-.15h-1.3a.25.25,0,0,1-.26-.26V5.54a.24.24,0,0,1,.26-.26h1.3c.1,0,.15,0,.15-.16V1.56a.25.25,0,0,1,.27-.26h.88a.25.25,0,0,1,.26.26V5.12c0,.11,0,.16.15.16h2.35a.25.25,0,0,1,.26.26v.73a.25.25,0,0,1-.26.26H91.06a.13.13,0,0,0-.15.15v7.65c0,1.66.57,2.08,2,2.08h.5a.25.25,0,0,1,.26.26v.83a.25.25,0,0,1-.26.26Z"/><path class="cls-8" d="M97.12,2a.25.25,0,0,1-.26-.26V.26A.25.25,0,0,1,97.12,0h1.15a.25.25,0,0,1,.26.26V1.72a.25.25,0,0,1-.26.26Zm.13,15.7a.25.25,0,0,1-.26-.26V5.54a.25.25,0,0,1,.26-.26h.89a.25.25,0,0,1,.26.26V17.42a.25.25,0,0,1-.26.26Z"/><path class="cls-8" d="M106.2,17.68c-.18,0-.26-.1-.32-.26L101.39,5.54c-.06-.16,0-.26.2-.26h1c.18,0,.26.08.33.26l3.75,9.93h0l3.66-9.93c.08-.18.16-.26.34-.26h1c.18,0,.26.1.21.26l-4.5,11.88a.32.32,0,0,1-.31.26Z"/><path class="cls-8" d="M114.31,14.66a10,10,0,0,1-.37-3.19,10.42,10.42,0,0,1,.37-3.23,4.92,4.92,0,0,1,9.23,0,9.88,9.88,0,0,1,.36,3.3.25.25,0,0,1-.28.26h-8.09c-.1,0-.15.08-.15.19a6.79,6.79,0,0,0,.25,2.18,3.44,3.44,0,0,0,3.51,2.42A4.22,4.22,0,0,0,122.6,15,.24.24,0,0,1,123,15l.59.55a.22.22,0,0,1,0,.36,5.48,5.48,0,0,1-4.52,2.08A4.58,4.58,0,0,1,114.31,14.66Zm8-4.05c.1,0,.15,0,.15-.16a5.94,5.94,0,0,0-.23-1.79,3.52,3.52,0,0,0-6.63,0,5.64,5.64,0,0,0-.23,1.79c0,.11.05.16.15.16Z"/><path class="cls-8" d="M133.29,14.72a10.31,10.31,0,0,1-.42-3.25,10.17,10.17,0,0,1,.42-3.23,5,5,0,0,1,9.28,0,10.17,10.17,0,0,1,.42,3.23,10.31,10.31,0,0,1-.42,3.25,5,5,0,0,1-9.28,0Zm7.93-.45a8.47,8.47,0,0,0,.34-2.8,8.53,8.53,0,0,0-.34-2.79,3.5,3.5,0,0,0-6.58,0,8.53,8.53,0,0,0-.34,2.79,8.47,8.47,0,0,0,.34,2.8,3.49,3.49,0,0,0,6.58,0Z"/><path class="cls-8" d="M147.35,17.68a.25.25,0,0,1-.26-.26V6.68a.13.13,0,0,0-.15-.15h-1.33a.25.25,0,0,1-.26-.26V5.54a.25.25,0,0,1,.26-.26h1.33c.1,0,.15,0,.15-.16V3.8c0-3,.94-3.8,3.46-3.8h.73a.24.24,0,0,1,.26.26v.83a.24.24,0,0,1-.26.26h-.55c-1.89,0-2.23.39-2.23,2.26V5.12c0,.11.05.16.15.16h2.63a.24.24,0,0,1,.26.26v.73a.25.25,0,0,1-.26.26h-2.63a.13.13,0,0,0-.15.15V17.42a.25.25,0,0,1-.26.26Z"/><path class="cls-8" d="M164.12,17.76c-2.34,0-3.22-.91-3.22-3.36V6.68c0-.1-.05-.15-.16-.15h-1.3a.25.25,0,0,1-.26-.26V5.54a.25.25,0,0,1,.26-.26h1.3a.14.14,0,0,0,.16-.16V1.56a.24.24,0,0,1,.26-.26H162a.24.24,0,0,1,.26.26V5.12a.14.14,0,0,0,.16.16h2.34a.24.24,0,0,1,.26.26v.73a.25.25,0,0,1-.26.26h-2.34a.14.14,0,0,0-.16.15v7.65c0,1.66.58,2.08,2,2.08h.5a.24.24,0,0,1,.26.26v.83a.25.25,0,0,1-.26.26Z"/><path class="cls-8" d="M176.68,17.68a.25.25,0,0,1-.26-.26V10.09c0-2.47-1.09-3.72-3.25-3.72a3.25,3.25,0,0,0-3.38,3.46v7.59a.24.24,0,0,1-.26.26h-.88a.24.24,0,0,1-.26-.26V.26a.24.24,0,0,1,.26-.26h.88a.24.24,0,0,1,.26.26V7h0a3.89,3.89,0,0,1,3.66-2c2.76,0,4.35,1.71,4.35,4.73v7.67a.25.25,0,0,1-.27.26Z"/><path class="cls-8" d="M181.72,14.66a10.37,10.37,0,0,1-.36-3.19,10.81,10.81,0,0,1,.36-3.23,4.92,4.92,0,0,1,9.24,0,10.15,10.15,0,0,1,.36,3.3.26.26,0,0,1-.29.26H183c-.11,0-.16.08-.16.19a6.74,6.74,0,0,0,.26,2.18,3.42,3.42,0,0,0,3.51,2.42A4.25,4.25,0,0,0,190,15a.23.23,0,0,1,.36-.05l.6.55a.23.23,0,0,1,0,.36,5.48,5.48,0,0,1-4.53,2.08A4.59,4.59,0,0,1,181.72,14.66Zm8-4.05a.14.14,0,0,0,.16-.16,5.61,5.61,0,0,0-.24-1.79,3.52,3.52,0,0,0-6.63,0,5.94,5.94,0,0,0-.23,1.79.14.14,0,0,0,.16.16Z"/><path class="cls-8" d="M201.17.26a.25.25,0,0,1,.26-.26h10.12a.25.25,0,0,1,.26.26v.88a.25.25,0,0,1-.26.26h-8.74a.15.15,0,0,0-.16.16V8a.14.14,0,0,0,.16.16h7.51a.24.24,0,0,1,.26.26v.88a.24.24,0,0,1-.26.26h-7.51a.15.15,0,0,0-.16.16v7.67a.24.24,0,0,1-.26.26h-1a.25.25,0,0,1-.26-.26Z"/><path class="cls-8" d="M213.94,14.66a10,10,0,0,1-.37-3.19,10.42,10.42,0,0,1,.37-3.23,4.92,4.92,0,0,1,9.23,0,9.88,9.88,0,0,1,.36,3.3.25.25,0,0,1-.28.26h-8.09c-.11,0-.16.08-.16.19a6.74,6.74,0,0,0,.26,2.18,3.42,3.42,0,0,0,3.51,2.42A4.25,4.25,0,0,0,222.23,15a.24.24,0,0,1,.37-.05l.59.55a.23.23,0,0,1,0,.36,5.48,5.48,0,0,1-4.52,2.08A4.58,4.58,0,0,1,213.94,14.66Zm8-4.05c.1,0,.15,0,.15-.16a5.94,5.94,0,0,0-.23-1.79,3.52,3.52,0,0,0-6.63,0,5.61,5.61,0,0,0-.24,1.79.14.14,0,0,0,.16.16Z"/><path class="cls-8" d="M235.08,17.68a.25.25,0,0,1-.27-.26V15.91h0a3.83,3.83,0,0,1-3.77,2,4,4,0,0,1-4.21-3,10.81,10.81,0,0,1-.44-3.49A10.86,10.86,0,0,1,226.81,8,4,4,0,0,1,231,5a3.83,3.83,0,0,1,3.77,2h0V.26a.25.25,0,0,1,.27-.26H236a.24.24,0,0,1,.26.26V17.42a.24.24,0,0,1-.26.26Zm-.6-3.28a9.17,9.17,0,0,0,.33-2.91,9.43,9.43,0,0,0-.33-2.94,3.4,3.4,0,0,0-6.35,0,9.82,9.82,0,0,0-.34,2.94,9.73,9.73,0,0,0,.34,2.91,3.4,3.4,0,0,0,6.35,0Z"/><path class="cls-8" d="M240.27,14.66a10.37,10.37,0,0,1-.36-3.19,10.81,10.81,0,0,1,.36-3.23,4.92,4.92,0,0,1,9.23,0,9.81,9.81,0,0,1,.37,3.3.26.26,0,0,1-.29.26H241.5c-.11,0-.16.08-.16.19a6.74,6.74,0,0,0,.26,2.18,3.42,3.42,0,0,0,3.51,2.42A4.25,4.25,0,0,0,248.57,15a.23.23,0,0,1,.36-.05l.6.55a.23.23,0,0,1,0,.36A5.48,5.48,0,0,1,245,17.94,4.59,4.59,0,0,1,240.27,14.66Zm8-4.05a.14.14,0,0,0,.16-.16,5.94,5.94,0,0,0-.23-1.79,3.53,3.53,0,0,0-6.64,0,5.94,5.94,0,0,0-.23,1.79.14.14,0,0,0,.16.16Z"/><path class="cls-8" d="M253.79,17.68a.25.25,0,0,1-.26-.26V5.54a.25.25,0,0,1,.26-.26h.89a.25.25,0,0,1,.26.26V7.12h0A3.33,3.33,0,0,1,258.29,5a3.87,3.87,0,0,1,2.5.86.2.2,0,0,1,0,.33l-.52.73c-.1.13-.23.13-.39,0a3.6,3.6,0,0,0-2-.62c-2.18,0-3,1.9-3,4.19v6.86a.25.25,0,0,1-.26.26Z"/><path class="cls-8" d="M263.93,7.25a.26.26,0,0,1-.39,0l-.44-.65a.28.28,0,0,1,.08-.37A6,6,0,0,1,267.13,5c3.23,0,4.53,1.06,4.53,4.11v8.29a.25.25,0,0,1-.26.26h-.84a.25.25,0,0,1-.26-.26v-1.3h0c-.49,1-1.82,1.82-3.85,1.82-2.5,0-4.16-1.25-4.16-3.67S264,10.61,267,10.61h3.14a.14.14,0,0,0,.16-.16V9.18c0-2-.7-2.86-3.23-2.86A4.57,4.57,0,0,0,263.93,7.25Zm6.35,6.61V12a.14.14,0,0,0-.16-.16h-3c-2.47,0-3.51.81-3.51,2.45s1.09,2.39,3.07,2.39S270.28,15.55,270.28,13.86Z"/><path class="cls-8" d="M278.57,17.76c-1.87,0-2.57-.86-2.57-2.91V.26a.24.24,0,0,1,.26-.26h.88a.24.24,0,0,1,.26.26V14.79c0,1.23.39,1.62,1.33,1.62h.44a.24.24,0,0,1,.26.26v.83a.25.25,0,0,1-.26.26Z"/><path class="cls-8" d="M288.76.26A.25.25,0,0,1,289,0h1a.4.4,0,0,1,.39.26l5.75,12.66h.1L301.87.26a.38.38,0,0,1,.36-.26h1a.25.25,0,0,1,.26.26V17.42a.25.25,0,0,1-.26.26h-1a.25.25,0,0,1-.26-.26V3.59H302l-5.1,11.2a.44.44,0,0,1-.47.29h-.52a.42.42,0,0,1-.44-.29l-5.1-11.2h-.07V17.42a.25.25,0,0,1-.26.26h-1a.25.25,0,0,1-.26-.26Z"/><path class="cls-8" d="M308.21,2a.25.25,0,0,1-.26-.26V.26a.25.25,0,0,1,.26-.26h1.15a.25.25,0,0,1,.26.26V1.72a.25.25,0,0,1-.26.26Zm.13,15.7a.25.25,0,0,1-.26-.26V5.54a.25.25,0,0,1,.26-.26h.89a.25.25,0,0,1,.26.26V17.42a.25.25,0,0,1-.26.26Z"/><path class="cls-8" d="M322.3,17.68a.25.25,0,0,1-.26-.26V10.09c0-2.47-1.09-3.72-3.25-3.72a3.26,3.26,0,0,0-3.38,3.46v7.59a.24.24,0,0,1-.26.26h-.88a.24.24,0,0,1-.26-.26V5.54a.24.24,0,0,1,.26-.26h.88a.24.24,0,0,1,.26.26V7h0a3.9,3.9,0,0,1,3.67-2c2.75,0,4.34,1.71,4.34,4.73v7.67a.25.25,0,0,1-.26.26Z"/><path class="cls-8" d="M327.94,2a.25.25,0,0,1-.26-.26V.26a.25.25,0,0,1,.26-.26h1.15a.25.25,0,0,1,.26.26V1.72a.25.25,0,0,1-.26.26Zm.13,15.7a.25.25,0,0,1-.26-.26V5.54a.25.25,0,0,1,.26-.26H329a.25.25,0,0,1,.26.26V17.42a.25.25,0,0,1-.26.26Z"/><path class="cls-8" d="M332.78,16.2a.27.27,0,0,1,0-.37l.57-.65a.3.3,0,0,1,.37,0,6.39,6.39,0,0,0,4,1.46c2.15,0,3.22-1,3.22-2.39,0-1.25-.55-1.93-2.83-2.19l-1.25-.13c-2.32-.23-3.62-1.35-3.62-3.3,0-2.26,1.64-3.61,4.37-3.61a7.66,7.66,0,0,1,4.14,1.19.26.26,0,0,1,.05.37l-.47.62a.25.25,0,0,1-.36.08,7.35,7.35,0,0,0-3.44-1c-1.89,0-2.88.83-2.88,2.21,0,1.22.75,1.87,2.86,2.08l1.25.13c2.41.23,3.58,1.4,3.58,3.33,0,2.36-1.66,3.87-4.75,3.87A7.53,7.53,0,0,1,332.78,16.2Z"/><path class="cls-8" d="M349.55,17.76c-2.34,0-3.22-.91-3.22-3.36V6.68a.14.14,0,0,0-.16-.15h-1.3a.25.25,0,0,1-.26-.26V5.54a.24.24,0,0,1,.26-.26h1.3a.14.14,0,0,0,.16-.16V1.56a.24.24,0,0,1,.26-.26h.88a.24.24,0,0,1,.26.26V5.12a.14.14,0,0,0,.16.16h2.34a.25.25,0,0,1,.26.26v.73a.25.25,0,0,1-.26.26h-2.34c-.11,0-.16,0-.16.15v7.65c0,1.66.57,2.08,2,2.08h.5a.25.25,0,0,1,.26.26v.83a.25.25,0,0,1-.26.26Z"/><path class="cls-8" d="M354.07,17.68a.25.25,0,0,1-.26-.26V5.54a.25.25,0,0,1,.26-.26H355a.25.25,0,0,1,.26.26V7.12h0A3.33,3.33,0,0,1,358.57,5a3.87,3.87,0,0,1,2.5.86.2.2,0,0,1,.05.33l-.52.73c-.1.13-.23.13-.39,0a3.6,3.6,0,0,0-2-.62c-2.18,0-3,1.9-3,4.19v6.86a.25.25,0,0,1-.26.26Z"/><path class="cls-8" d="M363.59,22.36a.24.24,0,0,1-.26-.26v-.83a.24.24,0,0,1,.26-.26h.47c1.06,0,1.64-.44,2.34-2.32l.49-1.27L362.32,5.54c-.06-.16,0-.26.18-.26h1c.18,0,.26.08.33.26l3.77,10h0l3.67-10a.3.3,0,0,1,.31-.26h1c.15,0,.23.1.18.26L367.7,18.88c-1.07,2.86-1.95,3.48-3.57,3.48Z"/><path class="cls-8" d="M381.45,14.72a10.36,10.36,0,0,1-.41-3.25,10.22,10.22,0,0,1,.41-3.23,5,5,0,0,1,9.28,0,10.17,10.17,0,0,1,.42,3.23,10.31,10.31,0,0,1-.42,3.25,5,5,0,0,1-9.28,0Zm7.93-.45a8.21,8.21,0,0,0,.34-2.8,8.26,8.26,0,0,0-.34-2.79,3.5,3.5,0,0,0-6.58,0,8.53,8.53,0,0,0-.34,2.79,8.47,8.47,0,0,0,.34,2.8,3.49,3.49,0,0,0,6.58,0Z"/><path class="cls-8" d="M395.52,17.68a.24.24,0,0,1-.26-.26V6.68a.14.14,0,0,0-.16-.15h-1.33a.25.25,0,0,1-.26-.26V5.54a.25.25,0,0,1,.26-.26h1.33a.14.14,0,0,0,.16-.16V3.8c0-3,.93-3.8,3.45-3.8h.73a.24.24,0,0,1,.26.26v.83a.24.24,0,0,1-.26.26h-.54c-1.9,0-2.24.39-2.24,2.26V5.12a.14.14,0,0,0,.16.16h2.62a.24.24,0,0,1,.26.26v.73a.25.25,0,0,1-.26.26h-2.62c-.11,0-.16,0-.16.15V17.42a.24.24,0,0,1-.26.26Z"/><path class="cls-8" d="M1.37,31.46a.24.24,0,0,1,.26-.26H11.74a.24.24,0,0,1,.26.26v.88a.24.24,0,0,1-.26.26H3a.14.14,0,0,0-.16.16v6.29a.14.14,0,0,0,.16.16h7.51a.24.24,0,0,1,.26.26v.88a.24.24,0,0,1-.26.26H3a.14.14,0,0,0-.16.16v6.55a.14.14,0,0,0,.16.16h8.73a.24.24,0,0,1,.26.26v.88a.24.24,0,0,1-.26.26H1.63a.24.24,0,0,1-.26-.26Z"/><path class="cls-8" d="M23.39,48.88a.24.24,0,0,1-.26-.26V47.11h0a3.81,3.81,0,0,1-3.77,2,4,4,0,0,1-4.21-3,10.81,10.81,0,0,1-.44-3.49,10.86,10.86,0,0,1,.44-3.51,4,4,0,0,1,4.21-3,3.81,3.81,0,0,1,3.77,2h0V31.46a.24.24,0,0,1,.26-.26h.88a.25.25,0,0,1,.27.26V48.62a.25.25,0,0,1-.27.26Zm-.6-3.28a8.83,8.83,0,0,0,.34-2.91,9.08,9.08,0,0,0-.34-2.94,3.06,3.06,0,0,0-3.17-2.18,3.08,3.08,0,0,0-3.17,2.18,9.82,9.82,0,0,0-.34,2.94,9.73,9.73,0,0,0,.34,2.91,3.07,3.07,0,0,0,3.17,2.19A3.06,3.06,0,0,0,22.79,45.6Z"/><path class="cls-8" d="M37,48.88a.24.24,0,0,1-.26-.26V47.16h0a3.83,3.83,0,0,1-3.61,2c-2.76,0-4.29-1.72-4.29-4.71V36.74a.24.24,0,0,1,.26-.26H30a.24.24,0,0,1,.26.26v7.33c0,2.5,1,3.72,3.2,3.72a3.23,3.23,0,0,0,3.33-3.46V36.74a.24.24,0,0,1,.26-.26h.88a.24.24,0,0,1,.26.26V48.62a.24.24,0,0,1-.26.26Z"/><path class="cls-8" d="M42.27,39.44a4.56,4.56,0,0,1,4.62-3.22,4.55,4.55,0,0,1,4.19,2.34.23.23,0,0,1-.08.34l-.73.46a.22.22,0,0,1-.33-.1,3.25,3.25,0,0,0-3-1.69,3.18,3.18,0,0,0-3.25,2.34,8.63,8.63,0,0,0-.33,2.78,8.45,8.45,0,0,0,.33,2.76,3.18,3.18,0,0,0,3.25,2.34,3.25,3.25,0,0,0,3-1.69.23.23,0,0,1,.33-.11l.73.47a.23.23,0,0,1,.08.34,4.92,4.92,0,0,1-8.81-.88,10.76,10.76,0,0,1-.39-3.23A10.91,10.91,0,0,1,42.27,39.44Z"/><path class="cls-8" d="M55.34,38.45a.26.26,0,0,1-.39,0l-.44-.65a.27.27,0,0,1,.08-.37,6,6,0,0,1,3.95-1.19c3.23,0,4.53,1.06,4.53,4.11v8.29a.25.25,0,0,1-.27.26H62a.25.25,0,0,1-.26-.26v-1.3h0c-.5,1-1.82,1.82-3.85,1.82-2.5,0-4.16-1.25-4.16-3.67s1.69-3.66,4.7-3.66h3.15a.14.14,0,0,0,.16-.16V40.38c0-2-.7-2.86-3.23-2.86A4.57,4.57,0,0,0,55.34,38.45Zm6.35,6.61v-1.9a.15.15,0,0,0-.16-.16h-3c-2.47,0-3.51.81-3.51,2.45s1.09,2.39,3.07,2.39S61.69,46.75,61.69,45.06Z"/><path class="cls-8" d="M71,49c-2.34,0-3.22-.91-3.22-3.36V37.88a.13.13,0,0,0-.15-.15H66.31a.25.25,0,0,1-.26-.26v-.73a.25.25,0,0,1,.26-.26h1.31c.1,0,.15,0,.15-.16V32.76A.25.25,0,0,1,68,32.5h.88a.24.24,0,0,1,.26.26v3.56a.14.14,0,0,0,.16.16h2.34a.24.24,0,0,1,.26.26v.73a.25.25,0,0,1-.26.26H69.33a.14.14,0,0,0-.16.15v7.65c0,1.66.58,2.08,2,2.08h.49a.24.24,0,0,1,.26.26v.83a.25.25,0,0,1-.26.26Z"/><path class="cls-8" d="M75.39,33.18a.25.25,0,0,1-.26-.26V31.46a.24.24,0,0,1,.26-.26h1.14a.24.24,0,0,1,.26.26v1.46a.25.25,0,0,1-.26.26Zm.13,15.7a.24.24,0,0,1-.26-.26V36.74a.24.24,0,0,1,.26-.26h.88a.24.24,0,0,1,.26.26V48.62a.24.24,0,0,1-.26.26Z"/><path class="cls-8" d="M80.77,45.92a10.31,10.31,0,0,1-.42-3.25,10.17,10.17,0,0,1,.42-3.23,5,5,0,0,1,9.28,0,10.17,10.17,0,0,1,.42,3.23,10.31,10.31,0,0,1-.42,3.25,5,5,0,0,1-9.28,0Zm7.93-.45a8.47,8.47,0,0,0,.34-2.8,8.53,8.53,0,0,0-.34-2.79,3.5,3.5,0,0,0-6.58,0,8.58,8.58,0,0,0-.33,2.79,8.53,8.53,0,0,0,.33,2.8,3.49,3.49,0,0,0,6.58,0Z"/><path class="cls-8" d="M102.46,48.88a.25.25,0,0,1-.27-.26V41.29c0-2.47-1.09-3.72-3.25-3.72A3.26,3.26,0,0,0,95.56,41v7.59a.24.24,0,0,1-.26.26h-.88a.24.24,0,0,1-.26-.26V36.74a.24.24,0,0,1,.26-.26h.88a.24.24,0,0,1,.26.26v1.48h0a3.9,3.9,0,0,1,3.67-2c2.75,0,4.34,1.71,4.34,4.73v7.67a.25.25,0,0,1-.26.26Z"/><path class="cls-8" d="M115.09,38.45a.26.26,0,0,1-.39,0l-.44-.65a.27.27,0,0,1,.07-.37,6,6,0,0,1,4-1.19c3.22,0,4.52,1.06,4.52,4.11v8.29a.24.24,0,0,1-.26.26h-.83a.24.24,0,0,1-.26-.26v-1.3h0c-.49,1-1.82,1.82-3.85,1.82-2.49,0-4.16-1.25-4.16-3.67s1.7-3.66,4.71-3.66h3.15c.1,0,.15-.05.15-.16V40.38c0-2-.7-2.86-3.22-2.86A4.56,4.56,0,0,0,115.09,38.45Zm6.34,6.61v-1.9a.14.14,0,0,0-.15-.16h-3c-2.47,0-3.51.81-3.51,2.45s1.09,2.39,3.07,2.39S121.43,46.75,121.43,45.06Z"/><path class="cls-8" d="M135.47,48.88a.25.25,0,0,1-.26-.26V41.29c0-2.47-1.09-3.72-3.25-3.72A3.25,3.25,0,0,0,128.58,41v7.59a.24.24,0,0,1-.26.26h-.88a.24.24,0,0,1-.26-.26V36.74a.24.24,0,0,1,.26-.26h.88a.24.24,0,0,1,.26.26v1.48h0a3.9,3.9,0,0,1,3.67-2c2.75,0,4.34,1.71,4.34,4.73v7.67a.25.25,0,0,1-.26.26Z"/><path class="cls-8" d="M148.86,48.88a.25.25,0,0,1-.26-.26V47.11h0a3.83,3.83,0,0,1-3.77,2,4,4,0,0,1-4.22-3,11.09,11.09,0,0,1-.44-3.49,11.15,11.15,0,0,1,.44-3.51,4,4,0,0,1,4.22-3,3.83,3.83,0,0,1,3.77,2h0V31.46a.25.25,0,0,1,.26-.26h.89a.25.25,0,0,1,.26.26V48.62a.25.25,0,0,1-.26.26Zm-.6-3.28a8.83,8.83,0,0,0,.34-2.91,9.08,9.08,0,0,0-.34-2.94,3.39,3.39,0,0,0-6.34,0,9.82,9.82,0,0,0-.34,2.94,9.73,9.73,0,0,0,.34,2.91,3.39,3.39,0,0,0,6.34,0Z"/><path class="cls-8" d="M171.2,48.88c-.16,0-.24-.05-.32-.23L167.17,41h-4.81c-.11,0-.16.05-.16.15v7.49a.24.24,0,0,1-.26.26h-1a.24.24,0,0,1-.26-.26V31.46a.24.24,0,0,1,.26-.26h5.93c3.32,0,5.38,1.87,5.38,4.89a4.51,4.51,0,0,1-3.62,4.68l3.85,7.82c.11.16,0,.29-.13.29Zm-.39-12.79c0-2.21-1.41-3.49-3.93-3.49h-4.52a.14.14,0,0,0-.16.16v6.66c0,.1.05.15.16.15h4.52C169.4,39.57,170.81,38.32,170.81,36.09Z"/><path class="cls-8" d="M175.72,45.86a10.37,10.37,0,0,1-.36-3.19,10.81,10.81,0,0,1,.36-3.23,4.92,4.92,0,0,1,9.23,0,9.88,9.88,0,0,1,.36,3.3A.25.25,0,0,1,185,43h-8.09c-.1,0-.15.08-.15.19a6.79,6.79,0,0,0,.25,2.18,3.44,3.44,0,0,0,3.52,2.42A4.21,4.21,0,0,0,184,46.2a.24.24,0,0,1,.37-.05l.6.55a.22.22,0,0,1,0,.36,5.48,5.48,0,0,1-4.52,2.08A4.58,4.58,0,0,1,175.72,45.86Zm8-4c.1,0,.15-.05.15-.16a5.64,5.64,0,0,0-.23-1.79,3.52,3.52,0,0,0-6.63,0,5.64,5.64,0,0,0-.23,1.79c0,.11.05.16.15.16Z"/><path class="cls-8" d="M188,47.4a.25.25,0,0,1,0-.37l.57-.65a.29.29,0,0,1,.36,0,6.41,6.41,0,0,0,4,1.46c2.16,0,3.23-1,3.23-2.39,0-1.25-.55-1.93-2.84-2.19l-1.24-.13c-2.32-.23-3.62-1.35-3.62-3.3,0-2.26,1.64-3.61,4.37-3.61A7.6,7.6,0,0,1,197,37.41a.27.27,0,0,1,.06.37l-.47.62a.26.26,0,0,1-.37.08,7.27,7.27,0,0,0-3.43-1c-1.9,0-2.88.83-2.88,2.21,0,1.22.75,1.87,2.86,2.08l1.24.13c2.42.23,3.59,1.4,3.59,3.33,0,2.36-1.66,3.87-4.76,3.87A7.52,7.52,0,0,1,188,47.4Z"/><path class="cls-8" d="M200.76,45.86a10,10,0,0,1-.37-3.19,10.42,10.42,0,0,1,.37-3.23,4.92,4.92,0,0,1,9.23,0,9.88,9.88,0,0,1,.36,3.3.25.25,0,0,1-.28.26H202c-.1,0-.16.08-.16.19a6.74,6.74,0,0,0,.26,2.18,3.43,3.43,0,0,0,3.51,2.42,4.23,4.23,0,0,0,3.46-1.59.24.24,0,0,1,.37-.05l.59.55a.23.23,0,0,1,0,.36,5.48,5.48,0,0,1-4.52,2.08A4.58,4.58,0,0,1,200.76,45.86Zm8-4c.1,0,.15-.05.15-.16a5.94,5.94,0,0,0-.23-1.79,3.52,3.52,0,0,0-6.63,0,5.61,5.61,0,0,0-.24,1.79.14.14,0,0,0,.16.16Z"/><path class="cls-8" d="M215,38.45a.25.25,0,0,1-.38,0l-.45-.65a.27.27,0,0,1,.08-.37,6,6,0,0,1,3.95-1.19c3.23,0,4.53,1.06,4.53,4.11v8.29a.25.25,0,0,1-.26.26h-.84a.24.24,0,0,1-.25-.26v-1.3h0c-.49,1-1.82,1.82-3.85,1.82-2.5,0-4.16-1.25-4.16-3.67s1.69-3.66,4.71-3.66h3.14a.14.14,0,0,0,.16-.16V40.38c0-2-.7-2.86-3.22-2.86A4.58,4.58,0,0,0,215,38.45Zm6.35,6.61v-1.9a.14.14,0,0,0-.16-.16h-3c-2.47,0-3.51.81-3.51,2.45s1.09,2.39,3.07,2.39C219.92,47.84,221.35,46.75,221.35,45.06Z"/><path class="cls-8" d="M227.35,48.88a.25.25,0,0,1-.26-.26V36.74a.25.25,0,0,1,.26-.26h.89a.25.25,0,0,1,.26.26v1.58h0a3.33,3.33,0,0,1,3.33-2.1,3.87,3.87,0,0,1,2.5.86.2.2,0,0,1,.05.33l-.52.73c-.1.13-.23.13-.39,0a3.6,3.6,0,0,0-2-.62c-2.18,0-3,1.9-3,4.19v6.86a.25.25,0,0,1-.26.26Z"/><path class="cls-8" d="M236.22,39.44a4.92,4.92,0,0,1,8.81-.88.23.23,0,0,1-.07.34l-.73.46a.23.23,0,0,1-.34-.1,3.25,3.25,0,0,0-3-1.69,3.18,3.18,0,0,0-3.25,2.34,8.31,8.31,0,0,0-.34,2.78,8.14,8.14,0,0,0,.34,2.76,3.18,3.18,0,0,0,3.25,2.34,3.25,3.25,0,0,0,3-1.69.25.25,0,0,1,.34-.11l.73.47a.23.23,0,0,1,.07.34,4.52,4.52,0,0,1-4.18,2.34,4.57,4.57,0,0,1-4.63-3.22,11.09,11.09,0,0,1-.39-3.23A11.25,11.25,0,0,1,236.22,39.44Z"/><path class="cls-8" d="M256.92,48.88a.24.24,0,0,1-.26-.26V41.29c0-2.47-1.1-3.72-3.25-3.72A3.25,3.25,0,0,0,250,41v7.59a.25.25,0,0,1-.26.26h-.89a.25.25,0,0,1-.26-.26V31.46a.25.25,0,0,1,.26-.26h.89a.25.25,0,0,1,.26.26v6.76h0a3.92,3.92,0,0,1,3.67-2c2.75,0,4.34,1.71,4.34,4.73v7.67a.24.24,0,0,1-.26.26Z"/></g></svg>