<?xml version="1.0" encoding="UTF-8" standalone="no"?>
<!-- Created with Inkscape (http://www.inkscape.org/) -->

<svg
   width="26.616596mm"
   height="15.51852mm"
   viewBox="0 0 26.616596 15.51852"
   version="1.1"
   id="svg5"
   xml:space="preserve"
   inkscape:version="1.2.2 (732a01da63, 2022-12-09)"
   sodipodi:docname="LogoBMBF.svg"
   xmlns:inkscape="http://www.inkscape.org/namespaces/inkscape"
   xmlns:sodipodi="http://sodipodi.sourceforge.net/DTD/sodipodi-0.dtd"
   xmlns="http://www.w3.org/2000/svg"
   xmlns:svg="http://www.w3.org/2000/svg"><sodipodi:namedview
     id="namedview7"
     pagecolor="#505050"
     bordercolor="#eeeeee"
     borderopacity="1"
     inkscape:showpageshadow="0"
     inkscape:pageopacity="0"
     inkscape:pagecheckerboard="0"
     inkscape:deskcolor="#505050"
     inkscape:document-units="mm"
     showgrid="false"
     inkscape:zoom="8"
     inkscape:cx="28.9375"
     inkscape:cy="1.5"
     inkscape:window-width="2560"
     inkscape:window-height="1360"
     inkscape:window-x="2869"
     inkscape:window-y="303"
     inkscape:window-maximized="1"
     inkscape:current-layer="layer1" /><defs
     id="defs2" /><g
     inkscape:label="Layer 1"
     inkscape:groupmode="layer"
     id="layer1"
     transform="translate(-82.012844,-176.3396)"><path
       style="fill:#000000;stroke-width:0.0264583"
       d="m 89.008801,191.84643 c -0.0061,-0.006 -0.01102,-2.14621 -0.01102,-4.75588 v -4.74486 h 0.440939 0.44094 l -0.01761,3.57626 c -0.0097,1.96694 -0.01761,4.10709 -0.01761,4.75589 v 1.17962 h -0.412309 c -0.22677,0 -0.41727,-0.005 -0.423333,-0.011 z m 2.61561,-1.94391 c -0.09189,-0.0842 -0.09843,-0.1008 -0.108245,-0.27453 -0.01958,-0.34642 0.110104,-0.47545 0.505055,-0.50252 l 0.209966,-0.0144 -0.01731,-0.10848 c -0.03091,-0.19368 -0.08949,-0.24414 -0.265993,-0.22913 -0.06077,0.005 -0.171979,0.11836 -0.171979,0.17505 0,0.0278 -0.03336,0.0382 -0.122525,0.0382 h -0.122527 l 0.01507,-0.0929 c 0.03632,-0.22379 0.190281,-0.31672 0.496134,-0.29943 0.196782,0.0111 0.303295,0.0653 0.359738,0.183 0.01911,0.0399 0.03416,0.27469 0.04012,0.62601 l 0.0095,0.56224 h -0.112878 c -0.103963,0 -0.112879,-0.005 -0.112879,-0.0689 v -0.0689 l -0.09352,0.0821 c -0.08231,0.0723 -0.112499,0.0821 -0.251742,0.0821 -0.142932,0 -0.167666,-0.009 -0.256015,-0.0896 z m 0.436796,-0.13688 c 0.08099,-0.0567 0.128383,-0.15819 0.150638,-0.3225 l 0.01881,-0.13891 h -0.136088 c -0.234558,0 -0.356546,0.10116 -0.350059,0.29029 0.0058,0.16889 0.183101,0.2647 0.316695,0.17112 z m 2.300061,0.16986 c -0.04053,-0.0302 -0.10005,-0.10427 -0.13226,-0.16452 -0.05243,-0.0981 -0.05857,-0.14833 -0.0586,-0.47998 -2.6e-5,-0.33284 0.0061,-0.38292 0.06067,-0.49363 0.0727,-0.14758 0.179919,-0.20752 0.371215,-0.20752 0.104352,0 0.150354,0.0147 0.214283,0.0685 l 0.08141,0.0685 v -0.34631 -0.34631 h 0.119063 0.119062 v 0.96573 0.96573 h -0.119062 c -0.103113,0 -0.119063,-0.007 -0.119063,-0.0553 0,-0.0532 -0.0031,-0.0527 -0.08141,0.0132 -0.107426,0.0904 -0.34183,0.0965 -0.455312,0.0119 z m 0.423968,-0.16903 c 0.07952,-0.0557 0.112454,-0.19495 0.112454,-0.47547 0,-0.38572 -0.06359,-0.51594 -0.251957,-0.51594 -0.103304,0 -0.187079,0.0771 -0.222559,0.20488 -0.03541,0.12751 -0.03563,0.49381 -3.81e-4,0.62074 0.04894,0.1762 0.229598,0.25884 0.362442,0.16579 z m 3.034505,0.17559 c -0.0862,-0.0392 -0.11904,-0.0752 -0.16442,-0.18072 -0.10852,-0.25226 -0.1,-0.82988 0.0146,-0.98327 0.10268,-0.13752 0.18272,-0.17427 0.39828,-0.18283 0.247,-0.01 0.36002,0.0387 0.43579,0.18689 0.0529,0.1035 0.11372,0.49641 0.0874,0.56489 -0.0123,0.0322 -0.0798,0.0385 -0.37916,0.0355 l -0.36414,-0.004 0.004,0.13478 c 0.005,0.17264 0.061,0.2592 0.18373,0.28222 0.11827,0.0222 0.22408,-0.0465 0.26127,-0.16967 0.0238,-0.079 0.0327,-0.0838 0.15213,-0.0838 0.12082,0 0.1268,0.003 0.12639,0.0728 -6.5e-4,0.10819 -0.10611,0.27226 -0.21082,0.32798 -0.12383,0.0659 -0.3985,0.0654 -0.5447,-10e-4 z m 0.49995,-0.89175 c -0.006,-0.16074 -0.0763,-0.25905 -0.19345,-0.27058 -0.14878,-0.0146 -0.2028,0.0131 -0.24872,0.12792 -0.0398,0.0996 -0.0567,0.24141 -0.0316,0.26649 0.006,0.006 0.11618,0.009 0.24473,0.006 l 0.23374,-0.005 z m 0.75924,0.89549 c -0.11678,-0.0587 -0.2122,-0.2002 -0.2122,-0.31475 v -0.0887 h 0.1323 c 0.1241,0 0.13229,0.004 0.13229,0.0674 0,0.0862 0.11036,0.19724 0.19599,0.19724 0.15725,0 0.27174,-0.12607 0.2277,-0.25073 -0.0108,-0.0306 -0.13163,-0.11314 -0.2909,-0.19879 -0.31173,-0.16766 -0.38355,-0.25407 -0.36117,-0.43455 0.0267,-0.21541 0.18946,-0.33291 0.4612,-0.33297 0.25871,-6e-5 0.42864,0.12196 0.42864,0.30779 0,0.0879 -0.001,0.089 -0.11907,0.089 -0.083,0 -0.11906,-0.0109 -0.11906,-0.0361 0,-0.0199 -0.0247,-0.0675 -0.0548,-0.10583 -0.0418,-0.0531 -0.0784,-0.0697 -0.15369,-0.0697 -0.13977,0 -0.1945,0.0476 -0.18382,0.15992 0.008,0.0858 0.0232,0.0989 0.2413,0.21209 0.12793,0.0664 0.27038,0.15844 0.31655,0.20462 0.0732,0.0732 0.084,0.10193 0.084,0.22438 0,0.17192 -0.0674,0.29794 -0.19613,0.36678 -0.12227,0.0654 -0.4017,0.0669 -0.52905,0.003 z m 1.280459,0.009 c -0.19011,-0.0828 -0.25854,-0.26721 -0.2576,-0.69432 5.7e-4,-0.25808 0.009,-0.31133 0.0641,-0.42195 0.0939,-0.18741 0.17255,-0.23337 0.41581,-0.24303 0.36929,-0.0147 0.49973,0.12511 0.51349,0.55024 l 0.007,0.22489 -0.37042,0.005 -0.37042,0.005 0.006,0.13776 c 0.008,0.1729 0.0599,0.25492 0.17612,0.27672 0.14152,0.0265 0.27818,-0.0677 0.27995,-0.193 7.7e-4,-0.0539 0.0137,-0.0595 0.13662,-0.0595 h 0.13578 l -0.0148,0.11016 c -0.0299,0.22314 -0.19183,0.34026 -0.46803,0.3386 -0.0948,-5.7e-4 -0.20912,-0.017 -0.25402,-0.0366 z m 0.48711,-0.80847 c 0.0215,-0.0644 -0.0264,-0.26008 -0.0768,-0.31422 -0.0799,-0.0858 -0.26719,-0.0796 -0.33862,0.0112 -0.0523,0.0664 -0.10137,0.27714 -0.0747,0.32037 0.0211,0.0342 0.47833,0.018 0.49013,-0.0174 z m 0.72478,0.78074 c -0.10049,-0.0846 -0.14868,-0.23846 -0.1313,-0.41931 0.0233,-0.24234 0.18345,-0.3618 0.51349,-0.38298 l 0.1941,-0.0125 -1.1e-4,-0.0825 c -1.3e-4,-0.11347 -0.0899,-0.25372 -0.16488,-0.25753 -0.16578,-0.008 -0.25835,0.0463 -0.25835,0.15266 0,0.057 -0.011,0.062 -0.13516,0.062 -0.13393,0 -0.13501,-6.6e-4 -0.11815,-0.0728 0.037,-0.15841 0.0786,-0.22257 0.17667,-0.27259 0.13727,-0.07 0.41216,-0.0704 0.54873,-7.3e-4 0.16097,0.0821 0.17292,0.13164 0.18402,0.7628 l 0.01,0.56224 h -0.12133 c -0.11732,0 -0.12133,-0.003 -0.12133,-0.0798 v -0.0798 l -0.0759,0.0849 c -0.0676,0.0757 -0.0944,0.0861 -0.24606,0.0958 -0.15413,0.01 -0.17812,0.004 -0.25435,-0.06 z m 0.41611,-0.15882 c 0.0834,-0.0431 0.16018,-0.22336 0.16018,-0.37587 v -0.0879 h -0.13361 c -0.1472,0 -0.2734,0.0523 -0.3154,0.13083 -0.05,0.0934 -0.0324,0.23685 0.0377,0.30693 0.0744,0.0744 0.14368,0.0816 0.25113,0.026 z m 1.93247,0.17604 c -0.061,-0.0318 -0.11458,-0.0923 -0.15833,-0.17859 -0.058,-0.11433 -0.067,-0.16979 -0.073,-0.44798 -0.006,-0.27897 3.7e-4,-0.33507 0.0529,-0.46222 0.08,-0.19361 0.19909,-0.26433 0.44614,-0.26495 0.23602,-5.9e-4 0.33614,0.0648 0.40197,0.26245 0.0622,0.18682 0.0481,0.21854 -0.0926,0.20828 -0.1028,-0.007 -0.11315,-0.0151 -0.12941,-0.0952 -0.0397,-0.19561 -0.20505,-0.2518 -0.34098,-0.11586 -0.0897,0.0898 -0.12248,0.28225 -0.0961,0.56561 0.0251,0.27049 0.10357,0.39139 0.25392,0.39139 0.0843,0 0.18575,-0.11576 0.18575,-0.21192 0,-0.0813 0.001,-0.082 0.12567,-0.074 0.10231,0.007 0.12705,0.0179 0.13305,0.061 0.0117,0.084 -0.10483,0.28505 -0.2031,0.35036 -0.11607,0.0771 -0.36916,0.083 -0.50583,0.0116 z m -11.059458,-0.55407 c -1.59e-4,-0.31651 -0.0077,-0.62012 -0.01669,-0.67469 l -0.0164,-0.0992 h 0.135754 c 0.130261,0 0.135786,0.003 0.136558,0.0728 6.88e-4,0.0622 0.0047,0.066 0.02777,0.0265 0.06997,-0.12013 0.369159,-0.16764 0.530446,-0.0842 0.137931,0.0713 0.155351,0.15856 0.155351,0.77791 v 0.55648 H 93.7089 93.604609 l -0.0082,-0.53151 -0.0082,-0.53151 -0.07424,-0.0638 c -0.07865,-0.0676 -0.197809,-0.0829 -0.284417,-0.0366 -0.112675,0.0603 -0.130827,0.15362 -0.130827,0.67258 v 0.4908 h -0.118969 -0.119063 l -2.91e-4,-0.57547 z m 3.281129,-0.39026 v -0.96573 h 0.4039 c 0.45179,0 0.53791,0.0242 0.64537,0.18157 0.0719,0.10533 0.10102,0.30843 0.0639,0.44629 -0.0297,0.11015 -0.13596,0.23754 -0.22624,0.27112 -0.0474,0.0176 -0.0443,0.0236 0.0323,0.0632 0.0465,0.0241 0.098,0.0688 0.11437,0.0994 0.0164,0.0306 0.0461,0.21901 0.0661,0.41875 0.02,0.19974 0.044,0.38297 0.0532,0.40716 0.0145,0.0378 -0.004,0.044 -0.12984,0.044 h -0.14673 l -0.013,-0.11245 c -0.007,-0.0618 -0.024,-0.23067 -0.0375,-0.37517 -0.0222,-0.23738 -0.0315,-0.26864 -0.096,-0.32411 -0.0617,-0.0531 -0.0999,-0.0614 -0.28157,-0.0614 h -0.21019 v 0.43656 0.43657 h -0.11907 -0.11906 z m 0.77627,-0.21463 c 0.12286,-0.12287 0.12556,-0.31355 0.006,-0.45219 -0.0607,-0.0707 -0.0742,-0.074 -0.29747,-0.074 h -0.23385 l -0.008,0.29765 -0.007,0.29766 h 0.23538 c 0.21849,0 0.24034,-0.005 0.3045,-0.0691 z m 5.864769,0.50567 v -0.67469 h 0.11906 c 0.11479,0 0.11906,0.003 0.11906,0.0798 v 0.0798 l 0.0743,-0.0832 c 0.0604,-0.0676 0.10001,-0.0857 0.21167,-0.0964 l 0.13733,-0.0132 v 0.12177 c 0,0.1201 -0.001,0.12156 -0.0763,0.1065 -0.10083,-0.0202 -0.25039,0.0523 -0.29622,0.14354 -0.0249,0.0496 -0.0388,0.2153 -0.0455,0.54112 l -0.01,0.46964 h -0.11692 -0.11692 z m 2.2225,-0.29104 v -0.96573 h 0.11906 0.11906 l 8.1e-4,0.3638 c 5.7e-4,0.2601 0.008,0.3506 0.0278,0.3175 0.11121,-0.19095 0.58216,-0.15667 0.65999,0.048 0.0142,0.0373 0.0258,0.32306 0.0258,0.63499 v 0.56713 h -0.10384 -0.10385 l -0.009,-0.53151 -0.009,-0.5315 -0.0742,-0.0638 c -0.0786,-0.0676 -0.1978,-0.0829 -0.28442,-0.0366 -0.11267,0.0603 -0.13082,0.15362 -0.13082,0.67258 v 0.4908 h -0.11907 -0.11906 z m -20.258412,-1.7271 c -0.01706,-0.0109 -0.06046,-0.0716 -0.09646,-0.13495 -0.05801,-0.10214 -0.06744,-0.10895 -0.083,-0.0599 -0.0219,0.069 -0.137979,0.16251 -0.201723,0.16251 -0.02633,0 -0.08031,-0.0279 -0.119963,-0.062 l -0.07209,-0.062 0.08444,-0.0499 c 0.103423,-0.0611 0.195714,-0.1931 0.257631,-0.3685 0.0539,-0.15267 0.09033,-1.01864 0.04286,-1.01864 -0.03701,0 -0.133502,0.2147 -0.15394,0.34251 -0.01945,0.12163 -0.04018,0.13239 -0.09528,0.0494 -0.0378,-0.0569 -0.04021,-0.0554 -0.148748,0.0915 -0.06068,0.0821 -0.110325,0.15733 -0.110325,0.16711 0,0.01 0.05954,0.01 0.132321,2.1e-4 0.07857,-0.0104 0.153807,-0.006 0.185208,0.0108 0.07045,0.0377 0.06746,0.13886 -0.0066,0.22488 -0.05878,0.0682 -0.06082,0.0686 -0.161434,0.0265 -0.05605,-0.0234 -0.13939,-0.039 -0.185208,-0.0345 l -0.08331,0.008 0.0025,0.16367 c 0.0016,0.10589 0.01833,0.18789 0.0474,0.23226 0.05873,0.0896 0.03607,0.12001 -0.08955,0.12001 -0.123555,0 -0.14098,-0.0233 -0.158486,-0.21167 l -0.01352,-0.14552 -0.07275,0.12139 c -0.04001,0.0668 -0.07275,0.14118 -0.07275,0.16536 0,0.06 -0.06799,0.0554 -0.132292,-0.009 -0.07962,-0.0796 -0.06635,-0.19001 0.03951,-0.3287 0.07824,-0.1025 0.08488,-0.12109 0.04326,-0.12109 -0.02705,0 -0.07972,0.024 -0.117053,0.0534 l -0.06788,0.0534 -0.04152,-0.0593 c -0.02284,-0.0326 -0.04152,-0.10346 -0.04152,-0.15744 0,-0.12117 0.03716,-0.13661 0.298392,-0.12403 l 0.188332,0.009 0.140284,-0.20924 c 0.07716,-0.11507 0.140284,-0.21925 0.140284,-0.23151 0,-0.0122 -0.04862,-0.0223 -0.108043,-0.0223 h -0.108042 l 0.189121,-0.20506 c 0.245882,-0.26659 0.372812,-0.51636 0.390902,-0.76919 0.02473,-0.34558 -0.0054,-0.32634 -0.351408,0.22429 -0.172308,0.27423 -0.371058,0.58975 -0.441666,0.70115 -0.221211,0.34903 -0.397812,0.47164 -0.679841,0.47199 l -0.116788,1.6e-4 0.170952,-0.17859 c 0.211681,-0.22115 0.21676,-0.22842 0.678271,-0.97089 0.319441,-0.51391 0.370948,-0.61103 0.334794,-0.63126 -0.02352,-0.0132 -0.05169,-0.0138 -0.06267,-0.001 -0.01097,0.0124 -0.171878,0.26666 -0.357575,0.56498 -0.185698,0.29831 -0.367039,0.58156 -0.402981,0.62942 -0.114018,0.15185 -0.243185,0.21789 -0.461137,0.23575 l -0.195242,0.016 0.13802,-0.12475 c 0.07591,-0.0686 0.214877,-0.24008 0.308813,-0.38106 0.222236,-0.33352 0.677646,-1.06708 0.677646,-1.09154 0,-0.0281 -0.09038,-0.0578 -0.09884,-0.0324 -0.02273,0.0682 -0.606288,0.96098 -0.674551,1.03199 -0.115279,0.11993 -0.229304,0.16639 -0.408336,0.16639 h -0.155082 l 0.173713,-0.18074 c 0.117625,-0.12238 0.278564,-0.34995 0.498448,-0.70479 0.283722,-0.45787 0.319888,-0.5289 0.286358,-0.56243 -0.03353,-0.0335 -0.05111,-0.0172 -0.139196,0.12932 -0.167125,0.27799 -0.398398,0.61384 -0.465346,0.67576 -0.09633,0.0891 -0.243799,0.14017 -0.404791,0.14017 h -0.145779 l 0.119152,-0.10983 c 0.155244,-0.1431 0.264481,-0.29251 0.55655,-0.76125 0.215982,-0.34663 0.269682,-0.4783 0.19507,-0.4783 -0.0118,0 -0.06491,0.0715 -0.118017,0.15896 -0.144358,0.23764 -0.293962,0.41648 -0.390268,0.46653 -0.04722,0.0245 -0.166224,0.0521 -0.264451,0.0612 -0.09823,0.009 -0.178594,0.016 -0.178594,0.0153 0,-6.9e-4 0.07519,-0.0798 0.167085,-0.17589 0.194883,-0.20371 0.694168,-0.97611 0.76201,-1.17884 0.05953,-0.17791 0.09129,-0.23715 0.197753,-0.36895 0.08791,-0.10882 0.08793,-0.10893 0.02958,-0.1359 -0.05654,-0.0261 -0.05587,-0.0276 0.02097,-0.0442 0.04366,-0.009 0.194679,-0.0465 0.335606,-0.0824 0.140928,-0.0358 0.291882,-0.0651 0.335454,-0.0651 0.152184,0 0.217251,0.15848 0.107172,0.26104 -0.06399,0.0596 -0.204148,0.0919 -0.297415,0.0685 -0.05778,-0.0145 -0.07253,-3.4e-4 -0.137127,0.13169 -0.164889,0.33702 -5.28e-4,0.6453 0.40856,0.76629 0.07904,0.0234 0.180243,0.0425 0.224896,0.0424 0.07168,-8e-5 0.08711,-0.0145 0.131762,-0.12305 0.02782,-0.0676 0.106948,-0.19651 0.17585,-0.28641 l 0.125276,-0.16345 -0.08788,-0.0473 c -0.104852,-0.0565 -0.240541,-0.19229 -0.216309,-0.21652 0.0095,-0.009 0.08995,0.003 0.178865,0.0282 0.08892,0.0249 0.181517,0.037 0.205773,0.0269 0.02929,-0.0123 -0.02244,-0.0353 -0.154068,-0.0686 -0.172489,-0.0436 -0.325499,-0.13066 -0.28984,-0.16484 0.0065,-0.006 0.08558,0.007 0.175799,0.0291 0.233287,0.0574 0.308685,0.0169 0.189888,-0.10189 -0.04825,-0.0483 -0.07584,-0.0539 -0.195605,-0.0398 l -0.139429,0.0164 -0.04354,-0.10882 c -0.03959,-0.099 -0.03979,-0.11454 -0.0022,-0.17188 0.04242,-0.0647 0.102405,-0.0771 0.312336,-0.0644 0.05514,0.003 0.116717,-0.008 0.136833,-0.0243 0.02755,-0.0229 0.115464,-0.0221 0.356371,0.003 0.314263,0.0331 0.318927,0.0345 0.269492,0.0839 -0.04944,0.0494 -0.04939,0.0524 0.0027,0.1701 0.06334,0.14318 0.05272,0.27346 -0.04592,0.56346 -0.08522,0.25055 -0.08381,0.36817 0.0064,0.53392 l 0.07206,0.13241 0.153895,-0.0161 c 0.29974,-0.0313 0.568936,-0.22192 0.629422,-0.44564 0.03182,-0.11768 0.01438,-0.20348 -0.0757,-0.37246 -0.06091,-0.11426 -0.07467,-0.12516 -0.139941,-0.11083 -0.196504,0.0432 -0.397767,-0.10439 -0.333822,-0.24474 0.04982,-0.10934 0.195107,-0.11148 0.5201,-0.008 0.09193,0.0294 0.206556,0.0534 0.254734,0.0534 0.103293,0 0.141904,0.0415 0.06216,0.0668 -0.05568,0.0177 -0.05566,0.0179 0.008,0.0879 0.09445,0.10388 0.149593,0.20082 0.218721,0.38447 0.06526,0.17339 0.445383,0.79981 0.637563,1.05067 0.06231,0.0813 0.155734,0.18515 0.20762,0.2307 0.05189,0.0456 0.09434,0.0866 0.09434,0.0913 0,0.022 -0.365146,-0.0284 -0.423333,-0.0585 -0.116062,-0.06 -0.211928,-0.16747 -0.350072,-0.39256 -0.07403,-0.12063 -0.144019,-0.22514 -0.155523,-0.23225 -0.0115,-0.007 -0.0319,0.008 -0.04533,0.0341 -0.01893,0.0365 0.01645,0.11224 0.157601,0.33744 0.337558,0.53856 0.399833,0.62743 0.5586,0.79715 l 0.158292,0.16922 h -0.136175 c -0.15987,0 -0.303338,-0.054 -0.407829,-0.15354 -0.0412,-0.0393 -0.18282,-0.24185 -0.314702,-0.45024 -0.212405,-0.33562 -0.244286,-0.37439 -0.2792,-0.33947 -0.03491,0.0349 -0.0307,0.0532 0.03689,0.16018 0.04197,0.0664 0.189414,0.30227 0.327658,0.52409 0.141466,0.22699 0.325051,0.48165 0.419924,0.5825 l 0.16857,0.17919 h -0.14978 c -0.27435,0 -0.386081,-0.0909 -0.676838,-0.55096 -0.09459,-0.14964 -0.228014,-0.36057 -0.296502,-0.46872 -0.09237,-0.14585 -0.135461,-0.19243 -0.166885,-0.18038 -0.02428,0.009 -0.03587,0.0332 -0.02715,0.0559 0.02906,0.0757 0.682513,1.10514 0.776671,1.22352 0.05209,0.0655 0.148652,0.16967 0.214591,0.23151 l 0.119889,0.11245 -0.118486,-1.6e-4 c -0.153218,-1.8e-4 -0.288212,-0.0385 -0.396696,-0.11257 -0.104544,-0.0714 -0.213509,-0.2261 -0.605454,-0.85962 -0.164305,-0.26558 -0.30654,-0.48269 -0.316077,-0.48246 -0.0095,2.1e-4 -0.03283,0.0102 -0.05176,0.0222 -0.0258,0.0164 0.01975,0.10736 0.181896,0.3634 0.118971,0.18786 0.270587,0.43086 0.336925,0.54 0.249628,0.4107 0.309881,0.49452 0.492408,0.68502 l 0.187353,0.19553 -0.177848,-0.0159 c -0.333015,-0.0297 -0.383376,-0.0816 -0.933402,-0.96189 -0.232834,-0.37264 -0.43524,-0.67882 -0.449792,-0.6804 -0.01455,-0.002 -0.03002,0.0722 -0.03438,0.16407 -0.01342,0.28291 0.124196,0.57681 0.413869,0.88387 l 0.169314,0.17949 h -0.109039 c -0.05997,0 -0.109038,0.01 -0.109038,0.0223 0,0.0123 0.06309,0.11644 0.140189,0.23151 l 0.140188,0.20924 0.183926,-0.007 c 0.269787,-0.0104 0.302989,0.002 0.302989,0.11514 0,0.0779 -0.03014,0.17448 -0.06834,0.21906 -0.0045,0.005 -0.04025,-0.0155 -0.07936,-0.0463 -0.07426,-0.0584 -0.169804,-0.075 -0.169804,-0.0295 0,0.0145 0.01029,0.0265 0.02286,0.0265 0.0413,0 0.162348,0.19982 0.162348,0.26801 0,0.0753 -0.09878,0.18178 -0.168631,0.18178 -0.02539,0 -0.0386,-0.0122 -0.02936,-0.0272 0.01994,-0.0323 -0.08703,-0.26386 -0.121871,-0.26386 -0.01325,0 -0.0241,0.0484 -0.0241,0.10757 0,0.15365 -0.03761,0.21001 -0.139837,0.20952 -0.04678,-2.1e-4 -0.102445,-0.0114 -0.123695,-0.0248 -0.03333,-0.0211 -0.03242,-0.0313 0.0066,-0.0744 0.03401,-0.0376 0.04525,-0.0981 0.04525,-0.24342 v -0.19343 l -0.135093,0.016 c -0.0743,0.009 -0.153055,0.0309 -0.175009,0.0491 -0.03313,0.0275 -0.05066,0.0206 -0.103033,-0.0402 -0.07375,-0.0857 -0.08023,-0.15536 -0.02005,-0.21554 0.03444,-0.0344 0.07228,-0.0394 0.188942,-0.0248 0.120233,0.015 0.142109,0.0118 0.124417,-0.0184 -0.02351,-0.0401 -0.173991,-0.26766 -0.189336,-0.28635 -0.0053,-0.006 -0.02781,0.0144 -0.05013,0.0463 -0.02232,0.0319 -0.04917,0.0579 -0.05968,0.0579 -0.0105,0 -0.04019,-0.0819 -0.06597,-0.18197 -0.04904,-0.19038 -0.105121,-0.29511 -0.139567,-0.26067 -0.04128,0.0413 -0.02274,0.68712 0.02525,0.8792 0.05861,0.23463 0.166481,0.42971 0.268537,0.48566 0.04366,0.0239 0.08467,0.0468 0.09113,0.0509 0.02586,0.0162 -0.09572,0.1095 -0.164529,0.1263 -0.06175,0.0151 -0.08782,0.003 -0.164297,-0.0785 l -0.0909,-0.0964 -0.04014,0.0776 c -0.04279,0.0828 -0.112903,0.16227 -0.142481,0.1616 -0.0099,-2.1e-4 -0.03191,-0.009 -0.04897,-0.0201 z m -0.843802,-0.29035 c -0.01132,-0.0255 -0.02572,-0.14453 -0.032,-0.26458 l -0.01142,-0.21828 h 0.163204 c 0.08976,0 0.18553,0.0119 0.212816,0.0266 0.03917,0.021 0.05806,0.0145 0.08976,-0.0308 0.06303,-0.09 0.02661,-0.10714 -0.185335,-0.0873 -0.107603,0.0101 -0.195642,0.0104 -0.195642,6.9e-4 0,-0.0342 0.08838,-0.1886 0.192818,-0.33696 0.06716,-0.0954 0.09944,-0.16589 0.08874,-0.19378 -0.02778,-0.0724 -0.101597,-0.0338 -0.165139,0.0864 -0.03289,0.0622 -0.113889,0.1889 -0.179996,0.28154 l -0.120194,0.16844 -0.225616,-0.0141 -0.225616,-0.0141 v 0.0655 c 0,0.0928 0.01459,0.0986 0.139048,0.0558 0.06515,-0.0224 0.147202,-0.0312 0.199585,-0.0214 l 0.08895,0.0167 -0.117595,0.12572 c -0.159128,0.17012 -0.187503,0.22666 -0.149438,0.29779 0.02871,0.0536 0.03228,0.0515 0.07621,-0.0463 0.05076,-0.11298 0.177514,-0.27456 0.215377,-0.27456 0.01326,0 0.02411,0.0647 0.02411,0.1438 0,0.17296 0.03614,0.27953 0.09478,0.27953 0.03132,0 0.03752,-0.0127 0.02259,-0.0463 z m 1.858828,0.0132 c 0.01177,-0.0182 0.02736,-0.11642 0.03463,-0.21828 l 0.01323,-0.18521 0.08998,0.0926 c 0.04949,0.0509 0.110765,0.13877 0.136174,0.19519 0.04404,0.0978 0.04761,0.1 0.07632,0.0463 0.03901,-0.0729 0.0072,-0.1361 -0.150524,-0.29913 l -0.119751,-0.12377 0.09819,-0.0184 c 0.06488,-0.0122 0.132874,-0.005 0.200434,0.0217 0.08985,0.0353 0.104057,0.0354 0.117221,0.001 0.04277,-0.11145 0.02522,-0.1204 -0.216531,-0.11042 l -0.231511,0.01 -0.152152,-0.22489 c -0.08368,-0.1237 -0.159389,-0.25169 -0.168233,-0.28443 -0.01803,-0.0667 -0.09352,-0.079 -0.140179,-0.0228 -0.02383,0.0287 -0.0157,0.0543 0.03732,0.1173 0.0798,0.0948 0.251268,0.37447 0.251268,0.40977 0,0.0145 -0.08093,0.0169 -0.198437,0.006 -0.185864,-0.0174 -0.198438,-0.0153 -0.198438,0.0333 0,0.0702 0.05722,0.11507 0.106721,0.0838 0.02134,-0.0135 0.114707,-0.0247 0.207482,-0.0249 l 0.168683,-4e-4 -0.01303,0.21828 c -0.0072,0.12005 -0.02184,0.23911 -0.03261,0.26458 -0.02319,0.0549 0.04938,0.0663 0.08375,0.0132 z m -1.552866,-3.0595 v -0.12925 l -0.140399,-0.0175 c -0.405491,-0.0507 -0.759262,-0.39092 -0.758345,-0.72939 3.47e-4,-0.128 0.06929,-0.30812 0.140488,-0.36704 0.02414,-0.02 0.04388,-0.0488 0.04388,-0.0641 0,-0.0538 -0.138311,0.10195 -0.206639,0.23275 -0.172837,0.33084 -0.02999,0.74339 0.347391,1.0033 0.140158,0.0965 0.397857,0.19635 0.514092,0.19913 0.0538,0.001 0.05953,-0.011 0.05953,-0.12782 z m 1.430693,0.0778 c 0.55762,-0.17355 0.874704,-0.73175 0.654603,-1.15237 -0.03807,-0.0728 -0.102602,-0.16206 -0.143396,-0.19844 l -0.07417,-0.0662 0.04584,0.0662 c 0.150914,0.21777 0.181005,0.47902 0.07791,0.67649 -0.113329,0.21708 -0.403045,0.40978 -0.675181,0.44908 -0.120916,0.0175 -0.125677,0.0215 -0.125677,0.10558 0,0.0481 -0.0072,0.10627 -0.01606,0.12929 -0.02193,0.0572 0.05025,0.0544 0.256128,-0.01 z m -0.822151,-1.51286 c 0,-0.14468 -0.03784,-0.20408 -0.167499,-0.26295 -0.128193,-0.0582 -0.278745,-0.0658 -0.344943,-0.0174 -0.03749,0.0274 -0.0412,0.0473 -0.01951,0.10433 0.02439,0.0642 0.03431,0.0683 0.11052,0.0465 0.05867,-0.0168 0.109327,-0.0133 0.16927,0.0117 0.08398,0.0351 0.199245,0.16581 0.199245,0.22597 0,0.0168 0.01191,0.0232 0.02646,0.0142 0.01455,-0.009 0.02646,-0.0641 0.02646,-0.12236 z m 0.186173,-0.12996 c 0.06557,-0.0656 0.04182,-0.12784 -0.02552,-0.0669 -0.06433,0.0582 -0.08128,0.052 -0.08128,-0.03 0,-0.0536 -0.0075,-0.0639 -0.03028,-0.0412 -0.02273,0.0227 -0.02193,0.0504 0.0032,0.11113 0.0394,0.0951 0.06131,0.0995 0.133866,0.027 z m 6.698511,4.71934 c -0.191705,-0.0945 -0.255441,-0.29368 -0.239126,-0.74736 0.01219,-0.33913 0.0611,-0.46132 0.22038,-0.55061 0.139245,-0.0781 0.40024,-0.0815 0.563381,-0.007 0.08821,0.04 0.125057,0.0775 0.164917,0.16759 0.108587,0.24548 0.0919,0.81738 -0.02958,1.01394 -0.02994,0.0485 -0.09581,0.10106 -0.157361,0.12569 -0.13721,0.0549 -0.409494,0.054 -0.522606,-0.002 z m 0.392823,-0.16832 c 0.07716,-0.0413 0.122176,-0.15205 0.143073,-0.352 0.02949,-0.28216 -0.0038,-0.48947 -0.09279,-0.5785 -0.132989,-0.13299 -0.334758,-0.0838 -0.411728,0.10045 -0.04208,0.10072 -0.04862,0.4703 -0.01119,0.63239 0.04208,0.18222 0.222581,0.27796 0.372636,0.19766 z m 3.607939,0.18681 c -0.09835,-0.0398 -0.191192,-0.1796 -0.22391,-0.3372 -0.04267,-0.20553 -0.02186,-0.70933 0.03365,-0.81456 0.08166,-0.1548 0.166071,-0.20832 0.346725,-0.21983 0.14949,-0.01 0.17418,-0.004 0.2505,0.0607 l 0.0847,0.0712 v -0.34631 -0.34631 h 0.11907 0.11906 v 0.96573 0.96573 h -0.11906 c -0.10082,0 -0.11907,-0.008 -0.11907,-0.0521 0,-0.0494 -0.005,-0.0488 -0.0963,0.0132 -0.10031,0.0681 -0.28049,0.0862 -0.395337,0.0397 z m 0.357905,-0.18526 c 0.0841,-0.045 0.13373,-0.22093 0.13373,-0.47425 0,-0.29583 -0.0176,-0.38234 -0.0946,-0.46542 -0.0999,-0.10783 -0.29047,-0.0747 -0.35679,0.0621 -0.04719,0.0973 -0.06509,0.58299 -0.02587,0.70184 0.05386,0.1632 0.213932,0.2451 0.343502,0.17575 z m 0.9111,0.16037 c -0.12664,-0.0772 -0.14237,-0.16267 -0.14237,-0.77363 v -0.55168 h 0.11906 0.11907 v 0.5256 c 0,0.49167 0.004,0.5301 0.0548,0.59531 0.0405,0.0516 0.0789,0.0697 0.14726,0.0697 0.2385,0 0.27415,-0.0928 0.27415,-0.71353 v -0.4771 h 0.11906 0.11907 v 0.67469 0.67469 h -0.11907 c -0.11143,0 -0.11906,-0.005 -0.11906,-0.0708 v -0.0708 l -0.0595,0.0542 c -0.0327,0.0298 -0.0855,0.0676 -0.11732,0.084 -0.0914,0.0471 -0.30203,0.036 -0.39516,-0.0208 z m 1.41597,-0.009 c -0.0505,-0.0335 -0.11891,-0.11757 -0.15605,-0.19183 -0.0595,-0.11903 -0.0661,-0.16399 -0.0661,-0.44975 0,-0.28612 0.006,-0.33044 0.0661,-0.44842 0.10126,-0.20041 0.17248,-0.2395 0.43637,-0.2395 0.19906,0 0.2278,0.007 0.29154,0.0661 0.0931,0.0871 0.10996,0.12163 0.13238,0.2712 l 0.0188,0.12567 -0.11545,-1.3e-4 c -0.11444,-1.3e-4 -0.1158,-0.001 -0.15514,-0.12553 -0.0303,-0.0956 -0.057,-0.13134 -0.11245,-0.15049 -0.10702,-0.0369 -0.21003,0.009 -0.26454,0.11769 -0.0593,0.11826 -0.0654,0.59077 -0.01,0.72472 0.0419,0.1003 0.1337,0.17458 0.21574,0.17458 0.074,0 0.16584,-0.10137 0.18683,-0.20632 0.016,-0.0798 0.0236,-0.0847 0.1327,-0.0847 0.10955,0 0.11575,0.004 0.11575,0.0752 0,0.11624 -0.10853,0.29651 -0.21191,0.35195 -0.13489,0.0723 -0.38809,0.0671 -0.50516,-0.0105 z m 1.22685,-0.005 c -0.10633,-0.0895 -0.14819,-0.21903 -0.13403,-0.41481 0.009,-0.12732 0.0254,-0.17067 0.0879,-0.23595 0.0913,-0.0953 0.28351,-0.1581 0.483919,-0.1581 h 0.1442 l -0.0143,-0.10684 c -0.0234,-0.17433 -0.0801,-0.23712 -0.214039,-0.23712 -0.12097,0 -0.18032,0.0422 -0.21381,0.15214 -0.0153,0.0503 -0.0367,0.0595 -0.13837,0.0595 h -0.12022 l 0.018,-0.0959 c 0.04,-0.21327 0.17386,-0.30102 0.45919,-0.30102 0.202289,0 0.335379,0.0632 0.392289,0.1862 0.0181,0.0391 0.0351,0.28967 0.0427,0.6274 l 0.0125,0.56224 h -0.11542 c -0.10762,0 -0.11542,-0.005 -0.11542,-0.0711 v -0.0711 l -0.0798,0.0765 c -0.0669,0.0641 -0.10672,0.0782 -0.246059,0.0871 -0.14917,0.01 -0.17474,0.003 -0.24913,-0.0592 z m 0.416609,-0.16081 c 0.058,-0.03 0.0872,-0.0738 0.11775,-0.17678 0.0224,-0.0753 0.0407,-0.17186 0.0407,-0.21457 v -0.0777 l -0.17112,0.0109 c -0.223179,0.0142 -0.305129,0.082 -0.305129,0.25244 0,0.0875 0.0158,0.13145 0.0649,0.18059 0.0747,0.0747 0.14368,0.0816 0.252899,0.0251 z m 0.94621,0.18383 c -0.0397,-0.0215 -0.0843,-0.0619 -0.0992,-0.0898 -0.0159,-0.0297 -0.0271,-0.26538 -0.0271,-0.56836 v -0.51768 h -0.11906 c -0.11465,0 -0.11906,-0.003 -0.11906,-0.0794 0,-0.0764 0.004,-0.0794 0.11906,-0.0794 h 0.11906 v -0.13161 c 0,-0.11898 0.007,-0.13549 0.0781,-0.17198 0.14244,-0.0737 0.16007,-0.0592 0.16007,0.13161 v 0.17198 h 0.14552 c 0.14405,0 0.14552,8e-4 0.14552,0.0794 0,0.0786 -10e-4,0.0794 -0.14552,0.0794 h -0.14552 v 0.47301 c 0,0.53162 0.003,0.53963 0.18565,0.53963 0.10118,0 0.10539,0.003 0.10539,0.0857 0,0.0748 -0.0105,0.0878 -0.0827,0.10223 -0.13092,0.0262 -0.24219,0.0176 -0.32014,-0.0247 z m 1.37288,-0.0146 c -0.17101,-0.0902 -0.21585,-0.22765 -0.21485,-0.65848 7.4e-4,-0.31712 0.007,-0.36976 0.0597,-0.46928 0.0802,-0.15266 0.21354,-0.21864 0.44184,-0.21864 0.22907,0 0.36212,0.066 0.44052,0.21864 0.11048,0.21504 0.0956,0.83583 -0.0244,1.01901 -0.10664,0.16276 -0.48846,0.22184 -0.70281,0.10875 z m 0.45754,-0.20745 c 0.0795,-0.0851 0.10709,-0.21104 0.10684,-0.48779 -2.8e-4,-0.31264 -0.0935,-0.46595 -0.28327,-0.46595 -0.20733,0 -0.30046,0.22759 -0.26208,0.64049 0.0267,0.28695 0.099,0.38897 0.27691,0.39058 0.0647,5.9e-4 0.10834,-0.0203 0.1616,-0.0773 z m -9.947177,-0.35842 v -0.59532 H 92.75486 c -0.09995,0 -0.105833,-0.004 -0.105833,-0.0794 0,-0.0746 0.0062,-0.0794 0.103031,-0.0794 h 0.103032 l 0.0096,-0.21124 c 0.0085,-0.18794 0.01753,-0.21917 0.08148,-0.28313 0.06012,-0.0601 0.100137,-0.0737 0.244563,-0.0829 l 0.172676,-0.011 v 0.0791 c 0,0.0717 -0.0098,0.0806 -0.104999,0.0959 -0.129026,0.0206 -0.159585,0.0716 -0.159585,0.26604 v 0.14726 h 0.132292 c 0.129352,0 0.132292,0.002 0.132292,0.0794 0,0.0776 -0.0029,0.0794 -0.132292,0.0794 h -0.132292 v 0.59532 0.59531 h -0.119069 -0.119063 z m 1.322917,-0.37042 v -0.96573 h 0.502708 0.502709 v 0.10511 0.1051 l -0.377031,0.007 -0.377032,0.007 -0.0075,0.29765 -0.0075,0.29766 h 0.358054 0.358054 v 0.11906 0.11906 H 94.77807 94.420068 l 0.0074,0.32412 0.0074,0.32411 0.390261,0.007 0.39026,0.007 v 0.10512 0.10513 h -0.515937 -0.515938 z m 7.38187,0.29104 v -0.67469 h 0.11907 0.11906 v 0.67469 0.67469 h -0.11906 -0.11907 z m 1.93117,0.0992 c -1.6e-4,-0.31651 -0.008,-0.62012 -0.0167,-0.67469 l -0.0164,-0.0992 h 0.12252 c 0.11306,0 0.12253,0.005 0.12253,0.0661 0,0.0364 0.0119,0.0661 0.0265,0.0661 0.0145,0 0.0265,-0.0121 0.0265,-0.0268 0,-0.0602 0.17244,-0.13171 0.3175,-0.13171 0.19146,0 0.30432,0.0671 0.34219,0.20348 0.0154,0.0553 0.028,0.3417 0.0281,0.63638 l 1.4e-4,0.53578 h -0.11906 -0.11906 v -0.54048 -0.54047 l -0.0697,-0.0548 c -0.0956,-0.0752 -0.2333,-0.0717 -0.31296,0.008 -0.0966,0.0966 -0.11973,0.23137 -0.11989,0.69791 l -1.5e-4,0.42995 h -0.10583 -0.10584 l -2.9e-4,-0.57533 z m -1.95762,-1.23693 v -0.11906 h 0.13229 0.13229 v 0.11906 0.11906 h -0.13229 -0.13229 z m 6.26686,-0.52852 c -0.008,-0.008 0.0118,-0.0971 0.0447,-0.19745 0.10506,-0.32074 0.10984,-0.28179 -0.11715,-0.95421 -0.11543,-0.34193 -0.21846,-0.6432 -0.22897,-0.6695 -0.0172,-0.043 -0.005,-0.047 0.11988,-0.0397 l 0.13898,0.008 0.0905,0.30427 c 0.0498,0.16735 0.11525,0.38762 0.14545,0.48948 0.0302,0.10187 0.0633,0.19441 0.0735,0.20566 0.0102,0.0113 0.0633,-0.13163 0.11789,-0.3175 0.0546,-0.18587 0.12339,-0.41832 0.15279,-0.51654 l 0.0534,-0.1786 h 0.11648 c 0.0758,0 0.11635,0.0116 0.1161,0.0331 -2.6e-4,0.0182 -0.13416,0.43788 -0.29766,0.93265 l -0.29727,0.89959 -0.10679,0.008 c -0.0587,0.004 -0.11357,10e-4 -0.12186,-0.007 z m -14.854836,-0.52773 c -0.197733,-0.0861 -0.257776,-0.26465 -0.24501,-0.72862 0.0075,-0.27327 0.01846,-0.34764 0.06204,-0.42163 0.09192,-0.15605 0.177091,-0.19999 0.405276,-0.20905 0.369874,-0.0147 0.48505,0.10345 0.503095,0.51602 l 0.01075,0.24589 h -0.373573 -0.373573 v 0.10668 c 0,0.21452 0.09698,0.34407 0.25623,0.34227 0.09799,-0.001 0.157583,-0.0493 0.206866,-0.16724 0.0379,-0.0907 0.04746,-0.0965 0.15903,-0.0965 0.105638,0 0.118644,0.007 0.118127,0.0595 -0.0012,0.12405 -0.09743,0.27936 -0.208043,0.33579 -0.125578,0.0641 -0.392945,0.0727 -0.521224,0.0169 z m 0.491723,-0.87782 c 0,-0.12814 -0.07193,-0.27232 -0.145011,-0.29066 -0.197152,-0.0495 -0.326468,0.0477 -0.350819,0.26379 l -0.01376,0.12209 h 0.254795 0.254795 z m 0.772106,0.8617 c -0.156021,-0.0951 -0.201776,-0.24524 -0.201355,-0.66065 4.13e-4,-0.40775 0.03537,-0.52089 0.193839,-0.62746 0.117179,-0.0788 0.323536,-0.0824 0.445879,-0.008 l 0.08599,0.0524 v -0.33034 -0.33034 h 0.119063 0.119062 v 0.96573 0.96573 h -0.119062 c -0.103113,0 -0.119063,-0.007 -0.119063,-0.0553 0,-0.0532 -0.0031,-0.0527 -0.0814,0.0132 -0.105082,0.0884 -0.310893,0.0953 -0.442947,0.0148 z m 0.393526,-0.15872 c 0.101392,-0.0543 0.130826,-0.16422 0.130826,-0.4887 0,-0.32448 -0.02943,-0.43443 -0.130826,-0.48869 -0.160952,-0.0861 -0.305945,0.0181 -0.34863,0.25057 -0.03374,0.18379 -0.01709,0.49563 0.03224,0.60374 0.05616,0.12308 0.206854,0.1817 0.31639,0.12308 z m 1.01718,0.1751 c -0.194103,-0.0863 -0.259212,-0.25684 -0.258436,-0.67703 6.08e-4,-0.32912 0.03312,-0.46716 0.132337,-0.56182 0.100257,-0.0956 0.193527,-0.1261 0.386201,-0.1261 0.32361,0 0.44393,0.13894 0.46284,0.53445 l 0.0111,0.23285 h -0.37365 -0.373651 v 0.10668 c 0,0.29989 0.218931,0.44575 0.398911,0.26577 0.0425,-0.0425 0.0773,-0.10207 0.0773,-0.13229 0,-0.0483 0.016,-0.055 0.13229,-0.055 0.11973,0 0.13224,0.006 0.13171,0.0595 -3.2e-4,0.0327 -0.0237,0.11053 -0.052,0.17287 -0.0393,0.0865 -0.0783,0.12551 -0.16478,0.16478 -0.13335,0.0605 -0.39103,0.0682 -0.510218,0.0153 z m 0.489482,-0.86309 c 0,-0.0925 -0.0665,-0.26559 -0.11348,-0.29547 -0.0176,-0.0112 -0.0806,-0.0206 -0.13988,-0.0208 -0.14758,-5.6e-4 -0.2261,0.0844 -0.243289,0.26331 l -0.01279,0.13316 h 0.254719 0.25472 z m 1.62508,0.85055 c -0.1062,-0.0648 -0.15674,-0.19 -0.15623,-0.38711 7.2e-4,-0.27911 0.15288,-0.40791 0.50891,-0.43077 l 0.19182,-0.0123 v -0.10088 c 0,-0.0669 -0.0203,-0.12453 -0.0604,-0.17114 -0.11543,-0.1342 -0.36289,-0.0683 -0.36289,0.0967 0,0.0424 -0.0202,0.05 -0.1328,0.05 -0.13134,0 -0.13261,-8e-4 -0.11583,-0.0728 0.0546,-0.2344 0.17605,-0.32412 0.4386,-0.32412 0.22629,0 0.34748,0.0483 0.41005,0.16328 0.0405,0.0745 0.05,0.17466 0.0613,0.65036 l 0.0134,0.56228 -0.12568,-5e-5 c -0.11931,-5e-5 -0.12571,-0.004 -0.12627,-0.0728 l -5.8e-4,-0.0728 -0.0457,0.0582 c -0.0937,0.11919 -0.35246,0.15244 -0.49762,0.0639 z m 0.43778,-0.21375 c 0.0754,-0.0807 0.10672,-0.17905 0.10672,-0.33498 0,-0.0889 -5.6e-4,-0.0893 -0.12568,-0.0893 -0.17145,5e-5 -0.30334,0.07 -0.33346,0.17677 -0.0726,0.25756 0.17836,0.4338 0.35242,0.24747 z m 6.813909,0.21441 c -0.0437,-0.027 -0.099,-0.0716 -0.12305,-0.0991 -0.0491,-0.0563 -0.10723,-0.24488 -0.0861,-0.27912 0.008,-0.0123 0.0726,-0.0223 0.14453,-0.0223 0.1269,0 0.13073,0.002 0.13073,0.0775 0,0.0938 0.10556,0.18713 0.21167,0.18713 0.10361,0 0.21166,-0.0934 0.21166,-0.18303 0,-0.0901 -0.0448,-0.13107 -0.26297,-0.24024 -0.30601,-0.15313 -0.39849,-0.25169 -0.39849,-0.4247 0,-0.22496 0.17926,-0.36912 0.459,-0.36912 0.26572,0 0.44059,0.12276 0.44059,0.30929 v 0.0905 l -0.12544,-0.008 c -0.10115,-0.006 -0.1273,-0.0183 -0.13502,-0.061 -0.0263,-0.14504 -0.23904,-0.20164 -0.34808,-0.0926 -0.11253,0.11252 -0.0422,0.20822 0.25135,0.34222 0.0873,0.0398 0.19722,0.10504 0.24424,0.14486 0.21031,0.17812 0.14595,0.52846 -0.11771,0.64081 -0.12651,0.0539 -0.40027,0.0468 -0.49695,-0.0129 z m 1.23031,0.0305 c -0.0218,-0.008 -0.0665,-0.0389 -0.0992,-0.0687 -0.058,-0.0528 -0.0595,-0.0679 -0.0595,-0.59194 v -0.53779 h -0.11906 c -0.11465,0 -0.11906,-0.003 -0.11906,-0.0794 0,-0.0764 0.004,-0.0794 0.11906,-0.0794 h 0.11906 v -0.13175 c 0,-0.12637 0.004,-0.13389 0.10256,-0.18408 0.0564,-0.0288 0.10998,-0.0449 0.11906,-0.0358 0.009,0.009 0.0165,0.0913 0.0165,0.18269 v 0.16619 l 0.13891,0.008 c 0.12956,0.007 0.13947,0.0129 0.14728,0.0808 0.008,0.0717 0.006,0.0728 -0.13891,0.0728 h -0.14728 v 0.47301 c 0,0.53162 0.003,0.53963 0.18565,0.53963 0.10119,0 0.10539,0.003 0.10539,0.0857 0,0.0748 -0.0105,0.0878 -0.0827,0.10223 -0.097,0.0194 -0.23152,0.0184 -0.28773,-0.002 z m -14.684373,-0.9735 v -0.96573 h 0.47625 0.47625 v 0.10506 0.10507 l -0.350573,0.007 -0.350573,0.007 v 0.29104 0.29104 l 0.337344,0.007 0.337343,0.007 v 0.11827 0.11827 H 92.11986 91.775902 v 0.43657 0.43656 h -0.119063 -0.119062 z m 5.185834,0.29104 v -0.67469 h 0.10583 c 0.0952,0 0.10584,0.007 0.10584,0.0662 0,0.0729 0.0456,0.0895 0.0702,0.0255 0.0238,-0.0621 0.15307,-0.11809 0.27246,-0.11809 h 0.10715 v 0.11245 0.11245 h -0.13017 c -0.15553,0 -0.24274,0.067 -0.28926,0.22229 -0.0172,0.0575 -0.0304,0.28028 -0.0304,0.515 v 0.41365 h -0.10584 -0.10583 z m 2.19604,-0.29104 v -0.96573 h 0.11906 0.11907 v 0.96573 0.96573 h -0.11907 -0.11906 z m 1.217079,0 v -0.96573 h 0.2072 0.2072 l 0.1255,0.41672 c 0.069,0.22919 0.15955,0.52983 0.20118,0.66807 0.0416,0.13825 0.0902,0.30196 0.10806,0.3638 0.0387,0.13462 0.0662,0.14259 0.0912,0.0265 0.0102,-0.0473 0.071,-0.25863 0.13525,-0.46963 0.23841,-0.78324 0.27008,-0.88768 0.28677,-0.94589 0.0159,-0.0553 0.032,-0.0595 0.22696,-0.0595 h 0.20988 v 0.96573 0.96573 h -0.13229 -0.13229 l -6.5e-4,-0.8136 -6.5e-4,-0.81359 -0.0626,0.18521 c -0.0345,0.10186 -0.11835,0.3638 -0.18642,0.58208 -0.0681,0.21828 -0.1566,0.49808 -0.19674,0.62177 l -0.073,0.2249 -0.11986,0.008 c -0.14244,0.009 -0.11545,0.0609 -0.3228,-0.61645 -0.0802,-0.26194 -0.18702,-0.60722 -0.23742,-0.76729 l -0.0917,-0.29105 -0.002,0.84006 -0.002,0.84005 h -0.11906 -0.11907 z m 2.19605,0.29104 v -0.67469 h 0.11906 0.11906 v 0.67469 0.67469 h -0.11906 -0.11906 z m 0.58208,0 v -0.67469 h 0.11906 c 0.11157,0 0.11906,0.004 0.11906,0.0711 v 0.0711 l 0.0803,-0.0769 c 0.0693,-0.0664 0.10487,-0.0783 0.26105,-0.0871 0.16848,-0.01 0.18653,-0.005 0.2651,0.0653 0.1163,0.1042 0.13306,0.20397 0.13379,0.79653 l 6.4e-4,0.50933 h -0.11755 -0.11755 l -0.008,-0.54478 c -0.008,-0.53604 -0.009,-0.5456 -0.0706,-0.59532 -0.0765,-0.0619 -0.209,-0.0653 -0.29164,-0.007 -0.11483,0.0804 -0.13538,0.18419 -0.13538,0.68361 v 0.46387 h -0.11909 -0.11906 z m 1.33482,0.64109 c -0.007,-0.0185 -0.01,-0.31911 -0.006,-0.66807 l 0.007,-0.63448 0.12568,-0.008 0.12568,-0.008 v 0.67614 0.67614 h -0.1199 c -0.0725,0 -0.12499,-0.0133 -0.13278,-0.0336 z m 2.5281,-0.64109 v -0.67469 h 0.11906 c 0.11062,0 0.11906,0.005 0.11906,0.0689 v 0.0689 l 0.0935,-0.0821 c 0.0747,-0.0656 0.11725,-0.0821 0.21167,-0.0821 h 0.11814 v 0.11841 c 0,0.11576 -0.002,0.11806 -0.0746,0.10348 -0.0417,-0.008 -0.11802,0.003 -0.17293,0.0262 -0.15417,0.0644 -0.17581,0.14774 -0.17581,0.67715 v 0.45064 h -0.11906 -0.11906 z m -4.445,-1.13771 v -0.11906 h 0.11906 0.11906 v 0.11906 0.11906 h -0.11906 -0.11906 z m 1.905,0 v -0.11906 h 0.13229 0.13229 v 0.11906 0.11906 h -0.13229 -0.13229 z m -12.525647,-4.84722 c -0.119494,-0.0186 -0.197332,-0.0834 -0.226633,-0.18894 -0.04601,-0.16565 -0.03789,-0.1891 0.06551,-0.1891 0.08413,0 0.0926,0.007 0.0926,0.0753 0,0.16005 0.208338,0.2215 0.331932,0.0979 0.1195,-0.1195 0.0668,-0.21273 -0.214422,-0.37939 -0.181209,-0.10739 -0.215225,-0.1393 -0.247263,-0.23197 -0.05354,-0.15486 0.0011,-0.31778 0.12934,-0.38595 0.10044,-0.0534 0.275074,-0.064 0.382324,-0.0232 0.07826,0.0298 0.173471,0.17158 0.173615,0.25862 7.9e-5,0.0497 -0.01428,0.0595 -0.08703,0.0595 -0.07499,0 -0.09066,-0.0117 -0.112447,-0.0842 -0.05338,-0.17764 -0.308704,-0.15175 -0.324256,0.0329 -0.0094,0.11116 0.03454,0.15877 0.254772,0.27627 0.184859,0.0986 0.269064,0.21661 0.269064,0.37698 0,0.0987 -0.01459,0.13239 -0.08996,0.20775 -0.05076,0.0508 -0.117051,0.0901 -0.152136,0.0903 -0.0342,2e-4 -0.08599,0.005 -0.115093,0.01 -0.02911,0.005 -0.08757,0.004 -0.129915,-0.003 z m 1.908662,-0.008 c -0.225996,-0.0406 -0.296421,-0.2208 -0.279585,-0.71531 0.01132,-0.33258 0.0429,-0.41678 0.183557,-0.48952 0.0976,-0.0505 0.298057,-0.0488 0.40806,0.003 0.14939,0.0709 0.184774,0.18258 0.183759,0.58004 -9.61e-4,0.37568 -0.03444,0.50526 -0.149047,0.57684 -0.07897,0.0493 -0.219607,0.0674 -0.346744,0.0445 z m 0.261058,-0.18752 c 0.04241,-0.0468 0.05181,-0.10592 0.05929,-0.3728 0.01011,-0.36078 2.38e-4,-0.42184 -0.08034,-0.4969 -0.07859,-0.0732 -0.193959,-0.0685 -0.273706,0.0113 -0.06235,0.0624 -0.06494,0.0788 -0.06494,0.41185 0,0.4383 0.02675,0.50096 0.21418,0.50176 0.0634,2.7e-4 0.111925,-0.0181 0.145521,-0.0552 z m 1.84957,0.19528 c -0.149026,-0.0266 -0.177668,-0.0419 -0.225618,-0.12054 -0.0286,-0.0469 -0.05204,-0.12397 -0.0521,-0.17127 -9e-5,-0.0779 0.0073,-0.086 0.07928,-0.086 0.06544,0 0.07937,0.0108 0.07937,0.0615 0,0.0868 0.105102,0.17659 0.206756,0.17659 0.17049,0 0.25351,-0.19712 0.13059,-0.31006 -0.0327,-0.0301 -0.12341,-0.0887 -0.20149,-0.13029 -0.197097,-0.10495 -0.268147,-0.19588 -0.268147,-0.34314 0,-0.20827 0.130214,-0.32776 0.357187,-0.32776 0.21152,0 0.33073,0.0947 0.33073,0.26284 0,0.0719 -0.009,0.0811 -0.0768,0.0811 -0.0615,0 -0.0823,-0.0158 -0.10443,-0.0793 -0.0553,-0.15871 -0.256426,-0.16667 -0.326478,-0.0129 -0.04244,0.0931 0.02649,0.17988 0.252228,0.3174 0.097,0.0591 0.19321,0.13145 0.21375,0.16077 0.0946,0.1351 0.0614,0.37458 -0.0641,0.4623 -0.0667,0.0466 -0.23303,0.0762 -0.330732,0.0587 z m 0.952498,-0.006 c -0.14211,-0.022 -0.16906,-0.0422 -0.22707,-0.16996 -0.0643,-0.14163 -0.0728,-0.73269 -0.0127,-0.87675 0.0592,-0.14156 0.17977,-0.20292 0.37713,-0.19183 0.29012,0.0163 0.35207,0.12435 0.35207,0.61405 0,0.24377 -0.0113,0.35936 -0.043,0.43843 -0.0621,0.15517 -0.22038,0.22113 -0.44651,0.18606 z m 0.24918,-0.18436 c 0.064,-0.064 0.0919,-0.27528 0.0761,-0.57664 -0.0109,-0.20762 -0.0182,-0.23287 -0.0841,-0.28952 -0.0922,-0.0793 -0.17915,-0.0787 -0.27278,0.002 -0.0714,0.0614 -0.0746,0.0746 -0.0833,0.34644 -0.0107,0.33172 0.006,0.44698 0.0767,0.51728 0.0676,0.0676 0.22011,0.068 0.28739,7e-4 z M 92.43736,176.9747 v -0.60855 l 0.24474,3.9e-4 c 0.282623,4.6e-4 0.358104,0.0288 0.423292,0.15873 0.06381,0.12724 0.05862,0.2646 -0.0141,0.37275 -0.06937,0.10318 -0.187029,0.15239 -0.369501,0.15456 l -0.125677,0.001 v 0.26458 0.26459 h -0.07937 -0.07937 z m 0.470363,-0.12057 c 0.07922,-0.0555 0.08175,-0.2269 0.0045,-0.30416 -0.04243,-0.0424 -0.0815,-0.0526 -0.178593,-0.0463 l -0.124285,0.008 -0.0078,0.19182 -0.0078,0.19182 h 0.127563 c 0.07263,0 0.152886,-0.0177 0.186368,-0.0412 z m 1.461095,0.11912 v -0.60999 l 0.124368,0.008 0.124368,0.008 0.212976,0.47137 0.212976,0.47136 0.0072,-0.47798 0.0072,-0.47798 h 0.07878 0.07878 v 0.61007 0.61006 l -0.111487,-0.008 -0.111488,-0.008 -0.225856,-0.48787 -0.225856,-0.48787 -0.0072,0.49448 -0.0072,0.49449 h -0.07879 -0.07879 z m 3.042713,0.001 v -0.60855 h 0.27578 c 0.25809,0 0.281,0.004 0.35719,0.0685 0.0738,0.0621 0.0814,0.083 0.0814,0.22289 0,0.13619 -0.009,0.16149 -0.0728,0.21468 l -0.0728,0.0603 0.0572,0.0572 c 0.04,0.04 0.0622,0.10418 0.0738,0.21292 0.009,0.0856 0.0228,0.20628 0.0304,0.26813 l 0.0139,0.11245 h -0.0908 c -0.0843,0 -0.0919,-0.007 -0.10717,-0.0992 -0.009,-0.0546 -0.0165,-0.15312 -0.0167,-0.21901 -4.3e-4,-0.17835 -0.0535,-0.2374 -0.21346,-0.2374 h -0.13079 v 0.27782 0.27781 h -0.0926 -0.0926 z m 0.51443,-0.16464 c 0.0568,-0.081 0.0515,-0.18468 -0.0128,-0.25371 -0.0415,-0.0445 -0.0842,-0.0579 -0.18521,-0.0579 h -0.13126 v 0.1852 0.18521 h 0.14402 c 0.11884,0 0.15123,-0.0103 0.18521,-0.0588 z m 0.42925,0.75554 c -0.01,-0.01 -0.0176,-0.28355 -0.0176,-0.60854 v -0.59091 h 0.33073 0.33072 v 0.0661 c 0,0.0657 -0.002,0.0661 -0.23812,0.0661 h -0.23813 v 0.18409 0.1841 l 0.20506,0.008 c 0.20184,0.008 0.20518,0.009 0.21342,0.0805 l 0.008,0.0728 h -0.21342 -0.21343 v 0.19844 0.19844 h 0.23813 0.23812 v 0.0794 0.0794 h -0.31309 c -0.1722,0 -0.32103,-0.008 -0.33073,-0.0176 z m 0.82902,-0.5873 v -0.61215 h 0.25267 c 0.44216,0 0.50136,0.0705 0.50016,0.59532 -0.001,0.51903 -0.062,0.59285 -0.50794,0.61617 l -0.24489,0.0128 z m 0.5064,0.39566 c 0.0581,-0.047 0.0631,-0.0721 0.0714,-0.35931 0.0125,-0.43217 -0.0344,-0.5162 -0.28801,-0.5162 h -0.10458 v 0.46302 0.46302 h 0.12936 c 0.0879,0 0.14939,-0.0162 0.19182,-0.0505 z m 0.895899,-0.39926 v -0.60855 h 0.27984 c 0.27403,0 0.28146,0.002 0.35719,0.0773 0.0667,0.0667 0.0773,0.0973 0.0773,0.22255 0,0.12966 -0.009,0.15253 -0.0814,0.2137 -0.0448,0.0377 -0.0647,0.0685 -0.0443,0.0685 0.0204,0 0.066,0.0307 0.10125,0.0683 0.0528,0.0562 0.0641,0.0957 0.0641,0.22276 0,0.26233 -0.12654,0.34353 -0.53578,0.34381 l -0.21828,1.5e-4 z m 0.52916,0.39687 c 0.0702,-0.0702 0.0717,-0.23937 0.003,-0.3018 -0.0285,-0.0258 -0.11437,-0.052 -0.19844,-0.0607 l -0.14825,-0.0153 v 0.21537 0.21537 h 0.14552 c 0.11025,0 0.15835,-0.0128 0.19844,-0.0529 z m -0.0265,-0.55562 c 0.0693,-0.0693 0.0673,-0.17974 -0.005,-0.25627 -0.0447,-0.0476 -0.086,-0.0612 -0.18521,-0.0612 h -0.12768 v 0.1852 0.18521 h 0.1323 c 0.097,0 0.1464,-0.0141 0.1852,-0.0529 z m 0.71438,0.53927 c 0,-0.22133 -0.005,-0.23848 -0.15875,-0.58541 -0.0873,-0.19657 -0.15875,-0.36781 -0.15875,-0.38053 0,-0.0127 0.0397,-0.0231 0.0881,-0.0231 0.0867,0 0.0897,0.004 0.18758,0.25127 0.0547,0.13819 0.10875,0.25701 0.12012,0.26403 0.0114,0.007 0.0684,-0.10307 0.12675,-0.24465 0.0997,-0.24193 0.11106,-0.25791 0.18863,-0.26571 0.0861,-0.009 0.10087,0.0161 0.0567,0.0946 -0.0142,0.0253 -0.0856,0.18206 -0.15875,0.34843 -0.12668,0.28827 -0.13293,0.31346 -0.13293,0.53578 v 0.2333 h -0.0794 -0.0794 z m 1.21101,-0.30776 -0.007,-0.53578 -0.16536,-0.008 c -0.15575,-0.007 -0.16537,-0.0117 -0.16537,-0.0728 v -0.0649 h 0.41011 0.4101 v 0.0649 c 0,0.0611 -0.01,0.0653 -0.16536,0.0728 l -0.16537,0.008 -0.007,0.53578 -0.007,0.53578 h -0.065 -0.065 z m 0.61461,-0.0728 v -0.60855 h 0.0926 0.0926 v 0.24927 0.24926 l 0.1985,0.009 0.1985,0.009 -5e-5,-0.25797 -7e-5,-0.25797 h 0.0794 0.0794 v 0.60855 0.60854 h -0.0794 -0.0794 v -0.27781 -0.27782 h -0.19844 -0.19844 v 0.27782 0.27781 h -0.0926 -0.0926 z m 1.03188,0 v -0.60855 h 0.30427 0.30427 v 0.0661 c 0,0.0654 -0.003,0.0661 -0.22606,0.0661 h -0.22605 l 0.008,0.18954 0.008,0.18955 0.20505,-0.006 0.20505,-0.006 v 0.0811 0.0811 h -0.21166 -0.21167 v 0.19844 0.19844 h 0.23813 0.23812 v 0.0794 0.0794 h -0.3175 -0.3175 z"
       id="path248" /><path
       style="fill:#ffcc01;fill-opacity:1;stroke:none;stroke-width:0.091944;stroke-dasharray:none;stroke-dashoffset:0"
       d="m 89.000881,190.01452 v -1.84359 h 0.428862 0.428864 v 1.84359 1.8436 h -0.428864 -0.428862 z"
       id="path1444" /><path
       style="fill:#ff0302;fill-opacity:1;stroke:none;stroke-width:0.0858282;stroke-dasharray:none;stroke-dashoffset:0"
       d="m 88.992995,187.28604 v -1.58489 h 0.434709 0.43471 v 1.58489 1.58489 h -0.43471 -0.434709 z"
       id="path1444-3" /></g></svg>
