<?xml version="1.0" encoding="UTF-8" standalone="no"?>
<svg
   height="416"
   id="Layer_1"
   version="1.1"
   viewBox="0 0 416 416"
   width="416"
   xml:space="preserve"
   sodipodi:docname="i_pole.svg"
   inkscape:version="1.2.1 (9c6d41e, 2022-07-14)"
   xmlns:inkscape="http://www.inkscape.org/namespaces/inkscape"
   xmlns:sodipodi="http://sodipodi.sourceforge.net/DTD/sodipodi-0.dtd"
   xmlns="http://www.w3.org/2000/svg"
   xmlns:svg="http://www.w3.org/2000/svg"><defs
     id="defs17" /><sodipodi:namedview
     id="namedview15"
     pagecolor="#ffffff"
     bordercolor="#000000"
     borderopacity="0.25"
     inkscape:showpageshadow="2"
     inkscape:pageopacity="0.0"
     inkscape:pagecheckerboard="0"
     inkscape:deskcolor="#d1d1d1"
     showgrid="false"
     inkscape:zoom="0.4609375"
     inkscape:cx="97.627119"
     inkscape:cy="209.35593"
     inkscape:window-width="1335"
     inkscape:window-height="867"
     inkscape:window-x="177"
     inkscape:window-y="38"
     inkscape:window-maximized="0"
     inkscape:current-layer="Layer_1" /><g
     id="g6"
     transform="translate(-48,-48)"
     style="stroke:#000000;stroke-opacity:1;stroke-width:10;stroke-dasharray:none"><g
       id="g4"
       style="stroke-width:10;stroke-dasharray:none;stroke:#000000;stroke-opacity:1"><path
         d="M 256,48 C 141.1,48 48,141.1 48,256 48,370.9 141.1,464 256,464 370.9,464 464,370.9 464,256 464,141.1 370.9,48 256,48 Z m 0,398.7 C 150.9,446.7 65.3,361.2 65.3,256 65.3,150.9 150.8,65.3 256,65.3 c 105.1,0 190.7,85.5 190.7,190.7 0,105.1 -85.6,190.7 -190.7,190.7 z"
         id="path2"
         style="stroke-width:10;stroke-dasharray:none;stroke:#000000;stroke-opacity:1" /></g></g><g
     id="g12"
     transform="matrix(1.12,0,0,1.12,-78.72,-78.72)"><g
       id="g10"><path
         d="m 256,131 c -69.0625,0 -125,55.9375 -125,125 0,69.0625 55.9375,125 125,125 69.0625,0 125,-55.9375 125,-125 0,-69.0625 -55.9375,-125 -125,-125 z"
         id="path8"
         style="stroke-width:0.781249" /></g></g></svg>
