<?xml version="1.0" encoding="UTF-8" standalone="no"?>
<!-- Created with Inkscape (http://www.inkscape.org/) -->

<svg
        width="140mm"
        height="129mm"
        viewBox="0 0 140 129"
        version="1.1"
        id="svg27079"
        xml:space="preserve"
        inkscape:version="1.2.2 (732a01da63, 2022-12-09)"
        sodipodi:docname="grid_opt.svg"
        xmlns:inkscape="http://www.inkscape.org/namespaces/inkscape"
        xmlns:sodipodi="http://sodipodi.sourceforge.net/DTD/sodipodi-0.dtd"
        xmlns="http://www.w3.org/2000/svg"
        xmlns:svg="http://www.w3.org/2000/svg"><sodipodi:namedview
     id="namedview27081"
     pagecolor="#505050"
     bordercolor="#eeeeee"
     borderopacity="1"
     inkscape:showpageshadow="0"
     inkscape:pageopacity="0"
     inkscape:pagecheckerboard="0"
     inkscape:deskcolor="#505050"
     inkscape:document-units="mm"
     showgrid="false"
     inkscape:zoom="1.2938725"
     inkscape:cx="293.30557"
     inkscape:cy="319.19683"
     inkscape:window-width="2560"
     inkscape:window-height="1360"
     inkscape:window-x="-11"
     inkscape:window-y="-11"
     inkscape:window-maximized="1"
     inkscape:current-layer="layer1" />
    <defs
            id="defs27076"><pattern
       id="EMFhbasepattern"
       patternUnits="userSpaceOnUse"
       width="6"
       height="6"
       x="0"
       y="0" /></defs>
    <g
            inkscape:label="Layer 1"
            inkscape:groupmode="layer"
            id="layer1"><path
       style="fill:#1f597d;fill-opacity:1;stroke:#1f597d;stroke-width:0.143428;stroke-opacity:1"
       d="m 16.529292,66.417213 c 0.32732,-0.62288 1.17197,-1.16613 1.81307,-1.16613 0.95715,0 1.90212,0.89875 2.10707,2.00401 l 0.0822,0.4433 6.89474,2.22423 c 6.25567,2.01806 6.91081,2.20133 7.06805,1.97721 0.0953,-0.13586 0.2711,-0.37514 0.39063,-0.53174 0.20309,-0.26607 0.054,-0.71519 -2.27458,-6.85363 -1.37054,-3.61289 -2.88933,-7.622058 -3.37508,-8.909252 l -0.88319,-2.340353 -0.45936,0.05915 c -0.70096,0.09026 -1.64756,-0.47881 -1.97538,-1.187538 -0.34873,-0.753932 -0.33979,-1.390965 0.0297,-2.116068 0.32769,-0.643078 1.16176,-1.187898 1.81856,-1.187898 1.05543,0 2.11747,1.144147 2.11633,2.279945 -5.5e-4,0.49103 -0.39989,1.396417 -0.75393,1.709064 -0.135,0.119214 0.57757,2.128601 3.2053,9.03867 l 3.37888,8.88537 0.48227,-0.0458 c 0.52168,-0.0496 1.28583,0.24152 1.62972,0.62081 0.19518,0.21527 0.97574,-0.19687 8.596724,-4.53905 l 8.382042,-4.77581 0.0775,-0.52593 c 0.16903,-1.1469 1.1124,-2.1032 2.07478,-2.1032 0.2925,0 0.39412,-0.11315 0.57492,-0.64018 0.12079,-0.352089 1.65325,-4.938083 3.40547,-10.191092 l 3.18585,-9.550924 -0.3197,-0.616543 c -0.17583,-0.339098 -0.3202,-0.853782 -0.32082,-1.143743 -10e-4,-0.50381 0.38842,-1.404204 0.74821,-1.729572 0.12859,-0.116291 -0.74095,-1.797172 -3.60227,-6.963454 -3.58063,-6.465059 -3.79207,-6.810456 -4.1725,-6.815969 -0.69414,-0.01006 -1.56072,-0.579639 -1.85725,-1.220715 -0.34873,-0.753932 -0.33978,-1.390965 0.0297,-2.116068 0.3277,-0.643078 1.16176,-1.187898 1.81856,-1.187898 1.05544,0 2.11748,1.144148 2.11633,2.279946 -5.4e-4,0.528791 -0.38587,1.360342 -0.82136,1.772474 -0.24297,0.229937 -0.0886,0.538594 3.51152,7.020884 l 3.76565,6.780372 0.4939,-0.05013 c 0.3365,-0.03415 0.7033,0.07341 1.15101,0.337543 l 0.657107,0.387671 5.86413,-1.762275 5.86413,-1.762275 v -0.514999 c 0,-1.144485 1.058089,-2.288253 2.116842,-2.288253 1.046353,0 2.116843,1.142601 2.116843,2.259438 0,1.106371 -1.06969,2.259437 -2.096062,2.259437 -0.479117,0 -1.220023,-0.343604 -1.567648,-0.727013 l -0.273388,-0.301531 -5.713541,1.718546 c -3.142447,0.945199 -5.777284,1.745115 -5.855193,1.777591 -0.07791,0.03248 -0.118575,0.325934 -0.09037,0.652127 l 0.05128,0.59308 7.670033,2.892578 c 4.218519,1.590918 7.718697,2.890706 7.778172,2.888418 0.05948,-0.0023 0.241661,-0.141361 0.404855,-0.309049 0.483825,-0.497155 1.256675,-0.685878 1.922777,-0.469529 0.31283,0.101607 0.636111,0.198797 0.718405,0.215978 0.08229,0.01718 2.893936,-2.64415 6.248099,-5.914069 5.39367,-5.258203 6.098475,-5.995686 6.098475,-6.381229 0,-1.176526 1.22343,-2.330501 2.301656,-2.170994 l 0.50748,0.07508 2.45355,-4.969546 c 1.34945,-2.73325 2.47341,-5.063358 2.4977,-5.17802 0.0243,-0.114661 -0.0206,-0.208474 -0.0996,-0.208474 -0.22182,0 -0.69564,-1.136174 -0.69564,-1.668068 0,-1.106155 1.07536,-2.248289 2.11684,-2.248289 1.04635,0 2.11684,1.1426 2.11684,2.259437 0,1.196242 -1.15925,2.341069 -2.26424,2.236068 l -0.49486,-0.04702 -2.51876,5.105915 c -1.38532,2.808253 -2.46231,5.145663 -2.39332,5.194244 0.20875,0.147 0.70503,1.125766 0.70558,1.391543 5.4e-4,0.294566 0.0936,0.307972 5.05362,0.728726 1.9154,0.162482 3.86665,0.33637 4.33611,0.386419 l 0.85356,0.091 v -0.405711 c 0,-1.039905 1.10659,-2.178963 2.11685,-2.178963 1.04635,0 2.11684,1.1426 2.11684,2.259437 0,1.106371 -1.06969,2.259437 -2.09606,2.259437 -0.51931,0 -1.26097,-0.368253 -1.63274,-0.810692 -0.3092,-0.367981 -0.3999,-0.38169 -5.56144,-0.840652 l -5.24712,-0.466571 -0.23966,0.343469 c -0.13181,0.188909 -0.24103,0.38826 -0.2427,0.443004 -0.005,0.155654 -1.15034,0.728926 -1.45664,0.728926 -0.24092,0 -0.43987,0.580282 -1.613886,4.70716 -0.736497,2.588938 -1.363791,4.779167 -1.393984,4.867176 -0.03019,0.08801 0.09306,0.247348 0.273889,0.354088 0.432692,0.255407 0.909895,1.210269 0.909895,1.820648 0,0.74854 -0.511582,1.611521 -1.16082,1.958166 -0.719806,0.384322 -1.199571,0.380403 -1.941745,-0.01586 -1.040698,-0.555653 -1.413463,-1.874405 -0.845101,-2.989766 0.325522,-0.638812 0.815264,-1.005457 1.575831,-1.179747 l 0.525318,-0.120379 1.363382,-4.788956 c 1.275125,-4.478939 1.347155,-4.798972 1.112705,-4.943681 -0.13787,-0.0851 -0.3687,-0.284904 -0.51296,-0.444011 -0.22078,-0.243509 -0.30073,-0.258697 -0.50526,-0.09598 -0.133636,0.10632 -2.839629,2.731817 -6.013316,5.834438 -4.908587,4.79867 -5.756519,5.687234 -5.677783,5.949851 0.38969,1.299788 0.02419,2.417795 -0.962703,2.944719 -0.719611,0.384218 -1.199563,0.380406 -1.940903,-0.01541 -0.674413,-0.360085 -1.012303,-0.939165 -1.12481,-1.927711 l -0.07543,-0.662787 -7.647947,-2.89818 -7.647948,-2.89818 -0.384205,0.426875 c -0.486611,0.540665 -1.204271,0.80464 -1.868861,0.687428 -0.35247,-0.06217 -0.53857,-0.03144 -0.58256,0.09619 -0.0356,0.103145 -1.55737,4.655341 -3.38184,10.115992 -3.30668,9.896989 -3.3163,9.929259 -3.03327,10.182039 0.47757,0.42652 0.85033,1.24564 0.85615,1.88136 l 0.006,0.60252 9.52078,6.48505 9.520783,6.48506 0.600765,-0.34692 c 0.737888,-0.4261 1.259187,-0.43803 1.994099,-0.0456 1.01686,0.54293 1.452756,1.95553 0.90765,2.94142 l -0.252154,0.45605 7.934755,6.40607 c 6.935179,5.599084 7.959878,6.378654 8.134193,6.188374 0.283221,-0.30916 1.02427,-0.62775 1.460185,-0.62775 0.69104,0 1.490576,0.55835 1.840086,1.285014 0.25173,0.52335 0.41541,0.68887 0.73384,0.74208 0.22541,0.0377 3.02175,0.24301 6.21409,0.45633 3.19233,0.21332 6.11153,0.42434 6.4871,0.46894 l 0.68285,0.0811 0.32412,-0.68382 c 0.35326,-0.74527 1.14343,-1.295224 1.86101,-1.295224 1.04635,0 2.11684,1.142604 2.11684,2.259434 0,0.68081 -0.49712,1.58083 -1.05383,1.90792 -0.42847,0.25174 -0.46364,0.32287 -0.39725,0.8034 0.0401,0.28996 0.29304,2.45902 0.56218,4.820129 0.26914,2.36111 0.51756,4.43927 0.55204,4.61813 0.0385,0.19963 0.29048,0.44683 0.65263,0.64019 0.67549,0.36066 1.1865,1.20993 1.1865,1.97188 0,1.52999 -1.62283,2.6712 -2.92619,2.05775 -0.35481,-0.167 -0.65815,-0.10904 -2.7044,0.51676 -1.26762,0.38768 -2.31692,0.72956 -2.33177,0.75975 -0.0148,0.0302 -0.17286,0.37486 -0.35113,0.76594 -0.24001,0.52651 -0.47272,0.79038 -0.89669,1.01674 -0.72806,0.38874 -1.20582,0.38594 -1.95004,-0.0114 -0.66533,-0.35523 -1.13112,-1.15965 -1.13112,-1.95345 0,-1.10615 1.07536,-2.24829 2.11684,-2.24829 0.63567,0 1.50188,0.54994 1.78746,1.13483 0.14154,0.28986 0.31964,0.50207 0.39579,0.47159 0.0761,-0.0305 1.01834,-0.31556 2.09375,-0.63349 1.81418,-0.53634 1.94859,-0.60046 1.86234,-0.88846 -0.3933,-1.31333 -0.0262,-2.41863 0.98214,-2.957 0.51077,-0.27271 0.57604,-0.36252 0.51995,-0.7155 -0.0353,-0.222 -0.27847,-2.26767 -0.54045,-4.54594 -0.60117,-5.227999 -0.60774,-5.272019 -0.78762,-5.272019 -0.45875,0 -1.35804,-0.67831 -1.60385,-1.20974 -0.32422,-0.70092 0.22513,-0.61648 -7.30435,-1.12275 -3.07966,-0.20707 -5.88654,-0.41254 -6.2375,-0.45661 -0.62911,-0.079 -0.64248,-0.0716 -0.947,0.52602 -0.33845,0.66418 -1.162456,1.20868 -1.829146,1.20868 -1.163263,0 -2.178196,-1.18936 -2.095314,-2.45543 l 0.04051,-0.61884 -7.985552,-6.448178 c -5.237134,-4.22887 -8.056297,-6.41615 -8.191105,-6.35516 -0.113054,0.0512 -0.48934,0.13676 -0.836189,0.19025 -0.628226,0.0969 -0.641371,0.11127 -3.437443,3.76624 l -2.806805,3.669004 0.261668,0.4733 c 0.74078,1.33992 -0.35127,3.25994 -1.854155,3.25994 -0.654632,0 -1.565361,-0.58027 -1.814266,-1.15596 l -0.222856,-0.51544 -1.644563,0.0873 c -0.90451,0.048 -2.074756,0.12536 -2.600556,0.17189 l -0.95599,0.0846 -0.31361,0.73005 c -0.23717,0.5521 -0.44438,0.79653 -0.85004,1.00273 -0.41482,0.21085 -0.53657,0.35805 -0.53704,0.64925 -10e-4,0.641884 0.38674,6.810964 0.43035,6.846564 0.0227,0.0185 0.32181,0.18016 0.66477,0.35927 0.71014,0.37085 1.22014,1.19952 1.22014,1.982529 0,0.74854 -0.51159,1.61152 -1.16083,1.95817 -0.7198,0.38432 -1.19957,0.3804 -1.94174,-0.0159 -1.04538,-0.55816 -1.41345,-1.87444 -0.83925,-3.001259 0.22705,-0.44556 0.84846,-0.98389 1.31111,-1.13581 0.0178,-0.006 -0.0584,-1.56487 -0.16942,-3.46447 -0.11101,-1.8996 -0.20242,-3.522004 -0.20313,-3.605334 -6.8e-4,-0.0833 -0.30898,-0.30719 -0.68504,-0.49748 -1.14414,-0.57891 -1.53629,-1.86867 -0.92996,-3.05856 0.3277,-0.64308 1.16177,-1.1879 1.81856,-1.1879 0.63743,0 1.50186,0.5499 1.78906,1.1381 l 0.25892,0.53028 1.50257,-0.0856 c 0.82641,-0.0471 1.99421,-0.12417 2.59512,-0.17126 l 1.092564,-0.0856 0.313037,-0.72788 c 0.245952,-0.57189 0.445519,-0.79861 0.93123,-1.05794 0.596326,-0.3184 0.716176,-0.32551 1.843908,-0.10943 0.142611,0.0273 1.194268,-1.227104 2.984788,-3.560304 2.676133,-3.48721 2.755867,-3.61012 2.491817,-3.84104 -0.459748,-0.40207 -0.738215,-1.18698 -0.688898,-1.94178 l 0.04521,-0.69191 -9.218508,-6.28918 c -5.070178,-3.45905 -9.352878,-6.36928 -9.517108,-6.46719 -0.24647,-0.14693 -0.34091,-0.13136 -0.54087,0.0892 -0.31418,0.34652 -1.03799,0.67723 -1.48223,0.67723 -0.50123,0 -1.24591,-0.37507 -1.6137,-0.81276 l -0.31607,-0.37616 -8.324852,4.74444 -8.324854,4.74445 0.0506,0.58543 c 0.1136,1.31392 -1.04907,2.49564 -2.34827,2.38673 l -0.59954,-0.0503 -4.47532,6.1758 c -2.46143,3.39669 -4.53156,6.255654 -4.60029,6.353264 -0.0789,0.11211 -0.0464,0.34512 0.0885,0.63269 0.47997,1.0237 0.0433,2.3513 -0.94738,2.88024 -0.71981,0.384334 -1.19958,0.380414 -1.94175,-0.0159 -0.66533,-0.35524 -1.13112,-1.15965 -1.13112,-1.95345 0,-1.26465 1.2201,-2.38979 2.36523,-2.18113 0.31407,0.0572 0.6711,0.11637 0.7934,0.13142 0.14306,0.0176 1.83396,-2.193014 4.74144,-6.198774 4.47151,-6.1606 4.51679,-6.22998 4.30209,-6.59139 -0.11935,-0.20089 -0.29531,-0.61653 -0.39104,-0.92364 l -0.17405,-0.55839 -6.87695,-2.22147 c -3.78233,-1.22181 -6.91267,-2.22391 -6.95631,-2.22689 -0.0436,-0.003 -0.16125,0.16337 -0.26134,0.36966 -0.21469,0.44244 -1.15196,0.98059 -1.70787,0.98059 -0.67882,0 -1.55171,-0.57377 -1.84827,-1.21491 -0.34707,-0.75036 -0.33586,-1.43174 0.0352,-2.13783 z m 0.84342,2.08745 c 0.36075,0.39788 0.57708,0.51214 0.96965,0.51214 0.39258,0 0.60891,-0.11426 0.96966,-0.51214 0.5984,-0.66 0.61852,-1.25096 0.0658,-1.9332 -0.34214,-0.42234 -0.48862,-0.49192 -1.03549,-0.49192 -0.54686,0 -0.69334,0.0696 -1.03548,0.49192 -0.55269,0.68224 -0.53257,1.2732 0.0658,1.9332 z m 6.28225,21.690604 c 0.36074,0.39788 0.57707,0.51214 0.96965,0.51214 0.39257,0 0.6089,-0.11426 0.96965,-0.51214 0.5984,-0.66 0.61852,-1.25096 0.0658,-1.93321 -0.34214,-0.42233 -0.48861,-0.49192 -1.03548,-0.49192 -0.54687,0 -0.69335,0.0696 -1.03548,0.49192 -0.5527,0.68225 -0.53257,1.27321 0.0658,1.93321 z m 3.14112,-38.109175 c 0.36074,0.397877 0.57708,0.512139 0.96965,0.512139 0.39257,0 0.60891,-0.114262 0.96965,-0.512139 0.5984,-0.660002 0.61852,-1.25096 0.0658,-1.933208 -0.34214,-0.422337 -0.48861,-0.491922 -1.03548,-0.491922 -0.54687,0 -0.69335,0.06959 -1.03548,0.491922 -0.5527,0.682248 -0.53257,1.273206 0.0658,1.933208 z M 55.475888,20.453973 c 0.46273,0.51036 0.93927,0.65945 1.11357,0.348387 0.0505,-0.09006 0.20723,-0.130448 0.34836,-0.08974 0.34959,0.100832 0.94171,-0.692662 0.94171,-1.261976 0,-0.271071 -0.15185,-0.625401 -0.39851,-0.929875 -0.34214,-0.422337 -0.48861,-0.491921 -1.03548,-0.491921 -0.54687,0 -0.69334,0.06958 -1.03548,0.491921 -0.55269,0.682248 -0.53257,1.273207 0.0658,1.933208 z m 6.14567,69.289404 c 0.64884,0.71563 1.2929,0.71294 1.94667,-0.008 0.42412,-0.46777 0.46253,-0.57795 0.38076,-1.09206 -0.13759,-0.86505 -0.61384,-1.32494 -1.37208,-1.32494 -0.53072,0 -0.68152,0.0727 -1.02118,0.49192 -0.55269,0.68225 -0.53257,1.27321 0.0658,1.93321 z m 0.68285,11.749073 c 0.36075,0.39787 0.57708,0.51213 0.96966,0.51213 0.39257,0 0.6089,-0.11426 0.96965,-0.51213 0.5984,-0.66001 0.61852,-1.25096 0.0658,-1.933209 -0.34214,-0.42234 -0.48862,-0.49192 -1.03548,-0.49192 -0.54687,0 -0.69335,0.0696 -1.03549,0.49192 -0.55269,0.682249 -0.53257,1.273199 0.0658,1.933209 z m 8.740516,-12.502213 c 0.360743,0.39788 0.577077,0.51214 0.96965,0.51214 0.392574,0 0.608908,-0.11426 0.969651,-0.51214 0.598401,-0.66 0.618525,-1.25096 0.06583,-1.93321 -0.342138,-0.42234 -0.488612,-0.49192 -1.035482,-0.49192 -0.546869,0 -0.693343,0.0696 -1.035481,0.49192 -0.552694,0.68225 -0.53257,1.27321 0.06583,1.93321 z m 9.150223,-56.335304 c 0.360742,0.397878 0.577077,0.512139 0.96965,0.512139 0.392573,0 0.608908,-0.114261 0.969651,-0.512139 0.598401,-0.660001 0.618525,-1.25096 0.06583,-1.933208 -0.342138,-0.422337 -0.488613,-0.491921 -1.035482,-0.491921 -0.546869,0 -0.693344,0.06958 -1.035481,0.491921 -0.552694,0.682248 -0.532571,1.273207 0.06583,1.933208 z m 15.705606,12.954106 c 0.360742,0.397877 0.577077,0.512139 0.96965,0.512139 0.392573,0 0.608908,-0.114262 0.969651,-0.512139 0.598401,-0.660001 0.618525,-1.25096 0.06583,-1.933208 -0.342138,-0.422337 -0.488613,-0.491921 -1.035482,-0.491921 -0.546869,0 -0.693344,0.06958 -1.035481,0.491921 -0.552694,0.682248 -0.532571,1.273207 0.06583,1.933208 z M 106.68982,17.44139 c 0.36074,0.397878 0.57707,0.512139 0.96965,0.512139 0.39257,0 0.6089,-0.114261 0.96965,-0.512139 0.5984,-0.660001 0.61852,-1.25096 0.0658,-1.933208 -0.34214,-0.422337 -0.48861,-0.491921 -1.03548,-0.491921 -0.54687,0 -0.69335,0.06958 -1.03549,0.491921 -0.55269,0.682248 -0.53257,1.273207 0.0658,1.933208 z m 2.86798,95.04698 c 0.36074,0.39788 0.57707,0.51214 0.96965,0.51214 0.39257,0 0.6089,-0.11426 0.96965,-0.51214 0.5984,-0.66 0.61852,-1.25096 0.0658,-1.9332 -0.34214,-0.42234 -0.48861,-0.49193 -1.03548,-0.49193 -0.54687,0 -0.69335,0.0696 -1.03549,0.49193 -0.55269,0.68224 -0.53257,1.2732 0.0658,1.9332 z m 4.64339,-80.285325 c 0.36075,0.397878 0.57708,0.512139 0.96965,0.512139 0.39258,0 0.60891,-0.114261 0.96965,-0.512139 0.59841,-0.660001 0.61853,-1.25096 0.0658,-1.933207 -0.34213,-0.422337 -0.48861,-0.491922 -1.03548,-0.491922 -0.54687,0 -0.69334,0.06959 -1.03548,0.491922 -0.55269,0.682247 -0.53257,1.273206 0.0658,1.933207 z m 1.91199,62.360466 c 0.36074,0.39787 0.57708,0.51213 0.96965,0.51213 0.39257,0 0.60891,-0.11426 0.96965,-0.51213 0.5984,-0.66 0.61853,-1.25095 0.0658,-1.9332 -0.34214,-0.42234 -0.48861,-0.49192 -1.03548,-0.49192 -0.54687,0 -0.69334,0.0696 -1.03548,0.49192 -0.5527,0.68225 -0.53257,1.2732 0.0658,1.9332 z m 1.50228,14.761649 c 0.36074,0.39788 0.57707,0.51214 0.96965,0.51214 0.39257,0 0.6089,-0.11426 0.96965,-0.51214 0.5984,-0.66 0.61852,-1.25096 0.0658,-1.93321 -0.34214,-0.42233 -0.48862,-0.49192 -1.03548,-0.49192 -0.54687,0 -0.69335,0.0696 -1.03549,0.49192 -0.55269,0.68225 -0.53257,1.27321 0.0658,1.93321 z"
       id="path27588" /></g></svg>
