<?xml version="1.0" encoding="UTF-8" standalone="no"?>
<!-- Created with Inkscape (http://www.inkscape.org/) -->

<svg
        width="164mm"
        height="100mm"
        viewBox="0 0 164 100"
        version="1.1"
        id="svg5"
        xml:space="preserve"
        inkscape:version="1.2.2 (732a01da63, 2022-12-09)"
        sodipodi:docname="map_selection.svg"
        xmlns:inkscape="http://www.inkscape.org/namespaces/inkscape"
        xmlns:sodipodi="http://sodipodi.sourceforge.net/DTD/sodipodi-0.dtd"
        xmlns="http://www.w3.org/2000/svg"
        xmlns:svg="http://www.w3.org/2000/svg"><sodipodi:namedview
     id="namedview7"
     pagecolor="#505050"
     bordercolor="#eeeeee"
     borderopacity="1"
     inkscape:showpageshadow="0"
     inkscape:pageopacity="0"
     inkscape:pagecheckerboard="0"
     inkscape:deskcolor="#505050"
     inkscape:document-units="mm"
     showgrid="false"
     inkscape:zoom="2.8284271"
     inkscape:cx="349.48753"
     inkscape:cy="197.45957"
     inkscape:window-width="2880"
     inkscape:window-height="1541"
     inkscape:window-x="-11"
     inkscape:window-y="-11"
     inkscape:window-maximized="1"
     inkscape:current-layer="g4273" />
    <defs
            id="defs2"/>
    <g
            inkscape:label="Layer 1"
            inkscape:groupmode="layer"
            id="layer1"><path
       style="fill:none;stroke:#1f597d;stroke-width:1.68814;stroke-miterlimit:3.7;stroke-dasharray:none;stroke-opacity:1"
       d="M 33.340599,31.987741 21.322909,76.838232 H 95.812084 L 83.833727,31.947204 Z"
       id="path751"
       sodipodi:nodetypes="ccccc" />
        <path
                style="fill:none;stroke:#1f597d;stroke-width:1.68814;stroke-miterlimit:3.7;stroke-dasharray:none;stroke-opacity:1"
                d="M 59.004031,32.192233 V 76.566315"
                id="path1311"/>
        <path
                style="fill:none;stroke:#1f597d;stroke-width:1.68814;stroke-miterlimit:3.7;stroke-dasharray:none;stroke-opacity:1"
                d="M 46.223439,32.14111 38.401716,76.259575"
                id="path1313"/>
        <path
                style="fill:none;stroke:#1f597d;stroke-width:1.68814;stroke-miterlimit:3.7;stroke-dasharray:none;stroke-opacity:1"
                d="m 71.937991,32.14111 6.236931,44.322955"
                id="path1315"/>
        <path
                style="fill:none;stroke:#1f597d;stroke-width:1.68814;stroke-miterlimit:3.7;stroke-dasharray:none;stroke-opacity:1"
                d="m 29.762033,45.995272 57.154802,0.153366"
                id="path1319"/>
        <path
                style="fill:none;stroke:#1f597d;stroke-width:1.69345;stroke-miterlimit:3.7;stroke-dasharray:none;stroke-opacity:1"
                d="m 26.030101,61.587539 h 65.28324"
                id="path1321"/>
        <g
                id="g4273"
                transform="rotate(90,173.03709,68.690444)"
                style="fill:#1f597d;fill-opacity:1;stroke:#1f597d;stroke-opacity:1"><path
         style="fill:#1f597d;fill-opacity:1;stroke:#1f597d;stroke-width:0.264583;stroke-opacity:1"
         d="m 134.88175,135.28519 v -3.57187 h 3.43959 3.43958 v 3.57187 3.57188 h -3.43958 -3.43959 z m 4.7625,0 v -1.19062 h -1.19062 -1.19063 v 1.19062 1.19063 h 1.19063 1.19062 z m 23.28334,0 v -3.57187 h 3.43958 3.43958 v 3.57187 3.57188 h -3.43958 -3.43958 z m 4.7625,0 v -1.19062 h -1.19063 -1.19062 v 1.19062 1.19063 h 1.19062 1.19063 z m -23.28334,0 v -1.19062 h 1.05834 1.05833 v 1.19062 1.19063 h -1.05833 -1.05834 z m 4.49792,0 v -1.22105 l 1.12448,0.0814 c 1.12194,0.0812 1.12448,0.0838 1.12448,1.13969 0,1.05595 -0.003,1.05852 -1.12448,1.1397 l -1.12448,0.0813 z m 4.7625,0 v -1.19062 h 1.05833 1.05834 v 1.19062 1.19063 h -1.05834 -1.05833 z m 4.7625,0 v -1.19062 h 1.05833 1.05834 v 1.19062 1.19063 H 159.488 158.42967 Z M 137.263,128.27373 v -1.05833 h 1.19063 1.19062 v 1.05833 1.05834 h -1.19062 -1.19063 z m 28.04584,0 v -1.05833 h 1.05833 1.05833 v 1.05833 1.05834 h -1.05833 -1.05833 z m -21.44499,-0.84766 c 0.0651,-0.17457 0.51743,-2.09566 1.22394,-4.23784 l 1.28457,-3.89488 7.6823,-7.6617 c 4.37157,-4.35984 7.91035,-7.68299 8.21147,-7.71111 1.29166,-0.1206 1.74969,0.11155 3.40328,1.72494 1.59852,1.55967 1.75609,1.81033 1.75609,2.7936 0,1.06088 -0.13685,1.21837 -7.65534,8.80967 l -7.65534,7.72947 -2.33268,0.76529 c -5.08686,1.66885 -6.03708,2.00128 -5.91829,1.68256 z m 5.23926,-3.94362 c 0.28976,-0.19555 0.59531,-0.26291 0.59531,-0.31204 0,-0.0491 -0.35488,-0.42934 -0.78862,-0.84489 l -0.78862,-0.75554 -1.7823,2.72585 c -0.96932,1.48247 -0.26648,1.23196 2.76423,-0.81338 z m 7.81211,-6.79108 7.348,-6.92052 -1.36873,-1.46923 -1.22842,-1.17107 -7.20575,7.25315 -5.01915,5.01394 1.10976,1.13076 c 0.61036,0.62191 1.17543,1.13075 1.25571,1.13075 0.0803,0 2.37914,-2.2355 5.10858,-4.96778 z m 7.65536,-7.38851 0.74592,-0.71463 -1.24846,-1.26752 -1.24845,-1.26751 -0.73975,0.70873 c -0.40687,0.3898 0.8622,-0.86523 0.8622,-0.71669 0,0.35086 1.98407,2.68394 2.19864,2.41707 0.66581,-0.82813 -0.9793,1.23258 -0.5701,0.84055 z m -26.84456,15.34891 c -0.34181,-0.0893 -0.46302,-0.39296 -0.46302,-1.15993 v -1.03894 h 1.19063 1.19062 v 1.19063 c 0,1.12991 -0.0371,1.18906 -0.7276,1.15993 -0.40018,-0.0169 -0.93596,-0.0851 -1.19063,-0.15169 z m 27.58282,-0.99753 v -1.20134 h 1.05833 1.05833 v 1.1389 1.13889 l -1.05833,0.0624 -1.05833,0.0625 z M 137.263,118.88103 v -1.19063 h 1.19063 1.19062 v 1.19063 1.19062 h -1.19062 -1.19063 z m 28.04584,0 v -1.19063 h 1.05833 1.05833 v 1.19063 1.19062 h -1.05833 -1.05833 z M 137.263,114.25082 v -1.05834 h 1.19063 1.19062 v 1.05834 1.05833 h -1.19062 -1.19063 z m 28.04584,0 v -1.05834 h 1.05833 1.05833 v 1.05834 1.05833 h -1.05833 -1.05833 z m -29.10417,-7.01146 v -3.57188 h 3.43958 3.43959 v 3.40133 3.65693 l -1.8115,0.0409 c -1.1612,0.0417 -2.50452,0.0417 -3.41402,0.0427 l -1.65365,0.002 z m 4.49792,0 v -1.19063 h -1.19063 -1.19062 v 1.19063 1.19062 h 1.19062 1.19063 z m 3.70416,0 v -1.19063 h 1.05834 1.05833 v 1.19063 1.19062 h -1.05833 -1.05834 z m 4.49792,0 v -1.22105 l 1.12448,0.0814 c 1.12194,0.0812 1.12448,0.0837 1.12448,1.13969 0,1.05595 -0.003,1.05852 -1.12448,1.13969 l -1.12448,0.0814 z m 4.7625,0 v -1.19063 h 1.05833 1.05834 v 1.19063 1.19062 h -1.05834 -1.05833 z"
         id="path4266"
         sodipodi:nodetypes="cccccccccccccccccccccccccccccccccccccccccccccccsscccccccccccccccccccccccccccccccccccccccsscssssscssssscssscccccsssscccsssscscccssccccccccccccccccccccccccccccccccccccccccccccccccccccccccccccccccccccccccccccsssccccccccccc" /></g>
        <path
                style="fill:#1f597d;stroke-width:0.125365;stroke:#1f597d;stroke-opacity:1;fill-opacity:1"
                d="m 49.495623,42.664775 c -0.198632,-0.0286 -0.916093,-0.11727 -1.594358,-0.19702 -2.241208,-0.2635 -3.732866,-0.83857 -4.119301,-1.58807 -0.166064,-0.32209 -0.166211,-0.39565 -0.0014,-0.7151 0.415941,-0.80639 1.820153,-1.35519 4.165022,-1.6278 0.72012,-0.0837 1.547374,-0.15925 1.549047,-0.18421 0.0015,-0.0231 -0.239911,-0.9119 -0.923244,-1.65597 -2.845976,-3.77143 -6.089172,-7.46034 -6.785934,-11.51588 -0.25011,-1.45578 -0.188395,-4.54205 0.114486,-5.72528 1.095901,-4.28122 4.028769,-7.4897 7.982329,-8.73245 0.80678,-0.2536 1.214752,-0.29437 2.923921,-0.2922 1.692698,0.002 2.124917,0.0457 2.923922,0.29472 3.942292,1.22863 6.883455,4.44508 7.982772,8.72993 0.122683,0.47819 0.217641,1.49731 0.253677,2.72257 0.04858,1.65161 0.01219,2.2246 -0.401118,3.29647 -1.288351,3.34122 -2.504271,5.78569 -5.10526,9.31684 -0.637226,0.8651 -1.417698,2.23739 -1.702757,2.64923 -0.310482,0.44857 -0.46013,0.82526 -0.46013,0.8705 0,0.0452 0.446922,0.12116 0.99316,0.16873 2.152085,0.18739 3.983473,0.82269 4.471238,1.55105 0.675686,1.00897 -0.638896,1.88433 -3.598462,2.39615 -1.141171,0.19735 -7.699387,0.37728 -8.667573,0.23779 z m 7.570153,-1.23927 c 1.350503,-0.17675 2.821699,-0.50264 3.324505,-0.73643 l 0.421341,-0.19591 -0.651757,-0.24668 c -0.878388,-0.33247 -2.461471,-0.62462 -3.923584,-0.72408 l -1.204619,-0.082 -0.980459,0.80121 c -0.539253,0.44067 -1.099525,0.80121 -1.245049,0.80121 -0.145523,0 -0.705616,-0.3604 -1.24465,-0.80088 l -0.980063,-0.80089 -1.205015,0.0851 c -1.469289,0.10373 -3.046248,0.39032 -3.919948,0.71239 -0.617639,0.22768 -0.637542,0.24857 -0.379467,0.39836 0.631605,0.36658 3.091615,0.79118 5.682633,0.98083 1.043444,0.0764 5.228482,-0.0512 6.306132,-0.19225 z m -3.534149,-2.21294 c 1.847849,-1.48828 3.69476,-4.20515 5.08648,-6.22585 3.687225,-5.35363 5.347983,-10.69384 3.392146,-15.17063 -1.847099,-4.22789 -6.07779,-6.82211 -10.254424,-6.28792 -4.274354,0.54669 -7.744486,3.80512 -8.839148,8.2999 -0.331311,1.36039 -0.355828,3.95399 -0.0517,5.46869 0.798909,3.97889 4.106163,7.99574 7.313602,11.56161 1.171392,1.3023 2.463175,2.87898 2.623779,2.87898 0.04438,0 0.371897,-0.23695 0.729261,-0.52478 z m -2.198948,-11.42834 c -1.342437,-0.35286 -2.479243,-1.17703 -3.367173,-2.44116 -1.574403,-2.24146 -1.646544,-5.28983 -0.181801,-7.68215 0.549425,-0.89736 0.93343,-1.29051 1.832301,-1.87596 3.413387,-2.22317 7.798837,-0.48112 8.978564,3.5666 0.353064,1.21139 0.351509,2.91857 -0.0037,4.06671 -1.020956,3.29999 -4.15089,5.18272 -7.258188,4.36596 z m 3.55295,-1.46057 c 2.036039,-1.03389 3.251089,-3.43552 2.891123,-5.71452 -0.383094,-2.42542 -2.038316,-4.23629 -4.220539,-4.61742 -2.695315,-0.47073 -5.239722,1.57256 -5.716419,4.5906 -0.410271,2.59748 1.109718,5.16673 3.581956,6.05462 0.295855,0.10625 0.899307,0.15903 1.564979,0.13687 0.924101,-0.0308 1.203378,-0.097 1.8989,-0.45015 z"
                id="path419"
                sodipodi:nodetypes="ssscsscsssccssssssssssssscsccssscssssssssssssssssssssssscsssscc"/></g></svg>
