<?xml version="1.0" encoding="UTF-8" standalone="no"?>
<!-- Created with Inkscape (http://www.inkscape.org/) -->

<svg
   width="123mm"
   height="101mm"
   viewBox="0 0 123 101"
   version="1.1"
   id="svg14243"
   inkscape:version="1.2.2 (732a01da63, 2022-12-09)"
   sodipodi:docname="plot.svg"
   xmlns:inkscape="http://www.inkscape.org/namespaces/inkscape"
   xmlns:sodipodi="http://sodipodi.sourceforge.net/DTD/sodipodi-0.dtd"
   xmlns="http://www.w3.org/2000/svg"
   xmlns:svg="http://www.w3.org/2000/svg">
  <sodipodi:namedview
     id="namedview14245"
     pagecolor="#505050"
     bordercolor="#eeeeee"
     borderopacity="1"
     inkscape:showpageshadow="0"
     inkscape:pageopacity="0"
     inkscape:pagecheckerboard="0"
     inkscape:deskcolor="#505050"
     inkscape:document-units="mm"
     showgrid="false"
     inkscape:zoom="1.829812"
     inkscape:cx="261.50227"
     inkscape:cy="89.626693"
     inkscape:window-width="2560"
     inkscape:window-height="1360"
     inkscape:window-x="-11"
     inkscape:window-y="-11"
     inkscape:window-maximized="1"
     inkscape:current-layer="layer1" />
  <defs
     id="defs14240">
    <pattern
       id="EMFhbasepattern"
       patternUnits="userSpaceOnUse"
       width="6"
       height="6"
       x="0"
       y="0" />
  </defs>
  <g
     inkscape:label="Layer 1"
     inkscape:groupmode="layer"
     id="layer1">
    <path
       style="fill:#1f597d;fill-opacity:1;stroke-width:0.181;stroke-dasharray:none"
       d="m 23.305208,66.431746 c -0.355406,-0.319589 -0.48617,-0.945633 -0.322495,-1.54393 0.154896,-0.566214 1.474403,-2.083001 3.016861,-3.467912 1.507854,-1.353852 4.406829,-3.987411 6.442169,-5.852369 2.035338,-1.864947 6.164215,-5.597946 9.175284,-8.295545 3.01107,-2.6976 6.126761,-5.540026 6.923757,-6.316489 0.796994,-0.776466 1.970646,-1.660129 2.608105,-1.963691 0.956471,-0.455476 1.318481,-0.446608 2.071436,0.05077 0.501824,0.331487 3.862848,4.593756 7.468954,9.471686 3.6061,4.87795 6.670132,8.943198 6.808963,9.033877 0.138836,0.09065 1.252853,-0.760377 2.475621,-1.891272 1.222766,-1.130897 4.620285,-4.207444 7.550045,-6.836781 2.929759,-2.629335 7.741053,-6.971721 10.69177,-9.649742 2.95071,-2.678023 5.731211,-4.930216 6.178898,-5.00487 0.447674,-0.07465 1.110405,0.05658 1.472749,0.29161 0.362331,0.23504 0.744611,0.62799 0.849519,0.873225 0.104898,0.245232 0.113171,0.740125 0.01837,1.099744 -0.09429,0.359783 -2.235593,2.498459 -4.75731,4.752961 -2.521714,2.254483 -5.279808,4.734578 -6.129076,5.511307 -0.849278,0.776728 -2.645479,2.431913 -3.99158,3.678164 -1.346085,1.246265 -2.620269,2.383759 -2.83151,2.527782 -0.211243,0.144033 -1.425554,1.221756 -2.698462,2.394951 -1.27291,1.173195 -3.571979,3.268723 -5.10905,4.656716 L 68.42356,62.475574 67.1742,62.248138 c -1.014979,-0.184757 -1.556992,-0.642066 -2.889144,-2.437583 -0.90188,-1.215584 -2.140988,-2.939989 -2.753571,-3.832029 -0.612582,-0.89203 -2.221326,-3.063072 -3.574987,-4.824547 -1.353654,-1.761485 -3.203775,-4.215622 -4.111371,-5.453641 -0.907591,-1.238038 -1.831095,-2.155763 -2.052224,-2.039409 -0.221131,0.116364 -2.934732,2.490845 -6.030232,5.276663 -3.095498,2.785808 -6.727108,6.085431 -8.070247,7.332492 -1.343141,1.247071 -3.377679,3.084722 -4.521197,4.083674 -1.143523,0.998961 -3.171246,2.838477 -4.506057,4.087827 -1.334809,1.249339 -2.764938,2.385464 -3.178062,2.524706 -0.413125,0.139243 -0.938552,0.19689 -1.16761,0.128078 -0.229038,-0.06887 -0.68549,-0.366978 -1.014284,-0.662637 z m 19.553997,-4.186011 c -1.26366,-0.94307 -2.898776,-2.142547 -3.63359,-2.665499 -0.734817,-0.522942 -1.287391,-1.125985 -1.227946,-1.340077 0.05947,-0.214088 0.59778,-0.79193 1.196304,-1.284079 0.598524,-0.492158 1.322506,-0.83074 1.608848,-0.752406 0.286342,0.07834 0.654205,0.319262 0.817477,0.535386 0.163268,0.216132 1.024784,0.882729 1.914478,1.481332 0.889692,0.598611 1.804321,1.215637 2.032502,1.371171 0.240807,0.164057 2.03822,-1.247225 4.283443,-3.363383 2.127707,-2.005391 4.397504,-4.10223 5.043993,-4.659635 l 1.175427,-1.013456 1.227136,1.525992 1.227129,1.526001 -4.471526,4.241993 c -2.459338,2.333098 -5.108241,4.728287 -5.886449,5.322654 -0.778207,0.594357 -1.773737,1.014961 -2.212292,0.934673 -0.438543,-0.08033 -1.831277,-0.917586 -3.094934,-1.860667 z M 30.4573,53.55203 c -0.632066,-0.449196 -1.715327,-1.25189 -2.407248,-1.78376 l -1.511083,-1.116141 -0.211859,-1.588714 1.378704,-0.662414 1.31066,0.243953 c 0.789338,0.146899 2.157362,0.869352 3.439336,1.816241 l 2.128674,1.572284 -1.192056,1.000147 c -0.655632,0.550082 -1.325674,1.07552 -1.488986,1.167641 -0.163313,0.09212 -0.814086,-0.200002 -1.446142,-0.649237 z m 31.461096,-6.404653 -0.994374,-1.528336 1.051795,-0.749287 c 0.578485,-0.412099 2.938408,-2.544838 5.244265,-4.739406 2.305865,-2.194576 4.649418,-4.319219 5.20789,-4.721417 0.558479,-0.402208 1.381446,-0.631154 1.828812,-0.508768 0.447367,0.122383 1.999483,1.227506 3.449145,2.455816 1.44967,1.228314 3.273437,2.806315 4.052827,3.506667 l 1.417067,1.273368 -1.220024,1.118087 c -0.671006,0.614933 -1.421217,1.064393 -1.667137,0.998776 -0.246028,-0.06523 -1.666078,-1.175651 -3.155914,-2.466758 -1.489832,-1.291097 -2.854578,-2.318304 -3.032776,-2.282662 -0.178167,0.03555 -1.521572,1.175345 -2.985282,2.532678 -1.463713,1.357334 -3.781628,3.441062 -5.150925,4.630517 -1.369297,1.189458 -2.615939,2.12809 -2.770313,2.085858 -0.154377,-0.04223 -0.728153,-0.764536 -1.275056,-1.605133 z m 25.682242,3.637464 c -0.903352,-0.762589 -1.579859,-1.615345 -1.503348,-1.895019 0.07652,-0.279682 0.566884,-0.871036 1.089724,-1.314127 0.522851,-0.443088 1.097497,-0.765439 1.277021,-0.716327 0.179514,0.0491 0.987689,0.619678 1.795947,1.267942 0.808273,0.648246 1.716768,1.500303 2.018897,1.893441 0.30212,0.393135 0.459171,1.044305 0.348988,1.447065 -0.110178,0.402742 -0.464592,0.858121 -0.787596,1.011931 -0.322995,0.153812 -1.039494,0.147348 -1.59222,-0.01437 -0.552691,-0.161771 -1.744041,-0.917951 -2.647413,-1.680533 z"
       id="path14764"
       sodipodi:nodetypes="csssssssccsssssscsscssscsssscsssssscccsscsssscsscccsscscsccccscsscsscsssssscscscsssssssscssscs" />
    <path
       style="fill:#1f597d;fill-opacity:1;stroke:#1f567d;stroke-width:0;stroke-dasharray:none"
       d="M 16.773126,26.89484 V 77.503408"
       id="path21864" />
    <path
       style="fill:#1f597d;fill-opacity:1;stroke:#1f567d;stroke-width:0;stroke-dasharray:none"
       d="m 16.773126,30.798928 1.445959,48.873418"
       id="path21866" />
    <path
       style="fill:#1f597d;fill-opacity:1;stroke:#1f567d;stroke-width:0;stroke-dasharray:none"
       d="M 14.025803,27.18403 V 78.08179"
       id="path21868" />
    <path
       style="fill:#1f597d;fill-opacity:1;stroke:#1f567d;stroke-width:2.041;stroke-dasharray:none"
       d="M 17.206913,29.208373 V 79.816941"
       id="path21919" />
    <path
       style="fill:#1f597d;fill-opacity:1;stroke:#1f567d;stroke-width:1.98900022;stroke-dasharray:none"
       d="M 104.25365,79.60005 H 16.194742"
       id="path21919-7" />
  </g>
</svg>
