<?xml version="1.0" encoding="UTF-8" standalone="no"?>
<svg
        xmlns:dc="http://purl.org/dc/elements/1.1/"
        xmlns:cc="http://creativecommons.org/ns#"
        xmlns:rdf="http://www.w3.org/1999/02/22-rdf-syntax-ns#"
        xmlns="http://www.w3.org/2000/svg"
        id="svg16"
        xml:space="preserve"
        viewBox="0 0 1948.7004 1046.3464"
        y="0px"
        x="0px"
        version="1.1"
        width="1948.7003"
        height="1046.3464"><metadata
     id="metadata22"><rdf:RDF><cc:Work
         rdf:about=""><dc:format>image/svg+xml</dc:format><dc:type
        rdf:resource="http://purl.org/dc/dcmitype/StillImage"/><dc:title></dc:title></cc:Work></rdf:RDF></metadata>
    <defs
            id="defs20"/>
    <g
            id="g14"
            transform="translate(-2.0689884e-6,3.6081166)"><g
       style="fill:#fdc534;fill-opacity:1"
       id="g6"><g
         style="fill:#fdc534;fill-opacity:1"
         id="g4"><path
           style="fill:#fdc534;fill-opacity:1"
           id="path2"
           d="m 56,740.4 c 0,22.3 0,44.6 0,66.9 0,35.4 0,70.8 0,106.1 0,8.2 0,16.4 0,24.6 0,16.2 13.7,30 30,30 39.4,0 78.8,0 118.2,0 22.4,0 44.8,0 67.2,0 4.1,0 8.1,0.1 12.2,0 8.9,-0.3 16.5,-4.1 22.6,-10.1 12.6,-12.4 25,-25 37.5,-37.5 26.1,-26.1 52.1,-52.1 78.2,-78.2 34.9,-34.9 69.8,-69.8 104.7,-104.7 39.1,-39.1 78.2,-78.2 117.3,-117.3 38.4,-38.4 76.8,-76.8 115.2,-115.2 32.9,-32.9 65.8,-65.8 98.7,-98.7 22.5,-22.5 45,-45 67.5,-67.5 14.8,-14.8 31.9,-28.8 38.8,-49.3 7.6,-22.4 -0.1,-47.8 -16.3,-64.2 -3.5,-3.5 -7,-7 -10.5,-10.5 -16.1,-16.1 -32.1,-32.1 -48.2,-48.2 -30,-30 -59.8,-60.1 -89.9,-89.9 -25.5,-25.3 -66,-25.5 -91.6,-0.2 -3.7,3.7 -7.4,7.4 -11.1,11.1 -19,19 -38,38 -57,57 -30.6,30.6 -61.2,61.2 -91.8,91.8 -37.4,37.4 -74.8,74.8 -112.2,112.2 -39.4,39.4 -78.7,78.7 -118.1,118.1 -36.4,36.4 -72.7,72.7 -109.1,109.1 -29,29 -58,58 -87,87 -16.6,16.6 -33.3,33.3 -49.9,49.9 -2.2,2.2 -4.4,4.4 -6.5,6.5 -11.1,11.1 -11.9,31.5 0,42.4 12,11 30.6,11.9 42.4,0 5.8,-5.8 11.6,-11.6 17.4,-17.4 15.8,-15.8 31.5,-31.5 47.3,-47.3 23.3,-23.3 46.6,-46.6 69.9,-69.9 28.4,-28.4 56.8,-56.8 85.2,-85.2 31,-31 62.1,-62.1 93.1,-93.1 31.3,-31.3 62.5,-62.5 93.8,-93.8 29.1,-29.1 58.1,-58.1 87.2,-87.2 24.4,-24.4 48.8,-48.8 73.3,-73.3 17.3,-17.3 34.7,-34.7 52,-52 7.8,-7.8 15.6,-15.7 23.5,-23.5 0.2,-0.2 0.4,-0.4 0.5,-0.5 0,0 0,0 0.1,-0.1 -4.7,4.5 3.6,-3.5 1.6,-1.5 2.5,-2.5 -5.7,3.9 -2.7,2.1 1.8,-1.1 3.6,-2.1 5.5,-3 -2.4,1 -4.8,2 -7.2,3 3,-1.2 6,-2 9.2,-2.5 -2.7,0.4 -5.3,0.7 -8,1.1 2.7,-0.3 5.4,-0.3 8.1,0 -2.7,-0.4 -5.3,-0.7 -8,-1.1 3.2,0.5 6.2,1.3 9.2,2.5 -2.4,-1 -4.8,-2 -7.2,-3 1.7,0.8 3.3,1.7 4.9,2.6 3.8,2 -2.6,-1.6 -2.6,-2.2 0,0.2 1.8,1.6 2.1,2 0.1,0.1 0.2,0.2 0.3,0.3 0.8,0.8 1.5,1.5 2.3,2.3 3.4,3.4 6.8,6.8 10.2,10.2 12.3,12.3 24.6,24.6 36.8,36.8 28,28 56,56 83.9,83.9 4.3,4.3 8.6,8.6 12.9,12.9 1,1 2,2 3,3 0.2,0.2 0.3,0.3 0.5,0.5 2.7,2.8 1.3,3.6 -1,-1.7 0.9,2.1 2.5,4 3.4,6.1 -1,-2.4 -2,-4.8 -3,-7.2 1.2,3 2,6 2.5,9.2 -0.4,-2.7 -0.7,-5.3 -1.1,-8 0.3,2.7 0.3,5.4 0,8.1 0.4,-2.7 0.7,-5.3 1.1,-8 -0.5,3.2 -1.3,6.2 -2.5,9.2 1,-2.4 2,-4.8 3,-7.2 -0.8,1.7 -1.7,3.3 -2.6,4.9 -2,3.8 1.6,-2.6 2.2,-2.6 -0.2,0 -1.6,1.8 -2,2.1 0,0 -0.1,0.1 -0.1,0.1 -0.2,0.2 -0.4,0.4 -0.6,0.6 -0.9,0.9 -1.9,1.9 -2.8,2.8 -4,4 -8,8 -11.9,11.9 -15.2,15.2 -30.5,30.5 -45.7,45.7 -22.9,22.9 -45.8,45.8 -68.7,68.7 -28.1,28.1 -56.3,56.3 -84.4,84.4 -31,31 -61.9,61.9 -92.9,92.9 -31.3,31.3 -62.7,62.7 -94,94 -29.3,29.3 -58.5,58.5 -87.8,87.8 -24.8,24.8 -49.5,49.5 -74.3,74.3 -17.8,17.8 -35.7,35.7 -53.5,53.5 -8.5,8.5 -17.1,16.8 -25.5,25.5 -0.4,0.4 -0.7,0.7 -1.1,1.1 7.1,-2.9 14.1,-5.9 21.2,-8.8 -22.3,0 -44.6,0 -66.9,0 -35.4,0 -70.8,0 -106.1,0 -8.2,0 -16.4,0 -24.6,0 10,10 20,20 30,30 0,-22.3 0,-44.6 0,-66.9 0,-35.4 0,-70.8 0,-106.1 0,-8.2 0,-16.4 0,-24.6 0,-15.7 -13.8,-30.7 -30,-30 -16,1.1 -29.7,13.6 -29.7,30.4 z" /></g></g>
        <g
                style="fill:#fdc534;fill-opacity:1"
                id="g12"><g
         style="fill:#fdc534;fill-opacity:1"
         id="g10"><path
           style="fill:#fdc534;fill-opacity:1"
           id="path8"
           d="m 555.6,270.7 c 22.3,22.3 44.6,44.6 66.9,66.9 35.5,35.5 71,71 106.5,106.5 8.1,8.1 16.2,16.2 24.3,24.3 11.5,11.5 30.9,11.5 42.4,0 12.4,-12.4 24.7,-24.7 37.1,-37.1 23.7,-23.7 47.5,-47.5 71.2,-71.2 15.5,-15.5 31,-30.9 46.5,-46.5 5.8,-5.8 10.3,-12.4 13.5,-20 8.9,-21.1 4.4,-43.4 -9.6,-61 -3.6,-4.5 -8,-8.5 -12.1,-12.5 -20,-20 -40,-40 -60,-60 -22.5,-22.5 -45,-45 -67.5,-67.5 -6.1,-6.1 -12.1,-12.1 -18.2,-18.2 -2.6,-2.6 -5.3,-4.9 -8.3,-7.2 -18,-13.9 -41.2,-15 -61.5,-5.7 -9,4.1 -15.7,11.3 -22.5,18.1 -8.1,8.1 -16.2,16.2 -24.2,24.2 -23.6,23.6 -47.2,47.2 -70.9,70.9 -17,17 -34,34 -51,51 -0.9,0.9 -1.8,1.8 -2.6,2.6 -11.1,11.1 -11.9,31.5 0,42.4 12,11 30.6,11.9 42.4,0 18.2,-18.2 36.4,-36.4 54.6,-54.6 28.2,-28.2 56.5,-56.5 84.7,-84.7 4.3,-4.3 8.6,-8.6 12.9,-12.9 1,-1 2.1,-2.1 3.1,-3.1 0.2,-0.2 0.4,-0.4 0.6,-0.6 0.4,-0.4 2,-1.5 2.2,-2 -0.3,0.7 -6.4,4 -2.7,2.3 1.2,-0.6 2.4,-1.3 3.7,-1.9 -2.4,1 -4.8,2 -7.2,3 2.5,-1 5.1,-1.7 7.8,-2 -2.7,0.4 -5.3,0.7 -8,1.1 2.2,-0.2 4.4,-0.2 6.7,0 -2.7,-0.4 -5.3,-0.7 -8,-1.1 2.7,0.4 5.2,1 7.8,2 -2.4,-1 -4.8,-2 -7.2,-3 1.6,0.7 3.2,2.1 4.8,2.6 -4.6,-1.5 -5,-4.3 -2.8,-2.1 0,0 0.7,0.7 1,1 0.1,0.1 0.3,0.3 0.4,0.4 0.8,0.8 1.7,1.7 2.5,2.5 3.6,3.6 7.3,7.3 10.9,10.9 12.8,12.8 25.6,25.6 38.4,38.4 29.1,29.1 58.2,58.2 87.3,87.3 4.5,4.5 9.1,9.1 13.6,13.6 1.1,1.1 2.2,2.2 3.3,3.3 0.2,0.2 0.4,0.4 0.6,0.6 0.4,0.4 1.5,2 2,2.1 -0.7,-0.3 -4,-6.4 -2.3,-2.7 0.6,1.2 1.3,2.4 1.9,3.7 -1,-2.4 -2,-4.8 -3,-7.2 1,2.5 1.7,5.1 2,7.8 -0.4,-2.7 -0.7,-5.3 -1.1,-8 0.2,2.2 0.2,4.4 0,6.7 0.4,-2.7 0.7,-5.3 1.1,-8 -0.4,2.7 -1,5.2 -2,7.8 1,-2.4 2,-4.8 3,-7.2 -0.7,1.6 -2.1,3.2 -2.6,4.8 1.5,-4.6 4.3,-5 2.1,-2.8 0,0 -0.7,0.7 -1,1 -0.1,0.1 -0.3,0.2 -0.4,0.4 -0.8,0.8 -1.6,1.6 -2.4,2.4 -3.5,3.5 -6.9,6.9 -10.4,10.4 -12.3,12.3 -24.5,24.5 -36.8,36.8 -28.7,28.7 -57.4,57.4 -86.1,86.1 -6.6,6.6 -13.3,13.3 -19.9,19.9 14.1,0 28.3,0 42.4,0 -22.3,-22.3 -44.6,-44.6 -66.9,-66.9 -35.5,-35.5 -71,-71 -106.5,-106.5 -8.1,-8.1 -16.2,-16.2 -24.3,-24.3 -11.1,-11.1 -31.5,-11.9 -42.4,0 -10.7,12.3 -11.6,30.9 0.2,42.7 z" /></g></g></g></svg>